<?xml version="1.0" encoding="UTF-8" standalone="no"?>
<svg
   version="1.0"
   width="1422px"
   height="1600px"
   viewBox="0 0 1422 1600"
   preserveAspectRatio="xMidYMid meet"
   id="svg26"
   sodipodi:docname="introduction.svg"
   inkscape:version="1.3 (0e150ed, 2023-07-21)"
   xmlns:inkscape="http://www.inkscape.org/namespaces/inkscape"
   xmlns:sodipodi="http://sodipodi.sourceforge.net/DTD/sodipodi-0.dtd"
   xmlns="http://www.w3.org/2000/svg"
   xmlns:svg="http://www.w3.org/2000/svg">
  <defs
     id="defs26" />
  <sodipodi:namedview
     id="namedview26"
     pagecolor="#ffffff"
     bordercolor="#000000"
     borderopacity="0.25"
     inkscape:showpageshadow="2"
     inkscape:pageopacity="0.0"
     inkscape:pagecheckerboard="0"
     inkscape:deskcolor="#d1d1d1"
     inkscape:zoom="0.1475"
     inkscape:cx="711.86441"
     inkscape:cy="796.61017"
     inkscape:window-width="1280"
     inkscape:window-height="800"
     inkscape:window-x="0"
     inkscape:window-y="32"
     inkscape:window-maximized="0"
     inkscape:current-layer="svg26" />
  <g
     fill="#000000"
     id="g8"
     style="fill:#ffffff;fill-opacity:1">
    <path
       d="M857.5 1504 c-22.7 -0.6 -31.2 -1.4 -46 -4 -2.7 -0.5 -7.9 -1.2 -11.5 -1.6 -3.6 -0.3 -11.9 -1.5 -18.5 -2.6 -6.6 -1.1 -19.9 -2.6 -29.5 -3.4 -9.6 -0.8 -21.1 -1.8 -25.5 -2.3 -4.4 -0.5 -16.1 -1.4 -26 -2 -16.1 -1 -27.4 -1.7 -57 -3.7 -4.9 -0.3 -10.4 -1 -12.2 -1.5 -1.7 -0.6 -9.6 -1.4 -17.5 -2 -17.9 -1.2 -25.7 -2.2 -33.1 -4.3 -3.2 -0.9 -7.8 -1.6 -10.2 -1.6 -4.9 0 -16.8 -1.6 -23 -3.1 -2.2 -0.5 -12.9 -1.6 -23.8 -2.4 -10.9 -0.7 -20.4 -1.8 -21 -2.3 -0.7 -0.5 -11.2 -1.2 -23.4 -1.6 -12.2 -0.4 -23.7 -1.2 -25.5 -1.7 -1.8 -0.6 -9.7 -1.2 -17.5 -1.5 -9.1 -0.2 -17.4 -1.1 -23.1 -2.4 -4.9 -1.1 -16.1 -2.4 -24.8 -3 -28.9 -1.9 -52.8 -3 -60.1 -2.9 -4.9 0 -7.9 -0.4 -9.5 -1.5 -1.7 -1.1 -6.6 -1.8 -16.4 -2.4 -7.7 -0.5 -14.9 -1.4 -16.1 -2 -1.2 -0.7 -3.1 -1.2 -4.2 -1.2 -1.1 0 -4.4 -1.3 -7.3 -2.9 -2.9 -1.6 -6.9 -3.2 -8.8 -3.6 -1.9 -0.4 -9.1 -2.3 -16 -4.2 -6.9 -1.9 -15 -4.1 -18.2 -4.8 -3.1 -0.8 -8.2 -2.8 -11.5 -4.4 -3.2 -1.6 -9.8 -4.3 -14.8 -6 -4.9 -1.8 -9.5 -3.8 -10.1 -4.6 -0.5 -0.7 -3.9 -1.9 -7.4 -2.5 -3.6 -0.7 -8.9 -2.6 -12 -4.3 -3 -1.8 -8.1 -4.1 -11.2 -5.1 -3.5 -1.2 -6 -2.6 -6.3 -3.7 -0.3 -1 -2.1 -2.4 -4 -3 -2.2 -0.8 -3.6 -2.1 -4 -3.6 -0.4 -1.6 -1.9 -3 -4.3 -3.9 -10.2 -4.2 -11.2 -4.9 -15.5 -10.8 -2.5 -3.4 -6.7 -8.4 -9.4 -11.2 -8.1 -8.5 -13.3 -15 -17.9 -22.1 -2.4 -3.7 -5.6 -8.2 -7.2 -10 -1.8 -2.1 -3.3 -5.3 -4.1 -9 -1.9 -9 -3.1 -12.5 -5.8 -16.6 -1.7 -2.8 -2.7 -6.1 -3.4 -12.5 -1.2 -10.8 -1.6 -13.2 -4 -20.6 -1.9 -6 -5.2 -10.6 -7.5 -10.6 -0.6 0 -1.8 -0.7 -2.5 -1.6 -0.7 -0.9 -2.3 -2 -3.5 -2.4 -2 -0.8 -4.4 -7 -4.4 -11.7 0 -3.2 -5.5 -8.3 -8.9 -8.3 -2.7 0 -3.1 -0.4 -3.6 -3.7 -2 -13.7 -2.8 -18 -3.3 -19.3 -0.6 -1.7 -1.4 -10.3 -3.6 -36.2 -0.8 -9.7 -1.7 -18.5 -2 -19.6 -1.8 -5.6 -3.7 -21.8 -4.6 -38.7 -0.5 -10.4 -1.3 -20.8 -1.6 -22.9 -0.4 -2.2 -0.8 -12.8 -1 -23.5 -0.3 -20.3 0.7 -39.9 3.1 -60.6 1.7 -14.3 2.4 -31.6 3 -68.4 0.3 -15 0.9 -30.1 1.5 -33.5 1.9 -11.3 3.2 -27.9 3.9 -48.6 0.4 -11.3 1.2 -21.6 1.8 -23 0.6 -1.4 1.4 -7.2 1.7 -13 0.4 -5.8 1.1 -12.7 1.6 -15.5 3.9 -21.6 6.3 -58.7 6.6 -102.5 0.1 -10.7 0.5 -26.7 1.1 -35.5 0.6 -11.2 0.6 -19.2 -0.2 -26.5 -0.7 -5.8 -1.1 -17.7 -1 -26.5 0.1 -8.8 -0.2 -18.9 -0.7 -22.5 -0.5 -3.6 -1.3 -13.5 -1.9 -22 -2.2 -33.6 -2.9 -42.9 -3.9 -53.5 -0.6 -6 -1.4 -16.7 -1.9 -23.8 -0.5 -7 -1.4 -13.3 -2 -14 -0.7 -0.9 -1 -7.5 -0.9 -18.3 0.2 -23.5 -1.3 -36.4 -3.7 -32.4 -0.3 0.5 -2.3 1 -4.5 1 -4.2 0 -5 -1 -5 -6.6 l0 -3.4 6.1 0 c5.2 0 6 -0.2 5.5 -1.6 -0.3 -0.9 -0.6 -3.7 -0.6 -6.4 l0 -4.8 -10 0.5 -10 0.6 0 -4.7 0 -4.6 4.8 0 c8.3 0 9.2 -0.6 9.2 -5.9 0 -4 0.4 -4.9 3 -6.6 1.9 -1.3 3.3 -3.2 3.7 -5.5 1.2 -5.5 0.7 -37.8 -0.6 -39.4 -0.7 -0.8 -1.3 -10.5 -1.7 -26.7 -0.3 -14 -1 -26.8 -1.5 -28.6 -0.7 -2 -0.6 -7.2 0 -14.8 1 -10.9 0.9 -12 -1.1 -16.1 -3.7 -8 -1 -14.7 8.4 -20.3 5.4 -3.2 9.4 -8.3 10.1 -12.8 0.4 -2.5 1.8 -5 3.7 -6.9 1.6 -1.6 3 -3.5 3 -4.2 0 -1.6 8 -18.1 9.1 -18.8 0.5 -0.3 1.8 -2.4 2.9 -4.7 1.1 -2.3 2.9 -5.5 3.9 -7.2 1.1 -1.6 2.8 -4.6 3.7 -6.5 1 -1.9 2.3 -4.2 2.9 -5 0.7 -0.8 2.2 -4.2 3.5 -7.5 1.5 -4.1 3.7 -7.4 6.9 -10.5 2.6 -2.5 6 -6.3 7.7 -8.5 3.7 -5 7.6 -8.6 14 -12.9 2.8 -1.9 8.4 -6.9 12.5 -11 4.1 -4.2 7.9 -7.6 8.5 -7.6 0.6 0 2.6 -1.3 4.4 -3 1.8 -1.6 3.7 -3 4.2 -3 0.4 0 0.8 -0.7 0.8 -1.5 0 -0.8 0.5 -1.5 1.1 -1.5 0.6 0 2.5 -1.2 4.3 -2.6 14 -11.4 39.5 -23.3 53.8 -25.1 3.6 -0.5 3.8 -0.7 3.8 -4.3 0 -4.7 0.3 -4.8 13.9 -6.1 5.8 -0.5 11.9 -1.4 13.5 -1.9 1.6 -0.6 4.8 -1 7.1 -1 2.3 0 6.7 -0.5 9.6 -1 3 -0.6 11.3 -1.5 18.4 -2 7.2 -0.5 15 -1.3 17.5 -1.9 6.8 -1.6 36.8 -3.3 62.5 -3.6 12.7 -0.1 30.4 -0.8 39.5 -1.4 18.4 -1.3 104.9 -0.7 135.5 0.9 25.7 1.4 86 1.5 113.5 0.2 38.6 -1.8 177.8 -2.6 212.5 -1.1 16.5 0.7 35.2 1.3 41.5 1.3 6.5 0.1 12.4 0.7 13.6 1.3 3.8 2.1 41.5 3.8 43.4 1.9 2 -2 24.9 -0.3 29.5 2.2 1.1 0.6 4.7 1.6 8 2.2 3.3 0.7 6.5 1.6 7 2 0.6 0.4 5.1 1.7 10 2.9 5 1.2 11.7 2.9 15 3.7 3.3 0.8 7.6 2.5 9.5 3.8 1.9 1.3 5.2 2.8 7.2 3.5 2.1 0.7 4 1.7 4.3 2.2 0.4 0.5 1.6 0.9 2.7 0.9 1.2 0 3.5 0.4 5.2 0.9 1.7 0.5 7.2 1.8 12.1 2.9 5 1.2 13.3 3.1 18.5 4.2 5.2 1.2 10.4 2.6 11.5 3 1.1 0.4 4.3 1.2 7 1.8 7.7 1.6 19 4.9 22.2 6.5 1.5 0.8 6 2.2 9.8 3 3.9 0.9 8.8 2.5 11 3.5 2.2 1 7.8 3.1 12.5 4.6 4.7 1.6 11.7 4.2 15.5 5.8 3.9 1.7 8.8 3.4 11 3.8 6.2 1.3 12.8 3.6 16.5 5.9 1.9 1.1 4 2.1 4.7 2.1 0.6 0 3.5 2.2 6.5 5 2.9 2.7 5.7 5 6.1 5 3.4 0 29.7 26.9 39.6 40.5 3.6 5 4.3 6.2 7.6 14.2 1 2.3 2.7 5 3.8 6 4 3.7 9.8 13.3 10.7 18.1 0.5 2.7 1.3 5.9 1.9 7.3 1.8 4.3 4 15.2 4.6 23.4 0.5 5.1 1.4 9.1 2.6 11.1 1.1 1.7 1.9 4.1 1.9 5.2 0 1.1 0.3 2.2 0.8 2.4 1.5 0.6 9 28.4 9.7 35.7 0.3 4 1.1 8.5 1.6 10 1.5 3.8 3.9 17.9 3.9 23 0 2.4 0.5 7.2 1.2 10.6 0.8 4.5 0.8 7.8 0.1 11.4 -0.8 4 -0.7 6.1 0.4 9.4 3 8.8 3.7 13.7 3.8 29.8 0.1 9.2 0.5 17.8 0.9 19.2 0.8 3.5 5.8 8.5 9.1 9.3 3.8 0.9 7.7 7.6 11.5 19.5 1.8 5.4 3.6 10.1 4 10.4 2.4 1.5 1.9 17.3 -0.8 28 -0.6 2.2 -1.8 7.3 -2.7 11.3 -0.9 4.1 -2.5 8.2 -3.6 9.3 -1 1 -1.9 2.8 -1.9 3.8 0 1.1 -0.4 2.2 -0.9 2.5 -0.4 0.3 -1.2 3.4 -1.5 6.8 -0.4 3.4 -1.4 7.4 -2.1 8.8 -2.2 4.2 -4.5 12.6 -4.5 16.9 0 2.1 -0.3 4.1 -0.7 4.3 -0.5 0.2 -1.6 2.1 -2.6 4.3 -1 2.2 -2.5 5.3 -3.3 6.8 -0.8 1.6 -1.4 3.4 -1.4 4.2 0 0.7 -0.6 1.8 -1.4 2.4 -0.8 0.7 -1.7 3.8 -2.1 6.9 -0.3 3.1 -1 8.4 -1.6 11.7 -1.4 8.9 -2.9 28.8 -3.5 47 -0.5 14.8 -0.1 27.3 2.8 76.5 2.1 35.7 1.1 98.4 -2.3 144.5 -0.6 7.7 -1.2 26.4 -1.5 41.5 -0.3 26 -1.1 52.8 -1.5 54.7 -0.2 0.4 0.1 2.8 0.4 5.3 0.4 2.5 0.9 19.1 1.1 37 0.2 17.9 0.9 43.1 1.6 56 1 23.1 0.7 73.1 -0.6 84.1 -0.4 3.4 0 9.9 1 17.2 1 6.4 1.6 14.7 1.5 18.4 -0.1 3.7 0.3 14.2 0.9 23.3 0.7 9.1 1.2 25.2 1.2 35.8 l0 19.2 -3.5 0 c-3.2 0 -3.5 -0.2 -3.5 -3 0 -1.7 -0.4 -3.8 -0.9 -4.8 -0.5 -0.9 -1.3 -2.6 -1.7 -3.7 -0.6 -1.9 -0.7 -1.8 -1.4 0.5 -0.5 1.4 -0.8 4.1 -0.9 6.1 -0.1 2 -0.4 3.9 -0.8 4.3 -0.5 0.4 -0.9 7.4 -1 15.6 -0.1 11.1 -0.5 15.4 -1.6 17.1 -0.8 1.3 -2 5.6 -2.7 9.4 -1.3 7.9 -3.7 17.1 -5.1 19.8 -0.5 0.9 -1.2 4.5 -1.6 8 -0.9 8.6 -3.3 11.7 -9 11.7 -3.7 0 -4.3 -0.3 -4.4 -2.2 -0.1 -1.3 -0.5 0.2 -1 3.2 -0.4 3 -1.2 7.3 -1.7 9.5 -4.9 19.8 -6.1 23.4 -10.1 29.8 -2.4 3.7 -4.7 6.7 -5.1 6.7 -0.5 0 -1.4 1.6 -2 3.5 -0.8 2.3 -1.8 3.5 -3 3.5 -2.3 0 -8 8.3 -8 11.8 0 0.8 -0.6 2.3 -1.4 3.1 -2.2 2.6 -2.9 7.1 -1.1 7.1 1.1 0 1.5 1.2 1.5 5 l0 5 -4 0 c-3.5 0 -4 0.3 -4.5 2.8 -0.4 1.5 -1 3.5 -1.6 4.4 -0.5 1 -0.9 2.5 -0.9 3.3 0 0.8 -0.4 1.5 -0.9 1.5 -0.5 0 -1.1 0.8 -1.4 1.9 -0.3 1.2 -1.7 2 -4.4 2.4 -3.1 0.5 -4.8 1.6 -7.4 4.8 -1.9 2.3 -4.2 5 -5.1 6 -1 1.1 -1.8 2.8 -1.8 3.8 0 2.2 -7.5 9.1 -9.8 9.1 -0.8 0 -3 1.1 -4.8 2.5 -1.8 1.4 -3.8 2.5 -4.5 2.5 -0.6 0 -2.6 1.3 -4.4 2.9 -1.9 1.6 -5.9 3.7 -9.1 4.6 -3.1 0.9 -6.7 2.3 -7.9 3.1 -1.2 0.8 -5.9 2.7 -10.3 4.3 -4.5 1.6 -8.7 3.3 -9.4 3.8 -0.7 0.6 -3.8 1.3 -6.9 1.6 -3 0.3 -8 1.7 -11 3.2 -4.5 2.2 -7.5 2.8 -17.9 3.6 -6.9 0.4 -15.6 1.4 -19.4 2 -4.1 0.7 -10.1 0.9 -14.6 0.5 -6.4 -0.6 -8.5 -0.4 -11.6 1.1 -2.7 1.2 -6.6 1.8 -12.9 1.9 -4.9 0.1 -11.8 0.7 -15.3 1.4 -5.1 1.1 -6.7 1.1 -8.7 0 -1.9 -1 -3.9 -1.1 -9.8 -0.1 -4.1 0.7 -11 1.1 -15.3 1 -4.4 -0.1 -14.8 0.6 -23.3 1.5 -8.5 0.9 -20.8 1.6 -27.5 1.6 -6.7 0.1 -19.1 0.5 -27.6 1 -28.7 1.6 -39.4 1.8 -64.5 1z m97 -138.4 c6.6 -0.2 22.1 -0.7 34.5 -1.3 12.4 -0.6 22.8 -0.9 23.2 -0.7 0.4 0.3 5.4 -0.2 11 -1 9.6 -1.4 15.1 -2 42.8 -4.8 9.9 -0.9 18 -3.4 19.5 -5.8 0.3 -0.5 2.4 -1 4.6 -1 3.6 0 4.6 -0.7 10.9 -7.1 3.9 -3.9 7 -7.9 7 -8.8 0 -2.5 3.6 -5.1 7.3 -5.1 2.7 0 3.7 -0.7 6.3 -4.8 2.8 -4.3 4.1 -6.8 5.8 -11.2 0.3 -0.8 1 -2.2 1.5 -3 1.4 -2.3 4.1 -8.7 4.1 -9.8 0 -0.5 1.4 -2.7 3.1 -4.8 4.5 -5.7 10.1 -19.7 15.4 -38.7 2 -6.9 1.4 -17.5 -1.5 -27.7 -1 -3.6 -2.2 -8.5 -2.5 -11 -0.4 -2.5 -1.5 -5.8 -2.3 -7.5 -0.9 -1.6 -2.2 -8.2 -2.9 -14.5 -0.6 -6.3 -1.7 -14.2 -2.3 -17.5 -1 -5.6 -0.9 -18.6 0.4 -34.5 1.5 -17.5 2.9 -39.8 2.7 -42.7 -0.1 -1.8 0.5 -5.9 1.3 -9 0.8 -3.4 1.6 -13.8 2 -25.3 1.6 -50.7 3.6 -87 6 -105.5 0.9 -6.6 2.2 -23.2 3.1 -36.8 0.8 -13.7 1.7 -25.2 1.9 -25.6 1.2 -1.9 6 -33.9 8 -53.2 1.3 -11.9 2.7 -22.2 3.1 -22.9 0.4 -0.7 1 -13.5 1.2 -28.4 0.9 -63.3 1.1 -72.6 2.2 -83 0.7 -6 1 -12.1 0.7 -13.5 -0.3 -1.4 -0.8 -10.8 -1.1 -20.9 -0.3 -10 -0.8 -18.8 -1 -19.5 -0.8 -2.3 -2.5 -37.9 -1.8 -39 0.3 -0.6 0.8 -12.8 0.9 -27.1 0.2 -14.4 0.5 -40 0.8 -57.1 0.7 -38.5 -0.8 -54.8 -5.2 -60 -2.5 -2.9 -3.3 -3.2 -10.2 -3.8 -4.1 -0.3 -10.9 -1.5 -15 -2.6 -4.1 -1.1 -8.6 -2.1 -10 -2.1 -1.4 0 -4.7 -1.1 -7.5 -2.5 -2.7 -1.3 -5.8 -2.5 -6.8 -2.5 -1 0 -3.8 -1.1 -6.3 -2.5 -2.5 -1.4 -5.5 -2.5 -6.7 -2.5 -1.3 0 -4 -0.9 -6.2 -2 -2.2 -1.1 -4.8 -2 -5.9 -2 -1 0 -3.5 -1.2 -5.5 -2.7 -7.3 -5.6 -10.3 -7.3 -14.9 -8.5 -2.9 -0.7 -5.9 -2.3 -7.8 -4.3 -1.8 -1.8 -7 -5.1 -11.8 -7.4 -11.1 -5.4 -15.6 -9.6 -15.6 -14.5 0 -3.3 0.2 -3.6 3 -3.6 3.8 0 4.1 -2.6 0.5 -4.2 -1.4 -0.6 -3.5 -2.7 -4.7 -4.6 -1.1 -1.9 -3.4 -3.9 -4.9 -4.4 -2.2 -0.7 -3.1 -2 -3.9 -4.9 -0.6 -2.2 -2.3 -5.4 -3.9 -7.2 -4.3 -4.9 -5.1 -7.1 -5.1 -13.4 0 -3.2 -0.7 -8 -1.6 -10.8 -0.9 -2.7 -2 -10.4 -2.4 -17 -0.7 -10.7 -2.2 -19.4 -6.1 -35 -1 -4.4 -3 -10.9 -11.1 -36.5 -1.1 -3.6 -3.1 -8.9 -4.4 -11.8 -1.3 -2.9 -2.4 -5.6 -2.4 -6 0 -1.6 -4.3 -9.8 -8 -15.2 -3.5 -5.1 -6.4 -8.5 -13.9 -16.5 -1.5 -1.6 -6 -6.7 -10 -11.2 -4 -4.4 -8.9 -9.2 -10.9 -10.6 -4 -2.6 -11.4 -4 -21.7 -4 -17 0 -53.2 -2 -71.4 -3.9 -11.3 -1.1 -24 -2 -28.1 -1.9 -9 0.2 -37.4 -2.3 -50.3 -4.5 -17.2 -2.9 -22.2 -3.4 -45 -4.4 -15.8 -0.7 -28.4 -0.7 -41 0.1 -24.5 1.4 -97.3 1.6 -157.2 0.5 -26.9 -0.6 -52.6 -1.1 -57 -1.1 -4.4 -0.1 -16.8 -0.2 -27.5 -0.1 -28.2 0 -32.3 0 -44 -0.2 -5.8 -0.1 -22.2 0.2 -36.5 0.7 -25.9 1 -33.2 2 -49 6.5 -9.2 2.7 -22 5.5 -27.8 6 -7.2 0.8 -11.1 2.2 -27.7 9.9 -8.8 4.1 -12.2 5.4 -17.9 6.7 -4.4 1 -6.7 2.4 -11.5 6.9 -3.4 3.1 -7.1 6.3 -8.2 7.1 -2.9 2 -5.7 10.4 -5.5 16.3 0.1 2.7 -0.3 5.5 -1 6.3 -0.8 1 -1.3 6.1 -1.5 14.7 -0.1 7.3 -0.7 19.1 -1.2 26.2 -0.6 7.2 -1.5 20 -2.2 28.5 -0.7 9.6 -1.9 17.4 -3 20.5 -1.5 4.4 -2.1 5 -4.9 5.3 -2 0.2 -4.2 -0.4 -6 -1.7 -1.6 -1.2 -3.1 -2.1 -3.4 -2.1 -0.3 0 -0.8 2 -1.1 4.5 -0.4 2.4 -1.1 4.7 -1.7 5 -0.5 0.4 -0.9 3.9 -0.9 7.8 -0.1 4.7 -0.6 7.9 -1.5 9.1 -0.8 1.1 -1.5 3.9 -1.5 6.3 0 3 -0.5 4.5 -1.5 4.9 -0.8 0.4 -1.5 1.6 -1.5 2.8 0 1.2 -0.8 3.7 -1.8 5.6 -1.6 3 -1.8 4.7 -1.1 11 1 9.8 1 28.9 0 31.5 -0.5 1.1 -0.5 2.5 0 3 0.4 0.6 0.4 8 -0.1 16.5 -0.5 8.5 -1 20 -0.9 25.6 0 5.5 -0.4 11.1 -0.9 12.5 -1 2.5 0.1 37.7 1.8 58.4 1.9 23.4 5 76.7 5.4 91.5 1.9 71.2 1.3 120.9 -1.3 130.1 -1.6 5.4 -3.4 40 -3.2 61 0.1 12.2 -0.4 22.4 -1.4 29.5 -1.8 13 -2 21.4 -0.4 21.4 0.9 0 0.9 1.8 0.3 6.8 -0.5 3.7 -0.9 13.2 -1 21.2 0 8 -0.1 20.4 -0.1 27.5 -0.1 7.2 -0.1 17.1 -0.2 22 -0.1 24.3 -1.3 49.1 -2.4 50.4 -0.8 1 -1.1 6 -0.9 16.3 0.1 8.2 -0.2 16.6 -0.8 18.7 -0.6 2.4 -1 14.3 -0.9 29.8 0.3 41.2 0.2 39.7 2.1 41.7 1 1 1.8 2.3 1.8 3.1 0 0.7 0.7 2.6 1.5 4.1 0.8 1.6 1.5 4.3 1.6 5.9 0.1 4.2 2.2 13.6 3.7 16.2 0.7 1.2 1.5 5 1.9 8.5 0.3 3.5 1.7 8.8 3 11.8 2.3 4.9 2.4 6.2 1.8 14.7 -0.5 5.8 -0.3 11 0.3 13.6 0.6 2.3 1.9 7.1 2.8 10.7 0.9 3.6 2 9.7 2.3 13.5 0.4 4.6 1.6 8.7 3.3 12 1.4 2.8 4.5 9.8 6.8 15.7 2.3 5.8 5.5 12.7 7.1 15.3 1.6 2.5 3.8 7.6 5 11.3 3.7 12.2 4.9 14.7 9 19 2.2 2.3 4.2 4.2 4.5 4.2 0.3 0 2.9 2.4 5.8 5.3 7 6.9 9.3 8.6 13.3 9.3 1.8 0.3 3.5 1 3.8 1.4 0.3 0.5 2.4 1.1 4.8 1.5 2.3 0.4 6.7 1.4 9.7 2.2 7.9 2.1 21 4.8 32.5 6.8 5.5 0.9 12 2 14.5 2.5 2.5 0.5 7.5 0.9 11.3 0.9 3.7 0.1 6.7 0.5 6.7 1.1 0 0.6 4.2 1 10.5 1 5.8 0 10.5 0.4 10.5 0.8 0 2.1 44.8 5.8 91 7.6 7.4 0.3 16.2 1.1 19.5 1.7 3.3 0.6 15 1.7 26 2.5 23.4 1.6 38.8 3.4 39.6 4.6 0.3 0.5 6.6 1.3 14 1.8 7.4 0.5 15 1.4 16.9 2 1.9 0.5 6.3 1 9.7 1 3.4 0 6.5 0.5 6.8 1 0.3 0.6 2.7 1 5.3 1 2.6 0.1 6.7 0.5 9.2 1 7 1.5 24.5 3 47.5 4.1 11.6 0.6 27.8 1.5 36 2 8.3 0.5 19.3 1.1 24.5 1.4 25.7 1.3 57 3.8 61 4.7 2.8 0.7 21.5 1.2 48.2 1.3 24 0.2 44.1 0.5 44.6 0.9 0.5 0.3 8 0.8 16.8 1.2 8.7 0.3 16.1 0.7 16.2 0.9 0.2 0.2 12.2 0.1 26.5 -0.2 14.4 -0.3 31.6 -0.6 38.2 -0.7z m206.3 -1032.6 c-0.7 -11.3 -1.8 -22.2 -3.7 -37 -0.6 -4.1 -1 -10.6 -1.1 -14.3 0 -11.6 -4.3 -23 -12.6 -33.8 -3.5 -4.5 -10.2 -10.9 -11.6 -10.9 -0.2 0 -0.2 4.7 0 10.4 0.3 8.9 0 10.8 -1.7 14 -2 3.5 -2 3.6 -0.1 3.6 2.2 0 2.6 1.6 3.5 14.8 0.3 5.3 0.1 9 -0.6 10.3 -0.9 1.7 -0.7 2.7 0.9 4.9 1.1 1.5 2.4 4.5 2.8 6.6 0.3 2.2 1.1 4.4 1.6 5.1 0.5 0.7 1.2 5.6 1.4 11 0.6 13.6 3.4 29 5.5 30.9 0.9 0.8 4.5 2.3 8 3.3 l6.4 1.8 1 -4.6 c0.6 -2.7 0.7 -9.3 0.3 -16.1z m-959.7 -38.5 c-0.1 -7 0.5 -12.3 1.8 -17.5 2.3 -8.7 3.9 -30.6 2.1 -27.7 -0.6 0.9 -1.4 5 -1.6 9 -0.3 3.9 -0.9 8.1 -1.4 9.2 -0.8 1.9 -1.3 4.5 -2.6 15 -0.4 2.8 -1.1 5.3 -1.7 5.7 -0.7 0.4 -0.4 1.9 0.8 4.3 1.2 2.7 1.5 5 1.1 7.9 -0.3 2.3 -0.8 5.7 -1.1 7.6 l-0.5 3.5 1.6 -3.5 c1.1 -2.5 1.6 -6.2 1.5 -13.5z"
       id="path1"
       style="fill:#ffffff;fill-opacity:1" />
    <path
       d="M898.5 1173.9 c-18.7 -1.3 -35.7 -2.9 -43 -4.2 -3.8 -0.7 -11 -1.1 -16 -1 -4.9 0.1 -20.9 -0.7 -35.5 -1.7 -14.6 -0.9 -28.6 -1.5 -31.3 -1.3 -2.7 0.3 -5.3 0 -6.1 -0.6 -1.6 -1.4 -8.2 -1.9 -30.6 -2.6 -9.6 -0.3 -26 -0.9 -36.5 -1.5 -10.4 -0.5 -28.9 -0.6 -41 -0.3 -15.3 0.3 -30 0 -48 -1.2 -14.3 -0.9 -33 -2.1 -41.5 -2.6 -8.5 -0.5 -26.7 -0.9 -40.5 -0.7 -82.7 0.7 -117.4 -0.1 -139.5 -3.2 -7.4 -1 -21.8 -2.4 -32 -3 -10.2 -0.6 -20.3 -1.5 -22.5 -2.1 -2.2 -0.6 -7.8 -1.5 -12.5 -2 -11.2 -1.2 -21.9 -3 -25 -4.2 -1.4 -0.5 -9.4 -1.2 -17.8 -1.7 -9.1 -0.4 -15.8 -1.2 -16.5 -1.9 -0.6 -0.6 -2.1 -1.1 -3.3 -1.1 -1.6 0 -2.3 -0.8 -2.8 -3.1 -1.1 -5.9 -0.7 -8.9 1.9 -11.4 l2.4 -2.5 -2.4 0 c-1.3 0 -3 -0.6 -3.7 -1.3 -1.9 -1.9 -3.8 -1 -3.8 1.8 0 2.7 -1.7 3.5 -7.6 3.5 -3.8 0 -4.4 -0.3 -5 -2.5 -0.4 -1.4 -0.4 -4.3 0 -6.5 0.3 -2.1 0.1 -6.1 -0.6 -8.9 -0.9 -3.9 -1.9 -5.6 -4.5 -7.3 -2.6 -1.8 -3.3 -3 -3.3 -5.6 0 -4 3.2 -7.1 7.3 -7.2 1.9 0 3.1 -0.7 3.9 -2.5 0.6 -1.4 1.7 -2.5 2.4 -2.5 0.7 0 1.8 -1.3 2.5 -2.8 1.5 -3.5 9.3 -6.3 24 -8.6 2.5 -0.5 3.9 -1.4 4.7 -3 1 -2.3 0.9 -2.5 -3.1 -3.1 -2.3 -0.4 -5 -1.4 -5.9 -2.3 -4 -3.5 -0.5 -13.2 4.8 -13.2 1.4 0 2.7 -0.7 3 -1.5 0.4 -0.8 1.5 -1.5 2.5 -1.5 1 0 1.9 -0.4 1.9 -1 0 -0.5 0.8 -1 1.8 -1 1 0 3.6 -0.9 5.7 -2.1 5.4 -2.8 10.1 -3.9 22 -4.9 5.5 -0.5 11.8 -1.4 14 -1.9 5.9 -1.5 17.8 -1.3 21 0.3 2 1.1 3.4 1.2 5.6 0.4 1.8 -0.6 10.4 -0.8 22.1 -0.5 10.6 0.2 20.7 0 22.5 -0.5 2 -0.5 6.9 -0.5 13 0.3 5.4 0.6 11.7 1.3 14.1 1.6 2.9 0.4 4.2 0.1 4.2 -0.7 0 -1 2.1 -1.1 9.8 -0.4 12.4 1.2 49.2 1.2 78.7 0 30.8 -1.2 58.6 -1.2 61 0 1.2 0.5 27.8 0.9 66 1 71.5 0.1 124.2 0.8 129.5 1.7 1.9 0.4 9 0.9 15.7 1.2 6.8 0.2 15.5 1.1 19.5 1.9 4.3 0.9 16.2 1.7 28.8 1.9 21 0.5 37 1.7 50 3.8 15.8 2.6 55.8 1.1 73.1 -2.7 15.1 -3.2 49.4 -0.6 55.2 4.2 1.6 1.3 3.9 2.4 5.2 2.4 4.7 0 8.5 1.3 9 3.1 0.4 1.1 1.3 1.9 2.1 1.9 0.8 0 1.4 0.5 1.4 1.1 0 2.5 3.3 4.1 15.8 7.5 0.6 0.2 1.2 1.1 1.2 1.9 0 1.8 5.3 7.5 6.9 7.5 0.6 0 1.1 0.6 1.1 1.3 0 0.6 0.6 2.3 1.3 3.7 3.9 7.5 4.5 18.4 1.2 19.7 -2.2 0.8 -0.9 2 2.9 2.7 7.1 1.3 8.5 6.7 6.8 24.5 -0.6 5.9 -1.7 11 -2.5 12 -0.7 0.9 -1.9 3.1 -2.7 4.9 -0.7 1.9 -2 3.2 -3 3.2 -0.9 0 -2.2 1.1 -2.8 2.5 -0.7 1.5 -2 2.5 -3.2 2.5 -1.1 0 -2 0.6 -2 1.4 0 1.6 -3 2.6 -7.7 2.6 -3 0 -3.2 -0.2 -3.9 -4.5 -0.3 -2.5 -1.1 -4.8 -1.7 -5.2 -0.6 -0.4 -6.3 -0.8 -12.7 -0.8 -6.3 -0.1 -12.4 -0.5 -13.5 -0.9 -1.8 -0.7 -1.8 -0.6 -0.2 0.4 0.9 0.6 1.7 2 1.7 3 0 1.4 0.7 2 2.4 2 2.9 0 3.6 1.6 3.6 8.5 0 7 -2.9 16.4 -5.4 17.7 -2.5 1.4 -26 0.5 -27.9 -1 -2.4 -2.1 -13.8 -2.5 -23.7 -0.9 -11.2 1.8 -46.7 2.8 -62.5 1.6z"
       id="path2"
       style="fill:#ffffff;fill-opacity:1" />
    <path
       d="M961.6 979.9 c-7.6 -0.4 -16.8 -1.3 -20.5 -1.9 -3.6 -0.6 -10.6 -1.5 -15.6 -2 -4.9 -0.4 -10.8 -1.3 -13.1 -1.9 -2.2 -0.6 -11.6 -1.8 -21 -2.6 -9.3 -0.8 -19.6 -1.9 -22.9 -2.4 -6.1 -0.9 -12.2 -0.5 -14 0.9 -0.5 0.4 -15.3 0.7 -32.7 0.7 -21.2 -0.1 -32.5 0.3 -34 1 -1.3 0.6 -6.1 1.6 -10.8 2.2 -11.7 1.6 -100.6 0.9 -115.5 -0.9 -6 -0.7 -18.6 -1.4 -28 -1.5 -9.3 -0.1 -20 -0.2 -23.7 -0.3 -3.7 -0.1 -10.2 -0.6 -14.5 -1.1 -4.3 -0.6 -20.2 -1.5 -35.3 -2.1 -15.1 -0.6 -30 -1.4 -33 -1.9 -5.5 -0.9 -42.4 -1.9 -96.2 -2.6 -17.8 -0.2 -29.4 -0.7 -30.6 -1.4 -1.1 -0.6 -7.6 -1.6 -14.4 -2.2 -6.7 -0.6 -15.2 -1.4 -18.8 -1.9 -3.6 -0.4 -13.2 -1.3 -21.5 -1.9 -14.1 -1.1 -20.7 -2 -31.5 -4.2 -2.5 -0.5 -6.5 -1.2 -9 -1.5 -9 -1.2 -18.4 -5.1 -23.4 -9.6 -1.1 -1 -2.6 -1.8 -3.3 -1.8 -0.8 0 -4.2 -0.9 -7.6 -1.9 -3.4 -1.1 -7.4 -2.2 -9 -2.5 -4.1 -1 -6.7 -4 -6.7 -8.1 0 -2.2 -0.6 -3.8 -1.5 -4.1 -0.8 -0.4 -1.5 -1.4 -1.5 -2.4 0 -0.9 -0.9 -2.5 -2 -3.5 -1.6 -1.5 -2 -2.9 -1.8 -6.4 l0.3 -4.6 5.8 -0.9 c9.4 -1.5 7.3 -3.3 -4.6 -3.8 -5.6 -0.3 -11.5 -1.1 -13 -1.8 -2.5 -1.2 -2.8 -1.8 -2.5 -5.9 0.3 -3.7 0.8 -4.7 3.3 -6.2 1.7 -1 3.8 -1.8 4.8 -1.8 0.9 -0.1 1.7 -0.5 1.7 -1 0 -0.5 1.4 -2.3 3.1 -4 2.4 -2.4 3.9 -3.1 6.9 -3.1 4.6 0 9 -1.8 9 -3.7 0 -0.7 0.5 -1.3 1 -1.3 0.6 0 1 -2.3 1 -5.1 0 -3.6 0.6 -5.8 2 -7.6 1.1 -1.4 2 -3.1 2 -3.8 0 -2.1 3.9 -6.4 7.3 -8 2.6 -1.2 9.9 -1.6 38.7 -2 19.6 -0.3 37.6 -0.8 40.1 -1.1 2.8 -0.4 5.5 -0.2 6.7 0.5 1.2 0.6 5.9 1.2 10.4 1.2 4.6 0 11.7 0.7 15.8 1.4 16.6 3.1 79.2 4.2 93.5 1.7 5.9 -1.1 101.7 -0.7 110.8 0.4 4.2 0.5 8.1 0.6 8.6 0.1 0.5 -0.5 7 -0.3 14.4 0.3 31.2 2.4 127.8 3.1 130.1 0.9 1.3 -1.2 6.6 -1.1 10.3 0.2 2.2 0.7 6.3 0.7 13.9 -0.1 16.6 -1.7 19.7 -1.9 35.9 -3 21.5 -1.5 78.2 -2.1 90 -0.9 28.8 2.8 35.1 3.5 36 4.1 0.6 0.3 6.4 1.1 13 1.8 6.6 0.6 13 1.3 14.3 1.6 1.5 0.3 3 -0.3 4.5 -1.9 1.2 -1.3 3.7 -3 5.5 -3.8 1.7 -0.8 3.2 -1.7 3.2 -2.1 0 -0.5 1.5 -0.8 3.4 -0.8 2.7 0 3.8 -0.7 5.7 -3.6 4.5 -6.7 12.1 -8 21.3 -3.8 6.7 3.1 9.7 5.6 12.1 10.4 1 1.9 1.9 3.6 2 3.8 0.1 0.1 1.5 -0.4 3.1 -1.3 1.6 -0.8 4.5 -1.5 6.4 -1.5 3.7 0 13 2.5 13.9 3.8 0.4 0.4 1.8 1.3 3.4 1.9 1.7 0.8 2.7 2 2.7 3.3 0 1.4 1.8 3.2 5.5 5.5 3 2 5.5 4.2 5.5 5 0 0.8 0.6 1.5 1.4 1.5 0.7 0 2.6 2 4.2 4.5 1.9 3.1 3.5 4.5 5 4.5 3.3 0 5.4 1 5.4 2.6 0 0.8 0.5 1.4 1 1.4 0.6 0 1 1.6 1 3.5 0 3 -0.5 3.7 -2.7 4.5 -1.6 0.6 -4.5 1.9 -6.6 3 -2.2 1.1 -4.7 2 -5.8 2 -1 0 -2.3 0.9 -2.9 2 -0.9 1.7 -0.8 2 0.7 2 2.6 0 6.3 4.4 6.3 7.4 0 1.5 0.8 3.9 1.8 5.3 1.3 2.1 1.8 5.4 2 14.3 0.4 12.6 -0.6 17 -3.7 17 -1.5 0 -2.2 0.9 -2.6 3.8 -0.8 4.9 -2.8 8.5 -5.4 9.7 -1.4 0.7 -2.1 1.9 -2.1 4 0 3.3 -2.4 6.8 -5.5 8 -1.1 0.4 -4.9 1.1 -8.5 1.5 -3.6 0.5 -9.6 1.8 -13.5 2.9 -4.5 1.4 -12 2.5 -21 3.1 -7.7 0.5 -16.2 1.4 -19 1.9 -5.6 1.1 -5.8 1.1 -24.9 0z m-681.6 -107.3 c0 -0.2 -0.7 -0.9 -1.5 -1.6 -1.2 -1 -1.5 -1 -1.5 0.4 0 0.9 0.7 1.6 1.5 1.6 0.8 0 1.5 -0.2 1.5 -0.4z"
       id="path3"
       style="fill:#ffffff;fill-opacity:1" />
    <path
       d="M1063.2 823 c-2.9 -0.4 -6.3 -1.5 -7.7 -2.4 -1.3 -0.9 -3.2 -1.6 -4.1 -1.6 -0.9 0 -3.2 -0.9 -5 -2.1 -1.9 -1.2 -7.3 -2.7 -12.3 -3.5 -8.3 -1.3 -11.8 -2.5 -18.1 -5.9 -2.7 -1.5 -5 -1.6 -38 -1.6 -33.2 0.1 -64.3 -0.6 -77 -1.6 -12.8 -1.1 -67.5 -0.9 -78.6 0.2 -5.4 0.6 -9.4 0.3 -17 -1.3 -5.4 -1.1 -16 -2.5 -23.4 -3.2 -7.4 -0.6 -14.8 -1.3 -16.5 -1.6 -11.4 -2 -57.4 -4.2 -90.5 -4.5 -20.8 -0.1 -41.7 -1.3 -49 -2.8 -15.1 -3.2 -43.1 -5.8 -84 -8 -11.8 -0.6 -23.7 -1.6 -26.5 -2.2 -2.8 -0.6 -23 -1.3 -46 -1.5 -22.5 -0.3 -41.7 -0.7 -42.5 -1 -0.8 -0.3 -6 -1 -11.5 -1.5 -5.5 -0.5 -13.8 -1.3 -18.5 -1.9 -4.7 -0.5 -18.8 -1 -31.5 -1 -21.1 -0.1 -26.2 -0.5 -32 -3 -2.9 -1.2 -10.1 -2.9 -17.2 -3.9 -6.2 -1 -15.1 -5.1 -16.6 -7.7 -0.6 -1 -2.2 -1.2 -6.7 -0.7 -4.2 0.4 -6 0.2 -6 -0.6 0 -0.6 -0.6 -1.1 -1.4 -1.1 -0.7 0 -1.9 -0.6 -2.5 -1.4 -0.7 -0.8 -2.7 -1.8 -4.4 -2.2 -1.8 -0.3 -4.2 -1.7 -5.3 -2.9 -1.2 -1.3 -4.5 -3.2 -7.4 -4.2 -3.6 -1.2 -6.5 -3.2 -9.4 -6.5 -4.6 -5.1 -10 -7.8 -15.2 -7.8 -3.4 0 -3.4 -0.1 -3.4 -4.4 0 -3.6 -0.5 -4.8 -2.6 -6.5 -1.5 -1.2 -3.3 -2.1 -4 -2.1 -0.7 0 -2.9 -0.9 -4.8 -2.1 -2.8 -1.6 -3.6 -2.7 -3.6 -4.9 0 -6.2 3.6 -11.4 9.6 -14 2.9 -1.3 3 -1.5 1.5 -3.2 -0.8 -1 -2.2 -1.8 -3.1 -1.8 -0.8 -0.1 -2.5 -0.9 -3.7 -1.9 -5.3 -4.4 -1.2 -18.6 6.6 -22.9 2.1 -1.2 5.2 -2.2 6.9 -2.2 3 0 5.8 -1.2 10 -4.2 2.3 -1.5 2.3 -1.7 0.7 -4.1 -0.9 -1.4 -2.3 -2.8 -3.1 -3.1 -1.1 -0.4 -1.4 -1.8 -1.2 -4.8 0.3 -3.6 0.7 -4.3 3.2 -4.9 1.6 -0.5 9.7 -0.4 18 0 8.3 0.5 17.7 0.6 21 0.3 3.2 -0.2 8.8 0 12.5 0.6 9.4 1.6 38.3 3.6 46.9 3.4 4.1 -0.1 10.3 0.5 13.9 1.3 4.9 1.2 6.9 1.3 7.9 0.4 1 -0.8 4.1 -0.9 10.2 -0.4 4.8 0.4 13.1 0.7 18.4 0.6 6.4 -0.2 12.1 0.4 16.5 1.5 5.4 1.3 9.2 1.6 18.8 1 6.9 -0.3 15.6 -0.1 20.5 0.5 6.9 0.8 90.1 2.3 103 1.7 7.3 -0.3 12.9 0 26 1.2 13.5 1.3 23.2 1.5 39 1 13.8 -0.4 53.3 1.1 55.4 2.2 3.5 1.9 58.5 4.6 107.2 5.2 19.7 0.3 36.1 1 39 1.6 2.7 0.6 10.1 1.1 16.4 1 11.8 -0.2 32.8 1.1 50.5 3 5.5 0.6 15 1 21 0.8 12.9 -0.3 51.3 0.9 63.5 2.1 4.7 0.4 18 0.6 29.6 0.4 16.3 -0.2 22.6 0 27.5 1.2 3.5 0.8 13.4 1.9 21.9 2.5 15.2 1.1 23 2.5 23 4.2 0 0.4 0.6 0.8 1.4 0.8 0.7 0 2.1 1.1 3 2.5 1.4 2.1 2.4 2.5 6.9 2.5 10.7 0.1 21.3 5.6 24.2 12.7 1.7 4 5.1 7.3 7.5 7.3 0.7 0 2.4 1.3 4 2.9 2.5 2.4 3 3.9 3.6 10.4 0.6 6.7 0.4 7.9 -1.7 11.6 -1.2 2.2 -2.8 4.1 -3.5 4.1 -1.9 0 -2.7 1.9 -1.5 3.3 0.5 0.7 1.3 3.3 1.7 5.7 0.4 2.4 1.3 5.5 2.1 6.9 1.6 3.2 1.7 11.4 0.1 15.7 -1.4 3.8 0.1 8.4 2.7 8.4 3.6 0 4.8 11.8 1.7 16.8 -0.9 1.6 -3.2 4.4 -5.1 6.3 -1.8 1.9 -4.7 5.4 -6.5 7.9 -2.1 3.1 -4.7 5.3 -8.4 6.9 -2.8 1.4 -5.2 3 -5.2 3.7 0 1.7 -2.2 2.3 -12.7 3.5 -12.8 1.5 -23.1 1.8 -29.1 0.9z m46.5 -83.4 c-0.9 -0.9 -1.9 -1.6 -2.4 -1.6 -0.5 0 -1.5 -1.6 -2.2 -3.5 -1.7 -4.9 -3.2 -4.4 -1.7 0.6 1.3 4.3 5.5 8.4 7 6.9 0.5 -0.5 0.2 -1.5 -0.7 -2.4z"
       id="path4"
       style="fill:#ffffff;fill-opacity:1" />
    <path
       d="M741.5 615.1 c-3.3 -0.3 -6.6 -1 -7.4 -1.5 -1.7 -1.1 -21 -2.4 -43.6 -3 -9.3 -0.3 -29.1 -0.8 -44 -1.2 -14.8 -0.5 -31.9 -0.7 -38 -0.5 -6 0.1 -14.6 -0.3 -19 -0.9 -9.5 -1.3 -23.6 -2.2 -32 -1.9 -3.3 0.1 -8 0.1 -10.5 0 -27.2 -0.6 -56.7 -0.6 -57.6 0.1 -2.4 1.7 -19.4 3.1 -42.4 3.4 -13.5 0.2 -32.4 0.8 -42 1.3 -9.6 0.5 -27.2 1.1 -39 1.2 -11.8 0.1 -23.3 0.2 -25.5 0.3 -2.2 0 -7.5 -0.1 -11.8 -0.2 -6.9 -0.2 -8.1 -0.5 -10.1 -2.7 -1.3 -1.4 -3 -2.5 -3.8 -2.5 -0.8 0 -1.9 -0.5 -2.6 -1.2 -0.8 -0.8 -5.1 -1.3 -12.5 -1.3 -8.6 -0.1 -11.9 -0.5 -14.2 -1.8 -1.7 -0.9 -4.2 -2.1 -5.7 -2.7 -1.6 -0.5 -2.8 -1.6 -2.8 -2.4 0 -0.8 -0.9 -1.8 -2 -2.1 -1.1 -0.3 -2.3 -1.7 -2.6 -3 -0.3 -1.3 -1.2 -2.9 -2 -3.6 -0.8 -0.6 -1.4 -2.7 -1.4 -4.5 0 -3.3 2.1 -5.5 9.6 -10 3 -1.8 0.1 -4.4 -5 -4.4 -4.4 0 -11.3 -2.1 -15 -4.5 -1.9 -1.3 -2.4 -2.7 -3 -8.5 -0.8 -9.4 0.8 -16.8 4 -18 1.3 -0.5 2.4 -1.6 2.4 -2.5 0 -0.8 0.5 -1.5 1 -1.5 1.7 0 1.1 -2.5 -1 -4 -1.1 -0.8 -2 -2 -2 -2.7 0 -0.7 -0.7 -1.3 -1.5 -1.3 -2.6 0 -1.9 -6.7 1 -9.8 1.4 -1.5 2.5 -3.6 2.5 -4.7 0 -1.2 1.2 -3.5 2.7 -5.3 l2.8 -3.2 15.5 -0.7 c9.2 -0.5 15.5 -1.2 15.5 -1.8 0 -0.5 -2.1 -1.1 -4.7 -1.3 -2.9 -0.2 -4.8 -0.8 -4.8 -1.5 0 -0.7 -2.5 -3 -5.6 -5.2 -5.1 -3.6 -5.5 -4.2 -5.2 -7.5 l0.3 -3.5 7 0.1 c3.9 0.1 8.8 0.2 11 0.4 6.1 0.4 45.8 -1.8 56.5 -3.1 10.4 -1.3 25.3 -0.8 67.7 2.1 18.6 1.3 48.5 2 105.3 2.5 25.6 0.2 51.9 0.9 58.5 1.5 6.6 0.7 21.3 1.1 32.7 1 16.6 -0.1 21.9 0.2 26.3 1.5 4.7 1.3 7.2 1.4 15.3 0.6 5.3 -0.5 15.5 -1 22.6 -1 7.4 -0.1 13.4 -0.5 14.1 -1.1 2.2 -1.8 28 -1.7 41.8 0.1 3.7 0.5 11.8 1 18 1 12.4 0.2 17.6 1.2 21.1 4.3 3.3 3 16.1 9.6 18.5 9.6 1.1 0 2.3 0.5 2.6 1 0.3 0.6 1.4 1 2.4 1 4.7 0 6.9 8.1 3.1 11.5 -1.6 1.5 -2 3.1 -2 8.5 l0 6.6 -4.1 2.7 c-2.2 1.5 -4.5 2.7 -5 2.7 -0.5 0 -0.9 0.5 -0.9 1 0 0.6 2.2 1 4.8 1 3.5 0 5.4 0.5 6.5 1.8 2.1 2.3 2.2 7.6 0.2 9.6 -2.2 2.2 -1.8 3.4 1.3 3.8 2.4 0.3 2.7 0.7 3 4.8 0.3 5.2 -1.9 8.6 -7.5 11.4 -3.2 1.6 -3.3 1.8 -3.3 8.6 0 8.8 -2.4 13.8 -8.6 17.7 -2.4 1.5 -4.4 3.1 -4.4 3.5 0 0.4 -1.5 1.4 -3.4 2.2 -1.9 0.8 -5.2 3.3 -7.4 5.5 -2.2 2.3 -4.6 4.1 -5.3 4.1 -0.8 0 -2.8 0.9 -4.6 1.9 -3.7 2.3 -12.1 3.2 -20.8 2.2z"
       id="path5"
       style="fill:#ffffff;fill-opacity:1" />
    <path
       d="M1415 240 c0 -3.9 0.1 -4 3.5 -4 3.4 0 3.5 0.1 3.5 4 0 3.9 -0.1 4 -3.5 4 -3.4 0 -3.5 -0.1 -3.5 -4z"
       id="path6"
       style="fill:#ffffff;fill-opacity:1" />
    <path
       d="M1321 73.3 c-3.3 -0.6 -5 -2.9 -5 -6.7 0 -5.2 1.1 -6 7 -5.3 2.9 0.4 5.5 0.9 5.8 1.2 0.3 0.3 0.7 3 1 6 l0.4 5.5 -3.3 -0.1 c-1.9 -0.1 -4.5 -0.4 -5.9 -0.6z"
       id="path7"
       style="fill:#ffffff;fill-opacity:1" />
    <path
       d="M1317.5 29.6 c-1.9 -1.9 -2.5 -3.5 -2.5 -6.9 0 -3.8 0.3 -4.6 2.3 -5.1 7.4 -2 9.9 0.2 10.1 8.8 l0.1 5.1 -3.7 0.3 c-2.9 0.3 -4.3 -0.2 -6.3 -2.2z"
       id="path8"
       style="fill:#ffffff;fill-opacity:1" />
  </g>
</svg>
