<?xml version="1.0" encoding="UTF-8" standalone="no"?>
<svg
   version="1.0"
   width="1600px"
   height="1040px"
   viewBox="0 0 1600 1040"
   preserveAspectRatio="xMidYMid meet"
   id="svg14"
   sodipodi:docname="list.svg"
   inkscape:version="1.3 (0e150ed, 2023-07-21)"
   xmlns:inkscape="http://www.inkscape.org/namespaces/inkscape"
   xmlns:sodipodi="http://sodipodi.sourceforge.net/DTD/sodipodi-0.dtd"
   xmlns="http://www.w3.org/2000/svg"
   xmlns:svg="http://www.w3.org/2000/svg">
  <defs
     id="defs14" />
  <sodipodi:namedview
     id="namedview14"
     pagecolor="#ffffff"
     bordercolor="#000000"
     borderopacity="0.25"
     inkscape:showpageshadow="2"
     inkscape:pageopacity="0.0"
     inkscape:pagecheckerboard="0"
     inkscape:deskcolor="#d1d1d1"
     inkscape:zoom="0.15625"
     inkscape:cx="800"
     inkscape:cy="518.4"
     inkscape:window-width="1280"
     inkscape:window-height="449"
     inkscape:window-x="0"
     inkscape:window-y="33"
     inkscape:window-maximized="0"
     inkscape:current-layer="svg14" />
  <g
     fill="#000000"
     id="g2"
     style="fill:#ffffff">
    <path
       d="M3 1036.9 c0 -2.9 0.2 -3 3.8 -2.7 3.2 0.3 3.7 0.7 4 3.1 0.3 2.6 0.1 2.7 -3.7 2.7 -3.9 0 -4.1 -0.1 -4.1 -3.1z"
       id="path1"
       style="fill:#ffffff" />
    <path
       d="M201 764.6 c-4.7 -0.7 -10.5 -2.1 -13 -3.3 -2.5 -1.1 -8.7 -2.5 -13.9 -3.1 -5.1 -0.6 -9.8 -1.5 -10.5 -2 -3 -2.2 -9.1 -3.4 -14.1 -2.7 -8 1 -10.3 0 -11.6 -4.8 -1.2 -4.5 -3 -6.3 -10.5 -10.7 -8.3 -4.8 -8.1 -4.3 -11.4 -35.5 -2.2 -19.8 -4.2 -74.2 -4.4 -119.5 -0.2 -21.2 -0.7 -51.5 -1.3 -67.5 -1 -27.8 -1.5 -32.2 -5.8 -54 -0.8 -3.8 -1.7 -11.4 -2 -16.8 -0.4 -5.4 -1.3 -13.1 -2.1 -17 -3.1 -14.6 -5.4 -30.5 -6 -41.2 l-0.6 -11 2.8 -3.6 c1.6 -2 4.3 -4.7 6.1 -6 1.7 -1.3 3.7 -3.4 4.5 -4.5 0.7 -1.2 3 -4 5 -6.2 5.2 -5.7 13.1 -7.3 35.7 -7.1 9.4 0 18.1 -0.4 20.1 -1 5.2 -1.6 37.6 -1.4 51 0.4 33.9 4.5 73.2 7 91.5 6 10.8 -0.5 16.1 -1.2 32 -4.1 9.9 -1.7 39.9 -3.9 52 -3.8 17.8 0.2 33.9 3.4 42.7 8.4 1 0.6 2.4 1 3.2 1 2.3 0 15.7 7 20.5 10.6 7.3 5.6 12.6 12.7 19.8 26.5 1.8 3.5 5.3 16.9 6.4 24.4 0.5 3.3 1.3 6.9 1.8 8 0.5 1.1 1.2 7.2 1.6 13.5 0.3 6.3 1 15.6 1.4 20.5 0.5 5 1.5 16.2 2.2 24.9 l1.3 15.9 3.1 1.3 c2.5 1 14.4 1.1 59.5 0.5 50 -0.7 56.9 -0.9 59.7 -2.4 1.8 -0.9 4.1 -1.7 5.2 -1.7 1.2 0 2.3 -1 2.8 -2.5 1.1 -3.4 -0.5 -71.5 -1.7 -73.7 -0.6 -1 -1 -3.1 -1 -4.8 0 -2.7 -0.3 -3 -3.4 -3 -5.3 0 -5.8 -1.3 -5 -14.5 0.6 -9.8 1 -11.7 2.5 -12.6 1.5 -0.8 1.9 -2.2 1.9 -7.3 0 -5.7 0.2 -6.4 2.5 -7.6 1.4 -0.7 2.5 -1.7 2.5 -2 0 -0.4 1.4 -1.3 3 -2 2.6 -1.1 3 -1.8 3 -5 0 -5.2 2.2 -5.8 19.9 -5.9 7.9 0 15.8 -0.5 17.5 -1 3.5 -1 18.9 -2.5 25.1 -2.4 2.2 0.1 13.2 0.4 24.5 0.8 35.2 1.3 85.5 1.1 98 -0.3 6.3 -0.7 16.2 -1.7 22 -2.2 5.8 -0.6 13.7 -1.5 17.5 -2 22.1 -3.1 104 -7.8 113.8 -6.6 3.3 0.4 6.7 1.6 8.7 3.1 1.8 1.3 5.4 2.7 7.9 3.1 2.5 0.3 6.6 1.8 9.1 3.3 2.5 1.5 5.9 3.4 7.5 4.3 1.7 0.9 3.5 2.5 4 3.5 0.6 1 1.8 3.1 2.9 4.6 4.3 6.6 5.8 22.7 3.2 34.7 -1.5 6.5 -4.6 38.6 -5.3 55.3 -0.3 5.9 -0.1 9.3 0.7 10.3 1.5 1.7 6.6 1.8 20.5 0.4 5.5 -0.5 17.4 -1.5 26.5 -2.1 15.9 -1.1 24.7 -2.6 28.9 -4.8 1.1 -0.6 3.7 -1.1 5.8 -1.1 5.4 0 26.2 -4.9 29.8 -7 1.7 -1 5 -2.1 7.5 -2.5 2.4 -0.4 5.5 -1.5 6.7 -2.4 2.2 -1.6 2.2 -1.9 2.3 -25.8 0 -29.3 -1.4 -48.1 -4.1 -54.2 -1 -2.4 -1.9 -4.8 -1.9 -5.3 0 -0.5 -0.7 -1.6 -1.5 -2.4 -1 -1 -1.5 -3.4 -1.4 -6.7 0 -4.9 0.3 -5.4 4.1 -8.2 3.7 -2.7 4.2 -3.4 4.3 -7.5 0.3 -13.6 0.4 -13.9 3.3 -15.4 1.5 -0.8 5 -1.7 7.7 -2.1 2.8 -0.4 5.9 -1.4 7 -2.1 1.1 -0.8 3.8 -1.4 6 -1.4 2.2 0 6.7 -0.7 9.8 -1.5 3.2 -0.8 8.8 -1.5 12.5 -1.5 3.7 0 8.7 -0.5 11.2 -1.1 2.5 -0.7 8.8 -1.3 14 -1.5 17.5 -0.8 26.5 -1.6 27 -2.4 0.7 -1.1 10.8 -4 14.1 -4 1.5 0 3.1 -0.4 3.4 -1 0.9 -1.5 7.5 -1.2 8.1 0.4 0.6 1.6 5.4 0.9 6.1 -1 0.3 -0.9 2 -1.4 4.3 -1.4 2.2 0 4 -0.5 4.3 -1.3 0.4 -1.2 6.3 -2.4 20.7 -4.1 1.9 -0.2 5.5 -0.9 8 -1.5 4.1 -0.9 16 -2.4 39.4 -5.1 4.9 -0.5 9.4 -1.5 10.2 -2.1 0.7 -0.6 7.5 -1.5 15 -2 7.6 -0.5 14.3 -1.4 14.8 -1.8 2.2 -1.7 17.9 -2.2 22.1 -0.7 2.9 1 4.2 1.1 4.7 0.3 0.5 -0.8 2.5 -0.8 7.5 0.2 3.7 0.8 9.7 1.6 13.3 1.8 7.3 0.5 9 1.5 9 5 0 2.9 2.9 4.3 4.2 2 0.5 -1 1.5 -1.7 2.2 -1.7 0.8 0 1.9 -0.7 2.6 -1.5 1.3 -1.6 5.6 -1.9 10.9 -0.9 3.5 0.7 13 8.6 18.1 15.2 3.1 4 3.5 5.2 4.2 13 0.4 4.8 1.2 13.4 1.8 19.2 0.7 5.8 1.3 15.6 1.5 21.8 0.1 6.1 0.7 12.4 1.3 14 0.6 1.5 1.3 5 1.6 7.7 2.8 24.2 2.7 22.9 5.9 62 0.7 8.8 1.6 16.7 1.9 17.5 0.4 0.8 0.9 10.7 1.2 22 0.4 11.3 1.3 26.8 2.1 34.5 2.4 22.8 3.9 41.5 4 49 0 3.9 0.4 10 0.9 13.6 0.6 4.9 0.5 7.3 -0.5 9 -0.7 1.3 -2 5.1 -2.9 8.4 l-1.7 6 -4.9 0 c-3.7 0 -5.1 0.4 -5.6 1.7 -0.4 1 -1.4 1.8 -2.3 1.8 -1 0 -1.5 1 -1.5 2.9 0 1.6 -0.3 3.6 -0.6 4.5 -0.8 2.1 -6.5 2.1 -10.4 0.1 -1.7 -0.9 -3 -1.1 -3 -0.5 0 1.7 -8 1.2 -8.6 -0.5 -0.4 -0.9 -1.9 -1.5 -4 -1.5 -2.4 0 -3.7 -0.6 -4.5 -2.1 l-1.1 -2.1 -2.4 2.3 c-2.1 1.9 -3.6 2.3 -12.6 2.5 -10.2 0.4 -22.1 2.2 -30.8 4.9 -2.5 0.7 -6.6 1.6 -9.2 2 -2.6 0.3 -5 1 -5.2 1.4 -0.3 0.4 -3.1 1.3 -6.3 2 -3.2 0.7 -8.3 2 -11.3 2.8 -3 0.9 -7.3 1.7 -9.5 2 -2.2 0.2 -8.7 1 -14.5 1.8 -5.8 0.9 -11.6 1.5 -13 1.4 -1.4 0 -17.1 0.4 -35 1 -52.2 1.8 -73.8 1.8 -89 0 -9.1 -1.1 -13.9 -1.3 -14.8 -0.6 -1.6 1.3 -13.8 0.3 -15.7 -1.3 -0.8 -0.6 -1.9 -2.7 -2.5 -4.5 -1.2 -3.7 -0.6 -3.5 -19.7 -4.8 -7.1 -0.4 -10.3 -1.7 -10.3 -4.2 0 -0.6 -1.7 -2.7 -3.9 -4.7 -5.4 -4.8 -6.2 -9.4 -6 -34.7 0.1 -25.4 -1 -44.1 -2.6 -45.8 -1 -1 -2.7 -0.8 -8.4 0.7 -3.9 1.1 -9 2 -11.3 2 -2.4 0 -5.9 0.5 -7.8 1.1 -1.9 0.5 -8.2 1.4 -14 1.8 -24.1 2 -62.9 5.2 -67.7 5.7 -6.2 0.6 -6.7 1.5 -5.3 9.7 0.5 3.4 1.4 9.8 2 14.2 1 7.6 1.5 10.8 5.6 30.5 2 9.8 2.9 23.2 1.9 30.9 -0.5 4.1 -1.4 6 -3.4 8 -1.6 1.4 -3.3 4.1 -3.9 5.9 -0.6 1.9 -2.3 4.7 -3.7 6.4 -1.4 1.6 -2.5 4 -2.5 5.3 0 3 -1.6 4.1 -7 5 -7 1.2 -11.9 4.9 -12 9.2 0 1.6 -0.8 2.4 -2.7 2.9 -9 2 -8.8 1.9 -9.1 5.2 -0.4 3.8 -2.3 4.5 -12.7 4.6 l-7 0.1 -0.5 -4 c-0.3 -2.2 -0.9 -4.5 -1.3 -5.2 -1.1 -1.7 -8.1 -3.6 -8.5 -2.3 -0.2 0.6 -1.4 1 -2.6 1 -3.8 0 -7.6 3.7 -7.6 7.3 -0.1 3.4 -2.9 7.4 -7.1 10.1 -3 1.9 -26 8 -37.9 10.1 -7.9 1.4 -15.4 2.4 -36.5 5 -10.9 1.4 -56.6 3.7 -68.5 3.5 -4.9 -0.1 -20.8 1.8 -25 2.9 -3.6 1 -12 2.1 -36.5 4.7 -7.7 0.8 -17 1.8 -20.6 2.2 -3.6 0.4 -7.3 1.3 -8.2 2 -1.2 1.1 -4 1.3 -10.9 0.9 -12.6 -0.7 -18.8 -2 -20.8 -4.4 -1.4 -1.8 -2.5 -2 -9.1 -1.5 -7 0.4 -7.5 0.3 -8.7 -1.9 -1.2 -2.2 -2 -2.4 -8 -2.4 -3.8 -0.1 -7.9 -0.7 -9.6 -1.5 -4.9 -2.5 -8.5 -14.6 -10.2 -34.5 -0.3 -2.7 -1 -20.7 -1.5 -40 -0.6 -19.2 -1.2 -37.5 -1.4 -40.5 -0.2 -3 -0.4 -7.6 -0.4 -10.1 -0.1 -2.5 -0.7 -5.3 -1.4 -6.2 -2 -2.9 -11 -3.7 -20.2 -2 -4.4 0.8 -9.5 1.2 -11.5 1 -1.9 -0.3 -10 -0.1 -18 0.4 -47.7 3 -67 3.9 -69.3 3.4 -2.1 -0.6 -3.3 0 -6.3 2.9 l-3.6 3.5 0 14.3 c0.1 7.9 0.6 23 1.2 33.7 1.1 18.5 0.9 24.3 -1 28 -3.6 7.3 -3.7 6.6 1.5 12 2.7 2.8 5.5 6.1 6.2 7.3 1.7 3.2 1.6 8 -0.3 12.7 -1.4 3.7 -1.4 4.2 0 6.3 0.9 1.2 1.6 3.9 1.6 5.8 0 3.3 -0.6 4.1 -5.2 7.4 -2.9 2 -7.2 4.9 -9.5 6.3 -2.3 1.5 -4.4 3.4 -4.7 4.2 -1.7 4.6 -10.8 14.7 -15.1 16.6 -1.6 0.7 -4.8 1.8 -7 2.3 -7.7 2.1 -20 6.3 -25 8.7 -2.7 1.3 -6.1 2.6 -7.5 2.9 -2.9 0.7 -28.3 3.5 -42 4.6 -5.2 0.4 -12.9 1.3 -17 1.9 -9.4 1.4 -39.8 3.2 -59.5 3.6 -8.2 0.1 -18.8 0.9 -23.5 1.8 -4.7 0.8 -14.8 2.1 -22.5 2.7 -7.7 0.6 -17.6 1.6 -22 2.1 -10.3 1.2 -32.7 0.9 -43.5 -0.5z m31.5 -78.1 c3.9 -0.3 11.5 -1.2 17 -2.1 18.4 -2.7 40.8 -4.6 62 -5.4 27.1 -0.9 50.8 -2.7 61.5 -4.7 4.7 -0.8 13.7 -1.9 20 -2.4 15.7 -1.2 17.1 -1.5 20.9 -4.7 l3.2 -2.7 -1 -18.5 c-0.6 -10.2 -1.8 -25 -2.6 -33 -1.5 -15.7 -3.7 -59.3 -4.1 -81 -0.6 -32.9 -1.2 -53.6 -1.7 -55 -0.6 -1.6 -1 -4.2 -2.7 -15.5 -0.6 -3.8 -1.5 -7.9 -1.9 -9 -1.4 -3.2 -4.1 -12.6 -4.1 -14.1 0 -0.8 -1.1 -3.2 -2.5 -5.4 -1.4 -2.2 -2.5 -4.3 -2.5 -4.7 0 -0.5 -1.4 -2.3 -3.2 -4.2 l-3.2 -3.4 -7.6 0.6 c-4.2 0.3 -8.8 1.1 -10.2 1.6 -1.5 0.5 -7.5 1.5 -13.5 2.1 -5.9 0.6 -13.9 1.5 -17.6 2.1 -3.7 0.6 -10 1.2 -14 1.4 -4 0.2 -7.9 0.6 -8.7 0.9 -0.8 0.2 -10.9 0.7 -22.5 1 -16.1 0.5 -22.3 0.3 -26.7 -0.7 -3.5 -0.9 -8.6 -1.2 -13.2 -0.9 -5.6 0.3 -8 0.1 -9.2 -0.9 -2.6 -2.1 -15 -3.8 -35.8 -4.9 -17.3 -0.8 -19.1 -0.8 -20.2 0.8 -2.6 3.4 -1.6 20 3.6 58.7 1.6 11.6 3.2 24.4 3.5 28.5 0.4 4.1 1.3 10 2.1 13 0.8 3.3 1.4 10.4 1.4 17.9 0 6.8 0.4 13.8 0.9 15.5 2.3 7.5 3.4 13.9 4.1 25.1 1.6 23.1 2.8 31.9 9.6 67 0.9 4.4 1.8 14.3 2 22 0.3 7.7 0.7 14.6 1 15.4 0.3 1 1.6 1.2 4.7 0.8 2.3 -0.3 7.4 -0.9 11.2 -1.2z m497.8 -53.4 c2.3 -0.5 8.3 -1.5 13.2 -2.1 5 -0.6 13.5 -1.8 19 -2.5 5.5 -0.8 12.5 -1.4 15.5 -1.4 4.6 0.1 20.5 -0.8 45.5 -2.5 8.4 -0.6 23.9 -2.5 39 -4.7 6.4 -0.9 15.2 -2.9 21.5 -4.9 1.4 -0.4 4.5 -1.3 7 -2 6.6 -1.8 9.2 -3.2 11.8 -6.3 3.9 -4.4 14.2 -9.7 19.2 -9.7 2.4 0 5.7 -0.4 7.4 -0.9 1.7 -0.5 4.9 -1.3 7.1 -1.8 3.1 -0.6 4 -1.3 3.9 -2.8 -0.5 -8.2 -4.7 -41.2 -5.9 -46 -0.8 -3.3 -1.9 -9.6 -2.4 -14 -0.5 -4.4 -2.1 -14.3 -3.6 -22 -2.3 -12.7 -2.7 -17.1 -3.2 -46.7 -0.5 -24.8 -0.3 -34.1 0.7 -38.8 1.2 -5.6 1.1 -6.2 -0.6 -8.1 -1.8 -2.1 -2.4 -2.1 -17.9 -1.5 -8.8 0.4 -18 1.2 -20.5 1.8 -2.5 0.6 -10.5 1.2 -17.9 1.3 -7.4 0.2 -15.5 0.6 -18 0.9 -10.2 1.4 -63.9 3 -83.1 2.6 -11.3 -0.3 -27.2 -0.5 -35.4 -0.5 l-15 0 -0.1 6 c-0.5 21 -1.8 38.9 -3.1 44.2 -1.5 5.7 -1.5 6.6 0.1 11 2 5.9 3.2 33 4.3 102 0.7 45.6 0.8 47.3 2.7 48.7 2.4 1.8 3.3 1.9 8.8 0.7z m525.4 -80.4 c0.5 -0.3 9.4 -0.8 19.8 -1.1 30.9 -0.9 56.7 -2.6 61.5 -4.1 2.5 -0.8 7.4 -1.9 11 -2.6 3.6 -0.6 10.8 -2.2 16 -3.4 5.2 -1.3 12 -2.9 15 -3.6 3 -0.6 9.8 -2.4 15 -4 5.2 -1.5 10.7 -3.1 12.3 -3.5 4 -0.9 4.7 -3 3.6 -11.5 -0.5 -4 -1.2 -22.7 -1.4 -41.4 -0.5 -42 -2.1 -82.2 -3.4 -89.5 -1 -5.3 -3.1 -26.2 -3.1 -30.7 0 -2.1 -0.5 -2.3 -4.6 -2.3 -2.5 0 -5.3 0.4 -6.3 0.9 -1 0.6 -7.8 1.5 -15.2 2.2 -7.4 0.6 -14.6 1.8 -16.1 2.5 -1.5 0.8 -4.4 1.4 -6.5 1.4 -6 0 -44.3 6.7 -52.5 9.2 -2 0.6 -5.7 0.8 -8.3 0.6 -2.5 -0.3 -6.4 -0.2 -8.6 0.3 -2.2 0.5 -9 1.4 -15.2 1.9 -26.7 2.3 -35.3 3.2 -36.2 4.1 -0.5 0.5 -2.6 0.9 -4.7 0.9 -2.2 0 -5.3 0.7 -6.9 1.6 l-3.1 1.5 0.5 52.7 c0.5 50.7 1.4 69.7 3.6 77.2 0.6 1.9 1.1 6 1.1 9 0 3 0.5 9.1 1.1 13.5 0.6 4.4 1.4 10.2 1.7 13 0.7 4.5 1 5 3.7 5.6 3.4 0.7 24.9 0.4 26.2 -0.4z m-629.7 -150.9 c0 -1 -0.7 -1.8 -1.5 -1.8 -1.1 0 -1.5 1.1 -1.5 3.8 0.1 3.5 0.2 3.6 1.5 1.8 0.8 -1.1 1.5 -2.8 1.5 -3.8z"
       id="path2"
       style="fill:#ffffff" />
  </g>
</svg>
