<?xml version="1.0" encoding="UTF-8" standalone="no"?>
<svg
   version="1.0"
   width="1600px"
   height="1120px"
   viewBox="0 0 1600 1120"
   preserveAspectRatio="xMidYMid meet"
   id="svg56"
   sodipodi:docname="operators.svg"
   inkscape:version="1.3 (0e150ed, 2023-07-21)"
   xmlns:inkscape="http://www.inkscape.org/namespaces/inkscape"
   xmlns:sodipodi="http://sodipodi.sourceforge.net/DTD/sodipodi-0.dtd"
   xmlns="http://www.w3.org/2000/svg"
   xmlns:svg="http://www.w3.org/2000/svg">
  <defs
     id="defs56" />
  <sodipodi:namedview
     id="namedview56"
     pagecolor="#ffffff"
     bordercolor="#000000"
     borderopacity="0.25"
     inkscape:showpageshadow="2"
     inkscape:pageopacity="0.0"
     inkscape:pagecheckerboard="0"
     inkscape:deskcolor="#d1d1d1"
     inkscape:zoom="0.15625"
     inkscape:cx="800"
     inkscape:cy="556.8"
     inkscape:window-width="1280"
     inkscape:window-height="449"
     inkscape:window-x="0"
     inkscape:window-y="33"
     inkscape:window-maximized="0"
     inkscape:current-layer="svg56" />
  <g
     fill="#000000"
     id="g12"
     style="fill:#ffffff">
    <path
       d="M54 1083 l0 -4 4 0 4 0 0 4 0 4 -4 0 -4 0 0 -4z"
       id="path1"
       style="fill:#ffffff" />
    <path
       d="M881 1050 c-3.6 -0.4 -8.4 -1.4 -10.6 -2.1 -3.4 -1 -6.3 -1 -15.6 0.1 -12.4 1.4 -18.2 0.9 -19.2 -1.7 -0.6 -1.4 -2 -1.5 -11.7 -0.9 l-11.1 0.7 -3.4 -3.7 c-1.9 -2 -3.4 -4 -3.4 -4.5 0 -2 -5 -3.9 -11.7 -4.5 -8.9 -0.8 -11.3 -2.7 -11.3 -8.5 0 -3.3 -0.6 -4.7 -3.5 -7.6 -3.1 -3.1 -3.5 -4.2 -4.5 -12.1 -1.4 -12.1 -2.6 -18.5 -4.9 -27.2 -2.2 -8.2 -4 -29.4 -3.6 -40.5 0.5 -10.1 3.1 -31 4.8 -37.7 1.5 -6.2 3.1 -8.8 5.3 -8.8 0.9 0 1.4 -1.1 1.4 -2.9 0 -1.9 0.8 -3.4 2.4 -4.4 1.7 -1.1 2.6 -3.2 3.5 -7.5 1.1 -5.9 1.9 -6.8 7.5 -8.6 1.5 -0.5 1.7 -1.2 1.1 -3.9 -1.9 -8.8 -1.7 -13.6 0.5 -17.2 1.7 -2.7 2.8 -3.5 5.1 -3.5 2.7 0 2.9 -0.3 2.9 -3.5 0 -3.3 0.2 -3.5 3.3 -3.5 1.8 0 3.8 0.5 4.5 1.2 0.7 0.7 3.1 1.1 5.3 0.9 2.7 -0.2 4.5 0.2 5 1.1 0.6 0.8 0.9 0.1 0.9 -2.3 0 -1.9 0.6 -4.2 1.3 -5.1 1.3 -1.7 8.9 -3.8 13.8 -3.8 1.9 0 4.6 -1.1 6.7 -2.7 2.7 -2 5.1 -2.8 10.1 -3.2 l6.6 -0.6 0.3 -3.7 c0.2 -2.9 0.8 -3.8 2.2 -3.8 1 0 2.1 -0.4 2.4 -0.9 0.4 -0.5 4.1 -1.2 8.4 -1.6 4.2 -0.4 10 -1.3 12.7 -2 4.3 -1.2 27.5 -1.8 53 -1.5 1.7 0 9.3 -0.6 17 -1.4 16.1 -1.6 81.5 -2 101.5 -0.6 24.4 1.8 42.7 3.9 46.1 5.3 1.9 0.7 7 2.2 11.4 3.1 4.4 0.9 9 1.9 10.2 2.2 1.3 0.2 3.5 2.2 4.9 4.4 2.1 3.1 3.3 4 5.5 4 3.1 0 5.9 3.1 5.9 6.7 0 1.2 1.2 3 2.9 4.2 2.7 2 3.5 3.3 6 11.2 1.4 4.4 1.4 11.2 0.1 12.5 -0.7 0.7 0.1 2.5 2.5 5.5 1.9 2.4 3.5 5.4 3.5 6.7 0 1.5 0.6 2.2 1.9 2.2 2.7 0 3.9 1.9 4.7 7.7 0.5 4.3 1 5.2 2.8 5.5 1.6 0.2 2.2 1.1 2.4 4.1 0.3 3.3 0.1 3.7 -2 3.8 -1.9 0.1 -1.7 0.3 0.7 0.8 3 0.6 3 0.6 3.3 8.4 l0.3 7.8 -3.8 -0.3 c-3.8 -0.3 -3.8 -0.3 -4.7 -6 -0.9 -5.4 -1.1 -5.7 -4 -6 l-3.1 -0.3 -0.9 -9.7 c-0.6 -6.6 -1.3 -9.8 -2.1 -9.8 -2.7 0 -3.3 7.5 -0.8 10.3 1.4 1.5 1.8 3.9 1.9 12 0.1 12.5 3.1 31.7 7.8 50.2 3.7 14.8 6.1 22.2 7.8 24.2 0.6 0.7 0.7 4.4 0.4 9 -0.8 11.3 -0.8 11.3 0 17 0.3 2.9 0.4 6.3 0 7.7 -0.5 2.2 -1.2 2.6 -4.2 2.6 -1.9 0 -4.4 -0.4 -5.4 -1 -1.3 -0.7 -2.1 -0.6 -3 0.5 -1.9 2.2 -8.3 1.9 -10.5 -0.5 -2.9 -3.2 -5.3 -2.5 -6.4 1.8 -0.6 2 -1.1 4.2 -1.1 4.8 0 1.7 -2.5 2.4 -8.5 2.4 -7.2 0 -11.5 1 -11.5 2.6 0 1 -1.3 1.4 -4 1.4 -3.9 0 -4 0.1 -4 3.4 0 1.9 -0.5 3.8 -1.2 4.2 -0.6 0.4 -13.1 1.1 -27.7 1.5 -24.9 0.7 -30.5 1.3 -48.1 4.9 -3 0.6 -10.7 1.7 -17 2.4 -6.3 0.6 -12.4 1.7 -13.5 2.3 -1.1 0.6 -8.7 1.4 -17 1.8 -8.2 0.4 -17.5 1.3 -20.6 2.1 -3.1 0.8 -7.6 1.4 -10 1.4 -4.8 0 -39.3 0.8 -55.9 1.3 -5.8 0.2 -13.4 0.1 -17 -0.3z m42 -89.5 c36.3 -2 61 -3.8 64 -4.5 1.9 -0.5 7.3 -1.4 12 -2 4.7 -0.6 10.2 -1.5 12.2 -2.1 5.5 -1.4 25.8 -3.7 39.8 -4.5 6.9 -0.4 13.1 -1.1 13.8 -1.7 1.6 -1.3 0.5 -39.8 -1.2 -40.9 -0.6 -0.4 -2.7 -0.8 -4.6 -0.8 -1.9 0 -5.1 -0.4 -7 -1 -5.8 -1.5 -78.9 -1.8 -104 -0.4 -14.7 0.8 -24.9 1 -29.5 0.4 -3.8 -0.5 -17 -0.7 -29.2 -0.3 l-22.2 0.6 -1 3.1 c-3.2 10.9 -4.7 44 -2.3 50.8 l1.3 3.7 8.2 0.4 c8.6 0.4 35.3 0 49.7 -0.8z"
       id="path2"
       style="fill:#ffffff" />
    <path
       d="M345 965.5 c0 -3.3 0.2 -3.5 3.5 -3.5 3.3 0 3.5 0.2 3.5 3.5 0 3.3 -0.2 3.5 -3.5 3.5 -3.3 0 -3.5 -0.2 -3.5 -3.5z"
       id="path3"
       style="fill:#ffffff" />
    <path
       d="M1162 918.5 l0 -5.5 4 0 c4 0 4 0 4 3.9 0 5.9 -0.8 7.1 -4.6 7.1 l-3.4 0 0 -5.5z"
       id="path4"
       style="fill:#ffffff" />
    <path
       d="M307.6 910.5 c-1.2 -3.3 -0.7 -8.5 0.9 -8.5 1.2 0 1.3 -0.4 0.6 -1.7 -0.7 -1.4 -1.9 -1.7 -6 -1.5 -3.2 0.3 -5.1 0.9 -5.1 1.6 0 0.7 -0.9 2.1 -2 3.1 -1.6 1.5 -3 1.7 -7.6 1.1 -3 -0.3 -7.1 -1.3 -9.1 -2.1 -1.9 -0.8 -4.6 -1.5 -5.9 -1.5 -2.4 0 -5.4 -1.6 -11.2 -5.9 -2.6 -2 -3.2 -3.2 -3.2 -6.3 0 -2.2 0.5 -3.8 1.2 -3.8 0.7 0 0.5 -0.7 -0.4 -1.7 -3.6 -4.1 -7.8 -18.4 -7.8 -26.8 0 -5.5 -0.6 -7.2 -5.4 -14.3 -2.5 -3.6 -3 -5.5 -3.2 -11.5 -0.4 -10.5 -1.4 -21.5 -2.5 -27.2 -0.6 -2.7 -1.4 -8.4 -1.9 -12.5 -1.6 -13.4 -4.7 -26.3 -6.8 -28 -1.6 -1.3 -3.4 -1.4 -10.8 -0.7 -4.9 0.4 -10.3 1.2 -12 1.7 -4 1.3 -7.6 1.3 -27.6 -0.2 -12.6 -0.9 -16.8 -1.5 -16.8 -2.5 0 -1 -2 -1.3 -7.4 -1.3 -4.1 0 -7.8 -0.4 -8.1 -1 -0.3 -0.5 -1.7 -1 -3 -1 -1.3 0 -3 -0.7 -3.9 -1.5 -0.8 -0.8 -2.6 -1.5 -4 -1.5 -3.3 0 -6.6 -3.3 -6.6 -6.5 0 -1.6 -0.6 -2.5 -1.5 -2.5 -0.8 0 -3.5 -0.9 -6 -2.1 -3.6 -1.7 -5.4 -2 -9.6 -1.4 -3.9 0.6 -6.1 0.3 -9.2 -1.1 -2.3 -1 -4.4 -2.1 -4.7 -2.5 -1.3 -1.5 -5.2 -2.9 -8.5 -2.9 -2.7 0 -4.3 -0.7 -6.3 -2.8 -4.5 -4.8 -9.2 -11 -9.2 -12.1 0 -0.6 -1.2 -1.8 -2.8 -2.8 -3.5 -2.3 -4.2 -3.3 -4.2 -6.3 0 -3.6 -3.5 -8.8 -6.2 -9.2 -1.7 -0.2 -2.4 -1.1 -2.9 -3.8 -0.4 -1.9 -1.3 -5.1 -2.1 -7 -0.9 -1.9 -2.1 -6.6 -2.8 -10.5 -0.7 -3.8 -1.9 -8.7 -2.6 -10.7 -3.8 -10.4 -4.8 -32.5 -2.6 -58.8 0.7 -8.5 1.7 -20.8 2.2 -27.3 0.9 -11.7 0.9 -11.9 5.4 -19.1 2.5 -4.1 6.5 -9 8.8 -11 5.6 -4.7 6.4 -5.5 9.4 -9.3 1.4 -1.8 3.4 -3.3 4.5 -3.3 1.6 0 1.9 -0.8 1.9 -5.5 0 -5.1 0.2 -5.6 2.8 -6.6 6.3 -2.5 21.3 -5.8 29 -6.5 7.4 -0.6 8.5 -0.9 9.2 -2.9 1.1 -2.8 7.6 -4.2 26.5 -5.5 7.7 -0.5 17.2 -1.6 21 -2.4 14.5 -3.1 42.6 -6.5 60.3 -7.4 10 -0.5 18.7 -1.3 19.2 -1.8 0.6 -0.6 1.2 -17 1.4 -41.5 0.3 -34.6 0.6 -41.3 2.1 -46.4 0.9 -3.3 2.1 -8.7 2.5 -12 2.5 -18.1 8.1 -37.7 11.8 -41.9 1 -1.2 3.1 -4.3 4.6 -6.9 2.7 -4.7 7.6 -8.7 10.6 -8.7 0.9 0 3.1 -1.3 5 -2.9 3.1 -2.5 13.2 -7.6 38 -19.4 20.4 -9.6 25.9 -10.3 77.3 -9 31.4 0.8 41.1 1.4 42.3 2.4 1.1 0.9 3.9 1.3 7.8 1.2 3.3 -0.1 8 0.5 10.4 1.3 2.3 0.8 5.6 1.4 7.2 1.4 3 0 7 3.9 7 6.7 0 0.8 1.6 3.3 3.5 5.6 2.3 2.7 3.5 5.1 3.5 7 0 2.2 1.1 4 4 6.8 3.8 3.6 4 4.1 4 9.8 0 5.8 1.4 13.9 3 17.1 0.4 0.8 1.2 3.8 1.9 6.7 0.7 2.9 2.4 6.4 3.7 7.8 1.3 1.4 2.4 3.7 2.4 5.1 0 1.4 0.6 3.5 1.4 4.7 0.8 1.2 2.3 5.6 3.4 9.7 1.7 6.3 2 9.8 1.7 22.6 -0.2 8.3 -0.9 17.1 -1.4 19.5 -0.6 2.4 -1.1 7.2 -1.1 10.7 0 3.5 -0.5 7.2 -1.1 8.3 -0.5 1.1 -1.5 9.3 -2.1 18.1 -0.9 15.1 -0.9 16.3 0.8 17.5 1 0.7 2.5 1.1 3.3 0.8 4 -1.2 21.4 -2.6 39.1 -3 10.7 -0.3 21.5 -0.8 24 -1 6.3 -0.7 35.9 2.4 39.4 4.1 1.6 0.8 4.5 1.4 6.5 1.4 5.1 0 15.2 2.7 17.3 4.7 1 0.9 1.8 2.3 1.8 3.2 0 3.3 3 6.1 6.4 6.1 4.4 0 5.6 1.6 5.6 7.2 0 3.8 -0.3 4.8 -1.7 4.8 -1.3 0 -1 0.7 1.4 3.3 1.7 1.7 3.3 4.1 3.5 5.2 0.2 1.3 1.2 2.1 3 2.3 3 0.4 5.8 3.5 5.8 6.4 0 1 1.4 3.7 3 6 2.1 2.8 3 5.3 3 7.8 0 2.2 0.7 4.3 1.6 5.1 1.2 1 1.5 2.7 1.1 8.3 -0.3 3.9 -1 20.2 -1.6 36.1 -1.2 31.7 -2.3 45.3 -4.3 53 -1.2 4.6 -1.6 5 -4.5 5.3 -2.5 0.2 -3.3 0.8 -3.3 2.2 0 1 -0.4 2.2 -1 2.5 -0.5 0.3 -1 2.8 -1 5.4 0 5 -1.8 10.1 -3.6 10.1 -1.2 0 -4.4 10.5 -4.4 14.4 0 3.9 -4.7 7.6 -9.5 7.6 -3.6 0 -4.2 -0.3 -5.4 -3.2 l-1.2 -3.3 -1 2.5 c-0.5 1.4 -1.7 3 -2.5 3.7 -0.9 0.6 -2.2 2.9 -2.9 5 -1.1 3.3 -1.7 3.8 -4.9 4.1 -3.5 0.3 -3.6 0.2 -3.6 -3.1 0 -4.5 -1.6 -4.9 -14 -3.6 -5.2 0.6 -12 1.3 -15 1.6 -3.9 0.3 -6.2 1.2 -8 2.8 -1.4 1.3 -4.3 2.7 -6.5 3.1 -2.2 0.3 -4.5 1.1 -5.2 1.6 -0.6 0.5 -3.8 1.2 -7 1.4 -3.2 0.3 -6.7 0.9 -7.8 1.4 -1.1 0.5 -8.3 1.1 -16 1.5 -7.7 0.4 -17.4 1.1 -21.5 1.7 -4.1 0.6 -12.4 1.1 -18.3 1.2 -12.8 0.3 -14.4 1.2 -12.6 6.6 0.9 2.6 0.9 7.5 0 21.4 -0.7 10 -1.6 19.9 -2.1 22.1 -1.3 6 -3.6 14.4 -5.3 19.5 -1.9 5.5 -3.7 13.4 -3.7 16 0 1.1 -0.4 2 -0.9 2 -1.2 0 -1.8 2.9 -3 13.5 -0.6 4.8 -1.5 9.3 -2.1 9.9 -0.5 0.5 -1 1.9 -1 3.1 0 1.1 -1.6 4.5 -3.5 7.5 -2.3 3.7 -3.5 6.7 -3.5 9.3 0 3.1 -0.3 3.7 -2.1 3.7 -1.2 0 -4.6 2.6 -8.4 6.5 -3.4 3.6 -6.8 6.5 -7.4 6.5 -2.5 0 -9.1 4.6 -9.1 6.3 0 0.9 -0.7 1.7 -1.5 1.7 -0.8 0 -1.5 0.4 -1.5 1 0 0.5 -1.1 1.2 -2.4 1.6 -1.4 0.3 -2.7 1.2 -3 2 -0.4 0.9 -2.2 1.4 -5.6 1.4 -4.9 0 -5 -0.1 -5 -3 0 -3.5 -2.2 -4 -5.2 -1.3 -2.3 2 -17.2 4 -38.8 5.2 -8 0.5 -14.6 0.9 -14.7 1 -0.1 0 -0.3 2.2 -0.5 4.9 l-0.3 4.7 -11.8 0.3 c-11.3 0.3 -11.8 0.2 -12.6 -1.9 l-0.8 -2.3 -0.5 2.2 c-0.5 1.9 -1.3 2.2 -5.1 2.2 -4.2 0 -4.6 0.2 -4.9 2.8 -0.3 2.5 -0.7 2.7 -4.9 3 -3.6 0.2 -4.8 -0.1 -5.3 -1.3z m55.9 -91.6 c11.2 -2 12.5 -3.6 16 -17.9 1.7 -6.8 2.9 -10.6 5.5 -16.5 2.5 -6 4 -10.9 4 -13.5 0 -1.6 0.4 -4.9 1 -7.2 0.5 -2.4 1.4 -8.1 1.9 -12.8 1.4 -12.1 4.6 -26.4 7 -31.4 1.2 -2.3 2.1 -5.7 2.1 -7.6 0 -2.6 0.8 -4 3.3 -6.1 2.8 -2.4 3.1 -3 2 -4.8 -1.7 -2.7 -1.6 -14.9 0 -18.1 0.8 -1.5 2.3 -2.6 3.9 -2.8 5.2 -0.6 8.6 -7.6 10.4 -21.4 0.8 -5.6 3 -7.8 8 -7.8 1.7 0 4.4 -1 5.9 -2.1 3.1 -2.5 13.1 -3.8 30 -4 28.8 -0.4 34.8 -0.6 44 -1.8 5.5 -0.7 20.8 -1.5 34 -1.9 l24 -0.7 0.8 -6 c0.5 -4.1 0.4 -6.8 -0.5 -8.5 -0.7 -1.5 -1.2 -7.8 -1.3 -15.5 -0.2 -13.4 -1.4 -20.4 -4 -22.5 -1.9 -1.6 -14.3 -1.6 -30.5 0 -6.9 0.7 -19.7 1.4 -28.5 1.6 -8.8 0.2 -20.4 0.6 -25.7 1 l-9.8 0.7 0 -3.5 c0 -3.8 -2.4 -5.5 -5.1 -3.7 -4.1 2.6 -12.9 0.1 -12.9 -3.6 0 -1.1 -1.1 -1.3 -4.8 -0.8 -4.1 0.5 -5.5 0.1 -9.1 -2.1 -2.3 -1.5 -4.4 -3.3 -4.7 -4.1 -0.5 -1.1 -1.7 -1.3 -5 -0.8 -3.5 0.5 -4.9 0.2 -6.5 -1.3 -1.9 -1.7 -2.1 -2.6 -1.5 -8.4 0.4 -4.4 0 -8.5 -1 -12.5 -0.8 -3.3 -1.9 -7.7 -2.3 -9.8 -0.5 -2.1 -1.6 -4.6 -2.6 -5.7 -1.3 -1.4 -1.6 -2.9 -1.2 -6.2 0.4 -2.4 0.8 -11.7 1.1 -20.8 0.2 -9.1 1.1 -20.8 1.9 -26 0.8 -5.2 2.1 -15.5 2.8 -22.7 1.5 -16 0.2 -33.7 -3.8 -50.4 l-2.5 -10.6 -12.5 -0.7 c-8.6 -0.5 -13.5 -0.3 -16.1 0.5 -3.6 1.2 -10.6 3.6 -16.8 5.9 -4.4 1.6 -9.4 6.7 -9.4 9.7 0 1.3 -0.5 3.3 -1.1 4.4 -0.6 1.1 -1.4 4.1 -1.9 6.7 -0.4 2.6 -1.3 7.3 -1.9 10.4 -0.5 3.2 -1.1 14 -1.1 24 -0.3 32.8 -1.9 64.6 -4 76.3 -1.1 6.1 -2.4 14.3 -3.1 18.4 -0.6 4 -1.9 8.1 -2.8 9 -1.9 2 -6.3 9.7 -9.2 15.9 -1.6 3.3 -3.7 5.4 -9.5 9.2 -11.5 7.4 -17.3 8 -53.9 5.4 -4.4 -0.3 -17.7 0.1 -29.5 1 -11.8 0.8 -26 1.8 -31.5 2.2 -5.5 0.3 -10.5 1 -11 1.4 -1 0.8 -4.7 1.4 -23 4 -3.3 0.4 -11.8 1.1 -18.8 1.5 -15 0.8 -14.8 0.7 -16.5 12.5 -1.5 10.5 -2.6 29.7 -1.6 28.7 0.5 -0.4 0.7 -2.6 0.5 -4.8 -0.2 -3.2 0.3 -4.6 2.8 -7.5 1.7 -1.9 3.1 -4.1 3.1 -4.9 0 -2.1 6.6 -2 7.4 0.1 0.3 0.9 0.6 3.3 0.6 5.4 0 2.9 0.4 3.9 1.9 4.3 1.8 0.4 1.9 1.3 1.6 11.3 -0.4 10.9 -1.6 21.6 -2.8 24.4 -0.5 1.1 0.5 2 3.4 3.4 3.5 1.6 5.6 1.8 15.7 1.3 6.4 -0.4 15.8 -1.3 20.7 -2.2 13.9 -2.4 24.7 -3.4 41 -4 8.3 -0.3 15.9 -1 17 -1.5 6.3 -3 34.1 -5.3 47.9 -4 5.4 0.6 12.3 1 15.3 1 6.1 0 10.5 1.9 13.9 6 1.3 1.5 3.6 3.1 5.1 3.5 4 1 5.3 2.4 5.3 5.6 0 1.5 0.5 3.1 1.1 3.5 0.8 0.4 1 2.9 0.6 7 -0.3 4.6 -0.1 6.7 0.9 7.5 0.7 0.6 2.5 3.2 3.9 5.7 2.4 4.3 2.6 5.5 2.2 13.2 -0.4 7.7 -2.8 19.3 -5.5 26.1 -0.6 1.5 -1.3 7.9 -1.6 14.3 -0.5 9.1 -0.2 12.5 0.9 15.3 0.8 1.9 1.5 5 1.5 6.7 0 1.7 1.1 5.5 2.5 8.4 1.4 3 2.5 6.3 2.5 7.3 0 1.1 1.1 4.2 2.5 7.1 1.4 2.8 2.5 5.7 2.5 6.4 0 2.3 2.9 6.8 5.2 8.1 2.8 1.5 2.3 1.5 9.3 0.2z"
       id="path5"
       style="fill:#ffffff" />
    <path
       d="M1153 857.5 c0 -4.8 0.2 -5.5 2 -5.5 1.5 0 2 -0.7 2 -2.5 0 -1.4 -0.4 -2.5 -1 -2.5 -0.5 0 -1 -1.6 -1 -3.5 0 -3.3 0.2 -3.5 3.5 -3.5 2.4 0 3.5 0.5 3.5 1.5 0 0.8 0.9 1.5 2 1.5 2 0 2.1 0.5 1.8 8.3 -0.3 8.1 -0.3 8.2 -3 8.5 -1.6 0.2 -2.8 0.9 -2.8 1.8 0 0.9 -1.1 1.4 -3.5 1.4 l-3.5 0 0 -5.5z"
       id="path6"
       style="fill:#ffffff" />
    <path
       d="M1148.7 835.3 c-0.9 -0.8 -0.9 -7.6 -0.1 -9.7 0.4 -1.1 1.9 -1.6 4.5 -1.6 l3.9 0 0 6 0 6 -3.8 0 c-2.1 0 -4.2 -0.3 -4.5 -0.7z"
       id="path7"
       style="fill:#ffffff" />
    <path
       d="M900.3 661.3 c-3 -0.4 -3.3 -0.7 -3.3 -3.9 0 -3.4 -0.8 -4.2 -2.5 -2.5 -1.5 1.5 -13.5 2.6 -13.5 1.3 0 -0.7 -1.3 -1.8 -3 -2.7 -2.5 -1.3 -3 -2.1 -3 -5.4 0 -3.5 -0.3 -3.9 -3 -4.3 -1.9 -0.3 -3 0 -3 0.7 0 3.8 -11 4.6 -12 0.9 -0.3 -1.2 -2 -3.4 -3.7 -4.9 -1.8 -1.5 -3.3 -3.2 -3.3 -3.8 -0.1 -1.2 -3.4 -5.7 -4.3 -5.7 -0.3 0 -2.1 -1.6 -4 -3.5 -5.5 -5.5 -8 -4.4 -3.1 1.4 2.7 3.3 4 8.5 3 12.5 -0.5 2.2 -1.2 2.6 -4.1 2.6 -2.9 0 -4.4 -0.9 -8.5 -5.2 -2.8 -2.9 -6.4 -7.8 -8.2 -10.8 -1.7 -3 -5.4 -9.3 -8.2 -14 -2.8 -4.7 -5.8 -9.8 -6.6 -11.5 -0.8 -1.6 -2.2 -3.9 -3.1 -5 -1 -1.1 -4.1 -6.5 -7 -12 -2.8 -5.5 -7.9 -14.7 -11.2 -20.5 -3.3 -5.8 -7.2 -12.5 -8.5 -15 -1.4 -2.5 -4.8 -8.3 -7.7 -13 -9.7 -15.9 -12.3 -20.5 -18.6 -32.5 -3.4 -6.6 -6.9 -13.2 -7.8 -14.7 -6.7 -11.3 -10.6 -17.3 -11.3 -17.6 -0.4 -0.2 -0.8 -1 -0.8 -1.8 0 -0.8 -0.4 -1.4 -0.9 -1.4 -0.5 0 -1.1 -1 -1.5 -2.2 -0.3 -1.3 -2 -4.5 -3.8 -7.3 -5.6 -8.8 -9.8 -15.7 -9.8 -16.5 0 -0.4 -1.8 -3.5 -4 -6.9 -2.2 -3.4 -4 -6.4 -4 -6.7 0 -0.2 -1 -2.1 -2.3 -4.2 -1.3 -2 -3.6 -6.6 -5.1 -10.2 -1.5 -3.6 -3.3 -7.2 -4.1 -8 -0.7 -0.8 -6 -10.7 -11.8 -22 -5.7 -11.3 -12.3 -23.6 -14.5 -27.5 -2.2 -3.8 -6.2 -11.3 -8.9 -16.5 -2.6 -5.2 -6.4 -12.4 -8.4 -16 -2 -3.6 -4 -7.5 -4.3 -8.8 -0.4 -1.3 -2.4 -5.1 -4.3 -8.5 -2 -3.4 -6.3 -11.4 -9.6 -17.7 -3.3 -6.3 -7.3 -13.4 -8.8 -15.8 -1.6 -2.4 -2.9 -4.6 -2.9 -5.1 0 -0.4 -1.3 -2.5 -3 -4.7 -1.6 -2.1 -3 -4.2 -3 -4.6 0 -0.8 -5.6 -9.4 -8.9 -13.8 -1 -1.4 -3 -4.6 -4.5 -7.2 -1.7 -3 -3.4 -4.8 -4.5 -4.8 -2.8 0 -4.4 -2.6 -3.9 -6.5 0.4 -3.1 0.1 -3.5 -1.9 -3.5 -2.4 0 -7.2 -5.9 -12.7 -15.4 -2.3 -4 -2.7 -5.7 -2.4 -9.7 0.3 -2.6 0.1 -5.2 -0.4 -5.7 -1.2 -1.2 -4.8 -14.9 -4.8 -18.4 0 -1.6 0.5 -2.8 1.3 -2.8 1.7 0 1 -9.5 -0.9 -11.1 -2.4 -2 -1.8 -9.7 1.2 -13.3 2.4 -2.9 3.8 -4.9 9.8 -13.7 1.3 -2 5.3 -6.1 8.7 -9 3.4 -3 7.6 -6.8 9.4 -8.4 1.8 -1.7 4.5 -3.7 6.1 -4.5 3.6 -1.8 11.7 -7.9 16.6 -12.5 2 -1.9 4.1 -3.5 4.5 -3.5 0.5 0 3.5 -2.5 6.8 -5.6 3.3 -3 7.6 -6.3 9.5 -7.4 1.9 -1 6.6 -4.5 10.4 -7.7 7.4 -6.3 14 -10.9 17 -12 1 -0.3 4.3 -1.9 7.2 -3.5 3 -1.5 6.8 -2.8 8.6 -2.8 1.8 0 4.7 -0.8 6.3 -1.8 2.1 -1.3 6 -2.1 13.3 -2.5 10.1 -0.7 10.4 -0.7 12.3 1.6 1.3 1.7 3.2 2.6 6.7 3 6.6 0.8 9.2 2.2 12.7 7 1.7 2.2 3.7 4.3 4.5 4.7 0.8 0.4 2.5 1.2 3.7 1.8 1.3 0.7 3.1 1.2 4.1 1.2 3.3 0 17.2 15.7 20.6 23.3 1.3 2.9 3.5 7 5 9.2 1.5 2.2 3.9 6.5 5.3 9.5 1.4 3 4 7.4 5.9 9.7 1.9 2.3 4.2 5.9 5.2 8 0.9 2.1 2.7 5.2 4 7 1.2 1.7 2.2 3.4 2.2 3.8 0 1.3 8.4 14.5 9.2 14.5 1.3 0 7.5 11.4 9.7 18.1 1.3 3.5 3.1 7.8 4.1 9.4 0.9 1.7 3.2 6.6 4.9 11 1.8 4.4 4.2 9.9 5.4 12.2 7 13.2 14.7 29.3 14.7 30.4 0 0.8 1.6 3.6 3.5 6.3 1.9 2.7 3.5 5.5 3.5 6.2 0 0.8 2.1 4.6 4.7 8.6 2.6 4 5.9 10.4 7.4 14.3 1.5 3.9 3.9 9.1 5.3 11.5 1.4 2.5 2.6 5.2 2.6 6 0 0.8 1.6 3.7 3.5 6.4 1.9 2.7 3.5 5.6 3.5 6.3 0 0.7 0.4 2.1 0.9 3.1 0.6 0.9 2.4 5.5 4.2 10.2 1.8 4.7 3.8 9.2 4.6 10.1 0.7 0.8 1.3 1.9 1.3 2.4 0 0.9 6.2 13.8 23.1 48 6.5 13.2 14 28.7 16.7 34.5 2.7 5.8 7 13.6 9.6 17.3 2.5 3.8 4.6 7.5 4.6 8.2 0 2.6 2.2 6.3 4.5 7.5 1.5 0.8 3 3.3 4.4 7.5 1.1 3.5 3.4 8.5 5.1 11.1 1.7 2.7 3.5 6.6 4.1 8.8 0.6 2.1 3.3 8.5 6 14.3 2.7 5.7 4.9 10.8 4.9 11.3 0 0.6 0.4 1 1 1 1.3 0 3.6 4.7 4.5 9 0.3 1.9 2.2 6 4 9 1.8 3 3.8 7.3 4.4 9.5 0.6 2.2 2.2 5.6 3.7 7.5 1.4 1.9 3.8 6 5.2 9 1.3 3 3 6.2 3.7 7 0.6 0.8 1.8 3.1 2.6 5 0.7 1.9 3.3 6.6 5.6 10.5 3.6 5.8 4.3 7.7 4.3 12.2 0 5.3 0 5.3 -3.2 5.4 -1.8 0 -2.7 0.3 -2 0.6 0.7 0.3 1.2 2.3 1.2 4.9 0 4.3 0 4.4 -3.4 4.4 l-3.4 0 -0.4 5.7 c-0.2 3.7 0.1 6.1 1 7 0.8 0.8 1.2 3.2 1 6.5 l-0.3 5.3 -4.9 -0.1 c-2.9 0 -5.2 -0.6 -5.4 -1.2 -0.5 -1.6 -4.7 -1.5 -6 0.1 -0.5 0.6 -1.5 3.1 -2.1 5.3 -1.4 5.2 -2.4 6 -8.6 6.9 -5.3 0.7 -7.3 1.8 -9.1 5 -0.9 1.7 -6.3 5 -11.3 7 -0.9 0.3 -3.2 1.5 -5.1 2.5 -1.9 1.1 -4.7 2 -6.2 2 -1.6 0 -3.8 1.2 -5.6 3 -1.7 1.7 -3.7 3 -4.5 3 -0.8 0 -2.8 0.7 -4.6 1.6 -2.4 1.2 -4.6 1.4 -8.7 0.9 l-5.4 -0.6 0 3 c0 5.1 -5.3 6.8 -16.7 5.4z m6.5 -9.4 c3 -2.4 2.1 -2.3 -5.3 0.5 l-4 1.5 3.3 0.1 c2 0 4.5 -0.9 6 -2.1z m-11.2 -80.9 c0.5 -0.1 2.5 -1.4 4.4 -3 1.9 -1.7 4 -3 4.7 -3 2.5 0 2.4 -2.2 -0.5 -6.8 -1.6 -2.6 -3.5 -6.5 -4.2 -8.7 -0.7 -2.2 -2.6 -6.4 -4.1 -9.4 -1.6 -3 -3.6 -7.6 -4.4 -10.1 -0.9 -2.6 -2.7 -5.8 -4.1 -7 -1.3 -1.3 -3.1 -4.6 -3.9 -7.3 -0.8 -2.7 -3.1 -7.4 -5.2 -10.5 -4.8 -7.3 -13.4 -22.4 -19.6 -34.2 -2.7 -5.2 -6 -11.5 -7.4 -14 -1.4 -2.5 -5.4 -10.9 -8.9 -18.8 -3.5 -7.8 -7.4 -15.9 -8.7 -18 -1.3 -2 -3.3 -6.2 -4.6 -9.2 -1.3 -3 -4 -8.4 -6.1 -12 -2.2 -3.6 -5.3 -9.6 -7.1 -13.5 -1.7 -3.8 -4.8 -10.6 -6.9 -15 -7.6 -16.1 -10 -21.4 -10 -22.2 0 -1.6 -8.6 -19.9 -10.8 -23 -1.2 -1.7 -2.2 -3.7 -2.2 -4.5 0 -0.7 -1.7 -4.2 -3.7 -7.8 -2.1 -3.6 -4.9 -9.2 -6.2 -12.5 -1.3 -3.3 -3 -6.7 -3.7 -7.5 -1.8 -2.2 -14.2 -26.9 -15.5 -31 -0.6 -1.9 -3.1 -7.3 -5.5 -11.8 -2.4 -4.6 -4.4 -9 -4.4 -9.7 0 -3.5 -18.3 -40.6 -24.7 -50 -5.8 -8.7 -11.3 -17.4 -11.3 -18.1 0 -0.4 -2.3 -4.9 -5.1 -10.1 l-5.1 -9.5 -2.7 2.6 c-1.5 1.4 -3.2 2.6 -3.7 2.6 -0.6 0 -2.8 1.6 -4.9 3.6 -2.2 2 -5.1 4.2 -6.5 4.9 -1.4 0.7 -5.1 3.6 -8.3 6.4 -3.2 2.8 -6.4 5.1 -7.1 5.1 -0.7 0 -2.5 0.9 -4 2.1 -3.2 2.5 -3.3 2.3 8.7 15.2 15.9 17.3 28.6 33.6 34.3 44.2 1.5 2.8 3.9 6.6 5.4 8.5 1.5 1.9 3.6 5.3 4.7 7.5 1.1 2.2 2.7 5.4 3.6 7 0.9 1.7 3.5 6.6 5.7 10.9 2.2 4.4 4.6 8.7 5.4 9.5 0.7 0.9 5.8 10.2 11.1 20.6 30.5 59.3 34.2 66.3 36.5 69.2 1.1 1.4 2 3.1 2 3.7 0 1.4 0.8 2.9 10.4 19.4 4.2 7.3 8.2 14.5 8.8 16 0.7 1.5 2.4 4.5 3.9 6.7 6.6 9.9 17 27.5 20.3 34.5 1.5 3.2 3.4 6.2 5.4 8.3 1.1 1.2 3.2 5.1 4.7 8.7 1.5 3.6 3.6 7.7 4.6 9.2 1.1 1.4 1.9 3.3 1.9 4.1 0 0.8 0.7 2 1.5 2.7 0.8 0.7 2.6 3.5 4 6.4 1.4 2.8 4.1 7.8 6 11.1 2 3.3 5.4 9.2 7.6 13 2.2 3.9 4.4 7.7 4.9 8.5 0.5 0.8 2.1 4.1 3.5 7.2 1.5 3.2 3 6 3.5 6.3 1.4 0.9 9.5 15.9 14.6 27 3.7 8.3 4.3 8.9 6.4 7 0.9 -0.8 2.1 -1.5 2.6 -1.5z m-297.6 -349 c-0.6 -1.1 -1.3 -2 -1.5 -2 -0.3 0 -0.5 0.9 -0.5 2 0 1.1 0.7 2 1.5 2 1.3 0 1.4 -0.4 0.5 -2z"
       id="path8"
       style="fill:#ffffff" />
    <path
       d="M1324.8 604.9 c-1.2 -0.7 -1.8 -2.3 -1.9 -5.2 0 -2.3 -0.3 -3.6 -0.6 -2.9 -0.7 1.7 -7.3 1.5 -9.3 -0.3 -1.4 -1.2 -2.7 -1.2 -10.5 0.7 -5 1.1 -11.2 2.1 -14 2.2 l-5 0.1 -0.3 -4.4 c-0.2 -3 0.2 -4.9 1.3 -6.2 1.6 -1.7 1.6 -1.8 -0.9 -2.5 -1.6 -0.4 -3.3 -1.9 -4.2 -3.7 -0.9 -1.7 -2.7 -4.2 -4 -5.6 -4.4 -4.7 -7.4 -12 -7.4 -18 0 -3.1 -0.6 -6.1 -1.4 -7 -0.7 -0.9 -2.8 -4.5 -4.7 -8.1 -1.9 -3.6 -3.5 -6.7 -3.6 -6.9 -0.4 -0.7 -10.7 10.3 -14.5 15.4 -2 2.8 -4.8 6.1 -6.2 7.4 -1.4 1.4 -2.6 3 -2.6 3.8 0 0.7 -0.4 1.3 -0.9 1.3 -0.5 0 -2.2 2.5 -3.7 5.6 -1.5 3.1 -3.4 5.8 -4.3 6.1 -0.9 0.3 -3 1.6 -4.7 2.9 -4.2 3.1 -12.8 3.9 -25.5 2.4 -14.5 -1.6 -16.4 -2.8 -19.2 -11.1 -0.3 -1 -2.2 -1.8 -4.9 -2.2 -4.5 -0.6 -13.7 -5.1 -15.1 -7.4 -0.4 -0.7 -2.1 -2 -3.7 -2.8 -1.7 -0.9 -4.4 -3.1 -6.2 -5 -2 -2.3 -4 -3.5 -5.7 -3.5 -4.3 0 -10.1 -2.5 -14.1 -6.1 -6.9 -6.1 -7.1 -6.2 -12.4 -6.1 -2.8 0.1 -6.1 -0.4 -7.3 -1.1 -8.3 -4.6 -14.5 -7.6 -17.3 -8.2 -2.3 -0.5 -3.5 -1.5 -4.2 -3.5 -0.8 -2.5 -1.6 -2.9 -5.1 -3.2 -4.2 -0.3 -4.2 -0.3 -4.5 -4.5 -0.3 -4.2 -2.2 -6.2 -2.2 -2.3 0 1.7 -0.7 2 -4.5 2 -6.2 0 -13.4 -5 -13.5 -9.5 -0.1 -1.6 -0.4 -2.4 -0.7 -1.7 -0.7 1.8 -7.8 1.5 -9.4 -0.4 -0.7 -0.8 -1.4 -4 -1.7 -7 -0.4 -5.4 -0.4 -5.4 2.4 -5.4 1.6 0 2.4 -0.4 1.8 -0.8 -0.6 -0.4 -1.9 -2.2 -2.8 -4 -1.2 -2.4 -3.3 -4 -8.1 -6.1 -4.9 -2.3 -6.7 -3.7 -7.5 -5.8 -0.5 -1.5 -1.4 -3.5 -2 -4.3 -6.8 -10.6 -8.5 -17.3 -5.6 -21.5 0.7 -1.1 1.9 -3.7 2.6 -5.8 0.7 -2.1 2.4 -5.3 4 -7 3.7 -4.4 5.2 -7.4 4 -8.2 -1.9 -1.2 -1.1 -10.4 1.5 -16.5 1.4 -3.3 2.5 -6.5 2.5 -7.3 0 -0.7 1.2 -2.4 2.6 -3.8 1.5 -1.3 3.9 -4.3 5.4 -6.7 3.1 -4.8 7 -9.3 18.6 -21.9 4.4 -4.9 9.4 -10.4 11 -12.3 4.5 -5.3 28.6 -29 29.5 -29 0.5 0 1.6 -1.4 2.5 -3.2 3 -5.9 1.5 -13.2 -6.2 -29.3 -1.3 -2.8 -2.4 -5.5 -2.4 -6 0 -0.6 -1.1 -2.6 -2.4 -4.6 -1.3 -1.9 -2.9 -5.4 -3.5 -7.7 -0.7 -2.3 -1.5 -4.4 -2 -4.6 -0.5 -0.3 -2 -3 -3.5 -6 -2 -4 -2.6 -6.8 -2.5 -10.8 0.2 -4.6 -0.4 -6.4 -4.5 -13.8 -2.6 -4.7 -5.3 -9.2 -6 -10 -0.7 -0.8 -2.8 -4.6 -4.7 -8.5 -1.8 -3.8 -5.9 -11.3 -9.1 -16.6 -3.2 -5.4 -5.8 -10.1 -5.8 -10.6 0 -0.6 -0.9 -1.8 -2 -2.8 -1.1 -1 -2 -2.4 -2 -3.1 0 -0.7 -2 -2.9 -4.4 -4.8 -4.3 -3.6 -4.3 -3.6 -4.9 -11.7 -0.4 -4.6 -1.3 -8.9 -2 -9.8 -0.8 -0.9 -2 -3.2 -2.7 -5.1 -0.7 -1.9 -2.8 -6.1 -4.7 -9.2 -2.9 -4.8 -3.9 -5.7 -6.6 -6 -2.9 -0.3 -3.2 -0.6 -3.5 -4 -0.3 -3.5 0 -3.9 3.2 -5.5 2.6 -1.2 3.6 -2.3 3.6 -3.9 0 -2.5 5.8 -6.9 12 -9.3 1.9 -0.7 5.4 -2.2 7.7 -3.2 2.4 -1.1 5.3 -1.9 6.6 -1.9 2.8 0 4.5 -2.9 4.9 -8.5 l0.3 -4 6 0 c4.2 -0.1 7.3 -0.8 10.2 -2.3 2.3 -1.2 5.4 -2.2 6.8 -2.2 4.3 0 14.4 -4 17.8 -7.1 1.7 -1.6 4 -3.2 5 -3.5 3 -0.9 8.8 -5.1 14.5 -10.5 2.8 -2.7 5.9 -4.9 6.6 -4.9 0.8 0 2.4 -1.3 3.5 -2.8 3.2 -4.5 20.4 -13.2 26.2 -13.2 1.4 0 3 0.5 3.7 1.2 0.9 0.9 1.2 0.9 1.2 -0.3 0 -2 6.8 -3.9 14 -3.9 5.8 0 6 0.1 6 2.6 0 1.4 0.4 2.3 1 1.9 0.6 -0.3 1 -1.5 1 -2.7 0 -2 0.4 -2 7.8 -1.4 14.8 1.2 21.7 2.2 24.4 3.6 2.5 1.2 10.2 10.2 12.7 14.9 0.7 1.1 2 2.1 3.1 2.1 2.1 0 5 3.5 5 6.2 0 1 0.6 1.8 1.3 1.8 0.8 0 3.4 2.4 5.8 5.3 2.4 2.8 5.1 6.1 6.1 7.2 2.7 3 7.9 10.2 11.3 15.4 1.7 2.6 4.3 6.4 5.9 8.4 1.6 2.1 3.6 5.1 4.5 6.6 0.9 1.6 2.6 4.7 3.8 6.8 1.2 2.2 3.8 5.9 5.7 8.2 2 2.4 3.6 4.6 3.6 5 0 0.3 1.1 1.8 2.4 3.2 1.3 1.4 3.5 4.3 4.8 6.5 1.4 2.1 3.5 4.8 4.7 5.8 1.1 1.1 2.1 2.5 2.1 3.2 0 1.7 17.9 28.3 19.1 28.4 0.3 0 1 -0.8 1.5 -1.9 1.1 -2.2 3.1 -4.8 14.3 -18.4 17.6 -21.4 50.1 -55.7 56 -59.1 1 -0.6 3.3 -1.9 5.1 -2.9 1.7 -1 4.5 -3.4 6.2 -5.2 4.1 -4.7 11.9 -6.9 21.6 -6.1 4.5 0.4 7.9 1.2 8.8 2.1 0.9 0.8 2.1 1.5 2.8 1.5 0.6 0 1.7 0.5 2.4 1.2 1.6 1.6 9.1 1 10.9 -0.8 1.6 -1.5 9.3 -1.9 9.3 -0.5 0 0.5 2.3 3.8 5.1 7.3 4.1 5.1 5.8 6.5 9.2 7.3 3.8 0.9 4.2 1.3 4.5 4.3 0.3 2.4 0.8 3.2 2.3 3.2 1.1 0 3.4 1.6 5.2 3.5 1.7 1.9 3.6 3.5 4.2 3.5 1.4 0 3.1 2.9 3.9 6.5 0.4 1.7 2 4.8 3.6 7 1.6 2.2 3.5 5.1 4.1 6.5 0.6 1.4 1.5 3.2 2 4 0.5 0.8 1.6 3.1 2.5 5 4.6 10.2 9 20 12.6 27.3 1 2.2 1.8 5.2 1.8 6.8 0 1.7 0.5 2.9 1.3 2.9 0.8 0 3 3.3 5.1 7.4 2 4.1 4.3 8 5.1 8.6 0.8 0.7 1.5 2 1.5 2.9 0 1 0.7 2.6 1.5 3.7 0.8 1 1.5 2.6 1.5 3.5 0 0.9 1.1 2.7 2.5 4 1.3 1.3 2.5 3.1 2.5 4 0 0.9 0.9 2.4 1.9 3.3 1.1 1 2.5 3.1 3.1 4.7 1.1 2.4 1.8 2.9 4.9 2.9 2 0 4.2 0.4 4.8 0.8 1.6 1 3.3 9.9 3.3 17.5 0 5.4 0.3 6.3 3.5 9.8 2.8 3.1 3.5 4.7 3.5 8 l0 4.1 -6.5 -0.4 c-4.3 -0.2 -6.6 0.1 -6.9 0.9 -0.3 0.6 0.1 1.4 0.9 1.7 2.8 1.1 8.5 10.9 8.5 14.8 0 3.7 -0.1 3.8 -3.4 3.8 -2.6 0 -4.1 -0.7 -6 -3 -2.6 -3.1 -3.1 -3.2 -9.8 -1.3 -2.2 0.5 -2.3 5 -0.3 7.7 0.8 1.1 1.5 3.5 1.5 5.3 0 3.2 -0.1 3.3 -4.5 3.3 -3.7 0 -4.7 -0.4 -6.1 -2.6 -1.5 -2.2 -1.9 -2.3 -2.6 -1 -0.5 0.9 -1.6 1.6 -2.4 1.6 -0.9 0 -2.2 0.7 -3 1.5 -0.9 0.8 -2.6 1.5 -4 1.5 -1.4 0 -3.5 1.2 -5 3 -1.6 1.7 -4.2 3.2 -6.1 3.6 -2.3 0.4 -5.1 2.3 -8.2 5.5 -2.7 2.7 -5.5 4.9 -6.2 4.9 -0.8 0 -2.5 1.6 -3.9 3.6 -1.4 1.9 -3.7 4.1 -5.2 5 -1.6 0.8 -2.8 1.9 -2.8 2.4 0 0.6 -0.6 1 -1.3 1 -0.7 0 -2.1 1.2 -3.2 2.6 -1.1 1.4 -4.8 4.6 -8.2 7.1 -3.5 2.5 -6.8 5.3 -7.3 6.3 -0.7 1.2 -0.7 5.1 0 11.2 0.5 5.1 1.4 14.3 2 20.4 0.5 6.2 2.1 15.6 3.4 21 4.2 17.2 5.8 29.3 6.6 51.4 0.9 24.3 0.7 34.2 -1 48.5 -0.7 5.5 -1.3 15.6 -1.4 22.5 -0.1 6.9 -0.6 13.2 -1.1 14 -0.5 0.8 -0.8 4.9 -0.6 9.2 l0.2 7.8 -3.2 0 c-4.6 0 -13.9 3.1 -13.9 4.7 0 0.9 -1.4 1.3 -4 1.3 -3.9 0 -4 0.1 -4 3.4 0 4.3 -2.9 6.6 -8.2 6.6 -3.4 0 -3.8 -0.3 -4.7 -3.7 -0.6 -2.1 -1.1 -4.4 -1.1 -5 0 -0.9 -1.8 -1.3 -5.7 -1.3 -3.5 0 -5.3 0.4 -4.5 0.9 0.8 0.5 1.2 2.3 1 4.7 -0.2 3.2 -0.7 4 -2.5 4.2 -1.5 0.2 -2.3 1 -2.3 2.3 0 3.1 -4.4 4.2 -15.2 3.6 -8.1 -0.4 -10.2 -0.2 -13.1 1.3 -4.8 2.6 -11.7 3.4 -17.8 2.1 -3.6 -0.8 -5.6 -0.8 -6.3 -0.1 -0.5 0.5 -4.4 1 -8.6 1 -4.2 0 -8.1 0.5 -8.7 1.1 -0.6 0.6 -3.3 1 -6.2 0.8 -4.9 -0.4 -5 -0.4 -5.3 2.6 -0.3 2.7 -0.7 3 -4.3 3.2 -2.2 0.2 -4.8 -0.2 -5.7 -0.8z m9.1 -11 c-1.9 -1.2 -8 -1.1 -9.9 0.1 -1.1 0.7 0.2 1 4.3 1 3.8 0 5.7 0.4 5.8 1.3 0 0.8 0.2 0.8 0.6 -0.2 0.3 -0.7 -0.1 -1.7 -0.8 -2.2z m40.6 -77.9 c1.1 -1.3 2 -4.1 2.3 -7.5 0.4 -4.6 0.8 -5.5 2.3 -5.5 1.1 0 1.9 -0.7 1.9 -1.5 0 -1 -1.1 -1.5 -3.5 -1.5 -3.2 0 -3.5 -0.3 -4.5 -4.2 -0.7 -2.4 -1.8 -6.2 -2.6 -8.6 -0.8 -2.3 -1.4 -6.1 -1.4 -8.2 0 -3.9 0.1 -4 3.5 -4 1.9 0 3.5 0.1 3.5 0.3 0 0.1 0.7 2 1.6 4.2 l1.5 4 -0.7 -4 c-0.3 -2.2 -1 -4.5 -1.5 -5.1 -0.5 -0.7 -1.8 -6.5 -2.9 -13 -2.1 -12.9 -4.7 -25 -8.7 -41.4 -3.7 -15.1 -4.4 -19.9 -4.7 -34.5 -0.4 -13.3 0.1 -15.5 3.4 -15.5 1.9 0 2.2 -0.9 4.1 -13 1 -5.9 0.9 -9 -0.7 -23.1 -0.5 -4.4 -0.3 -5 4.2 -10.8 2.6 -3.3 5.1 -6.1 5.5 -6.1 0.5 0 1.9 -1.6 3.2 -3.6 1.4 -1.9 5.1 -5.4 8.4 -7.7 3.3 -2.3 6.8 -5 7.7 -6 1 -0.9 3.1 -2.4 4.7 -3.2 1.6 -0.9 2.9 -2 2.9 -2.6 0 -1.1 6 -6.9 7.1 -6.9 0.3 0 2.9 -2.1 5.7 -4.8 17.4 -16.3 24.3 -22.2 26.1 -22.2 1.7 0 5.2 -6.2 4.2 -7.4 -1 -1.3 -11 -21.1 -14.1 -27.9 l-2.2 -4.8 -4.7 3.7 c-2.5 2.1 -7.3 6.6 -10.7 10.1 -3.4 3.5 -6.6 6.3 -7.2 6.3 -0.7 0 -1.2 0.8 -1.2 1.8 0 0.9 -1.1 3.4 -2.5 5.4 -1.4 2 -2.5 4.2 -2.5 4.7 0 0.6 -1.1 1.8 -2.5 2.7 -1.4 0.9 -2.5 2.2 -2.5 2.8 0 0.7 -1.1 2.3 -2.5 3.6 -1.4 1.3 -3.5 4.3 -4.7 6.7 -1.2 2.4 -2.7 4.3 -3.5 4.3 -1.2 0 -4.6 3 -17.4 15.3 -6.1 5.8 -10 7.2 -12.7 4.5 -0.9 -0.9 -1.2 -0.4 -1.2 2.3 -0.1 3.7 -1.5 6.1 -4.2 7.2 -1 0.3 -1.8 1.1 -1.8 1.7 0 0.5 -0.7 1 -1.5 1 -0.9 0 -1.8 0.7 -2.1 1.5 -0.4 0.9 -1.9 1.5 -4 1.5 -3.4 0 -7.4 3.1 -7.4 5.7 0 0.8 -1.2 1.3 -2.9 1.3 -2 0 -3 0.6 -3.4 2 -0.8 3.1 -7.6 2.8 -11.6 -0.5 l-3 -2.6 -0.3 2.3 c-0.3 2 -1 2.3 -5 2.6 -2.7 0.2 -4.8 0.7 -4.8 1.3 0 0.5 -1.9 0.9 -4.2 0.9 -5.6 0 -11.4 -3.4 -15.3 -8.7 -1.6 -2.3 -3.6 -4.2 -4.2 -4.2 -0.8 -0.1 -1.3 -1.6 -1.3 -4.1 0 -3.8 -0.1 -4 -3.2 -4 -2.4 0 -4.1 -1 -7.5 -4.6 -2.4 -2.5 -4.6 -5.8 -5 -7.5 -0.3 -1.6 -1 -3.2 -1.4 -3.5 -0.5 -0.3 -0.9 -1.3 -0.9 -2.3 0 -2.9 -8.8 -19.2 -12.4 -23.1 -1.8 -1.9 -4.4 -5.5 -5.8 -8 -2.2 -3.8 -4.1 -6.4 -9.6 -13.5 -0.4 -0.5 -2.3 -3.5 -4.2 -6.5 -1.9 -3 -5 -7.5 -6.8 -9.9 -1.8 -2.4 -4.2 -6.2 -5.4 -8.5 -1.1 -2.3 -3.9 -6.3 -6.2 -9.1 -2.3 -2.7 -5.2 -6.7 -6.4 -8.8 -3.3 -5.7 -20.3 -26.5 -26.5 -32.3 -5.3 -5.1 -5.4 -5.1 -8.3 -3.6 -1.6 0.8 -3.8 2.2 -4.9 3.2 -1.1 0.9 -5.1 3.5 -9 5.8 -3.8 2.2 -9.4 5.6 -12.3 7.6 l-5.3 3.5 2.6 1.7 c1.4 0.9 3.5 3.4 4.6 5.5 1 2.1 2.8 4.9 4 6.1 3.5 4 11.6 15.2 13.4 18.8 0.9 1.9 2.5 4.4 3.5 5.5 0.9 1.1 3.1 4.6 4.9 7.8 1.7 3.3 4.5 7.2 6.1 8.9 1.7 1.6 3 3.4 3 3.9 0 0.6 1.4 2.7 3.1 4.7 5.7 6.9 13.3 20.8 14.3 26.5 0.5 2.8 1.5 4.3 3.6 5.5 3.2 1.8 5 5 5 8.6 0 1.3 0.9 3.1 2 4.1 1.1 1 2 2.3 2 3 0 1.8 4.1 5.2 8.3 7 2 0.8 3.7 2.1 3.7 2.9 0 0.8 1.1 2.1 2.5 3 2.1 1.4 2.5 2.5 2.5 6.1 0 4.5 0 4.5 3.5 4.5 3.8 0 5.5 2 5.5 6.4 0 2 0.5 2.6 2.1 2.6 3.2 0 5 5.7 4.7 14.8 -0.3 7.7 -0.3 7.7 -3.8 9.4 -1.9 1 -2.9 1.8 -2.2 1.8 0.8 0 1.2 1.7 1.2 5.4 0 5.9 0.5 5.2 -10.9 14.4 -2.3 1.8 -4.1 3.7 -4.1 4.2 0 1.8 -4.2 5.8 -6.6 6.4 -1.3 0.4 -2.4 1 -2.4 1.5 0 0.5 -1.3 1.4 -3 2.1 -1.8 0.8 -3 2 -3 3.1 0 1.1 -0.5 1.9 -1.1 1.9 -0.6 0 -3.7 2.5 -6.9 5.6 -5 4.7 -6.2 6.6 -8 12.3 -1.1 3.6 -3.8 9.5 -6 13.1 -2.2 3.6 -4 6.9 -4 7.4 0 1.5 -4.9 11.4 -6 12.1 -0.5 0.3 -1.7 2.3 -2.7 4.3 -1 2 -3.5 6.2 -5.5 9.2 -2.1 3 -5 7.3 -6.5 9.5 -1.5 2.2 -4.2 5.8 -6 7.9 -1.8 2.1 -3 4.2 -2.8 4.6 0.3 0.4 2.6 1.8 5.2 3 2.7 1.2 6.4 3.9 8.4 5.9 4.2 4.3 10.9 8.5 10.9 6.9 0 -0.7 2.6 -5.3 5.9 -10.3 3.2 -4.9 6.9 -11.7 8.2 -15 1.3 -3.3 3.8 -8.6 5.6 -11.7 1.8 -3.1 3.3 -6.2 3.3 -7 0 -0.7 0.9 -2.8 2 -4.6 1.1 -1.8 2 -3.8 2 -4.5 0 -0.6 1.4 -3 3 -5.1 1.7 -2.2 3 -4.3 3 -4.8 0 -0.5 2.1 -4 4.6 -7.8 5.2 -7.9 13.4 -15.6 17.6 -16.6 1.6 -0.3 4 -1.7 5.3 -3 1.3 -1.3 3.6 -2.4 5 -2.4 2.1 0 2.5 -0.5 2.5 -3 0 -2.9 0.1 -3 4.7 -3 2.9 0 5.3 -0.6 6.4 -1.6 1.1 -1 4.4 -1.8 8.4 -2.2 5.7 -0.4 7 -0.2 9.6 1.7 2.5 1.9 3.4 2 6.7 1.1 6.6 -1.8 8.9 -1.3 11.8 2.6 1.6 2.1 4.9 4.6 7.8 5.9 5.6 2.4 7.4 4.1 10.4 9.9 1.1 2.1 2.9 4.4 4 5.2 1.1 0.7 2.5 2.8 3.2 4.6 2.1 5.8 3.4 8.2 7.1 13.8 5.7 8.8 18.3 37.8 19.9 46 0.5 2.5 1.6 7.4 2.5 11 0.8 3.6 2.4 10.5 3.5 15.5 2 9.2 3.5 11.5 7.4 11.5 1.9 0 6.9 1.4 11.1 3.1 3.1 1.2 4.1 1 6 -1.1z m-315 -15 c-1 -1.1 -2.2 -2 -2.7 -2 -0.4 0 -0.8 0.9 -0.8 2 0 1.5 0.7 2 2.7 2 2.5 0 2.6 0 0.8 -2z"
       id="path9"
       style="fill:#ffffff" />
    <path
       d="M1446 584.5 c0 -3.3 0.2 -3.5 3.5 -3.5 3.3 0 3.5 0.2 3.5 3.5 0 3.3 -0.2 3.5 -3.5 3.5 -3.3 0 -3.5 -0.2 -3.5 -3.5z"
       id="path10"
       style="fill:#ffffff" />
    <path
       d="M1055.7 227.2 c-1.1 -1.2 -1.7 -3.6 -1.7 -6.5 0 -4.7 0 -4.7 3.4 -4.7 4.2 0 6.6 3.2 6.6 9 0 3.9 -0.1 4 -3.3 4 -2 0 -4.1 -0.8 -5 -1.8z"
       id="path11"
       style="fill:#ffffff" />
    <path
       d="M684.7 49.3 c-0.4 -0.3 -0.7 -2.4 -0.7 -4.5 l0 -3.9 4.3 0.3 c4.2 0.3 4.2 0.3 4.5 4.6 l0.3 4.2 -3.9 0 c-2.1 0 -4.2 -0.3 -4.5 -0.7z"
       id="path12"
       style="fill:#ffffff" />
  </g>
</svg>
