<?xml version="1.0" encoding="UTF-8" standalone="no"?>
<svg
   version="1.0"
   width="1600px"
   height="1272px"
   viewBox="0 0 1600 1272"
   preserveAspectRatio="xMidYMid meet"
   id="svg8"
   sodipodi:docname="peef.svg"
   inkscape:version="1.3 (0e150ed, 2023-07-21)"
   xmlns:inkscape="http://www.inkscape.org/namespaces/inkscape"
   xmlns:sodipodi="http://sodipodi.sourceforge.net/DTD/sodipodi-0.dtd"
   xmlns="http://www.w3.org/2000/svg"
   xmlns:svg="http://www.w3.org/2000/svg">
  <defs
     id="defs8" />
  <sodipodi:namedview
     id="namedview8"
     pagecolor="#ffffff"
     bordercolor="#000000"
     borderopacity="0.25"
     inkscape:showpageshadow="2"
     inkscape:pageopacity="0.0"
     inkscape:pagecheckerboard="0"
     inkscape:deskcolor="#d1d1d1"
     inkscape:zoom="0.15625"
     inkscape:cx="800"
     inkscape:cy="630.4"
     inkscape:window-width="1280"
     inkscape:window-height="800"
     inkscape:window-x="0"
     inkscape:window-y="32"
     inkscape:window-maximized="0"
     inkscape:current-layer="svg8" />
  <g
     fill="#000000"
     id="g4"
     style="fill:#ffffff"
     transform="matrix(0.67923978,0,0,0.6887121,263.39269,198.79861)">
    <path
       d="m 624.5,1233.8 c -3.3,-0.5 -8.5,-1.3 -11.6,-1.8 -3,-0.6 -8.1,-1 -11.3,-1 -3.2,0 -8.1,-0.6 -10.9,-1.4 -2.9,-0.8 -10.1,-1.7 -16.2,-2.1 -6,-0.4 -13.2,-1.1 -16,-1.6 -11.2,-2.3 -83.2,-5.1 -128.5,-5.1 -32,0.1 -43.9,0.7 -57.2,3.2 -2.8,0.6 -7.5,1 -10.4,1 -2.9,0 -8.1,0.7 -11.6,1.6 -12.3,3.2 -62.3,2.1 -121.3,-2.7 -12.2,-1 -37.3,-1.3 -88.5,-0.9 -19.9,0.1 -21.5,0 -23,-1.8 -0.8,-1 -3.5,-2.5 -6,-3.2 -2.5,-0.8 -4.9,-1.7 -5.5,-2 -0.5,-0.4 -3,-1 -5.4,-1.3 -2.4,-0.3 -4.7,-1 -5,-1.5 -0.3,-0.6 -1.9,-1.4 -3.4,-1.7 -1.5,-0.4 -2.7,-1.1 -2.7,-1.6 0,-0.5 -0.5,-0.9 -1,-0.9 -0.6,0 -2,-0.9 -3.2,-2 -1.8,-1.6 -3,-1.9 -7.3,-1.4 -3.4,0.4 -5.5,0.3 -5.9,-0.5 -0.4,-0.6 -1.6,-1.1 -2.6,-1.1 -3.3,0 -9.8,-5.3 -12.5,-10.3 -1.5,-2.6 -4.2,-6.2 -6.1,-8.1 -2.9,-2.8 -3.4,-4 -3.4,-7.8 0,-2.4 -1.1,-7.2 -2.5,-10.6 -1.9,-4.8 -2.5,-7.9 -2.5,-14 0,-4.3 0.4,-8.2 0.8,-8.8 1.1,-1.2 3.2,-8.6 3.2,-11.2 0,-2.3 1.8,-8 5.7,-18.2 4.9,-12.8 6.4,-16 8.8,-18.6 1.4,-1.5 2.5,-3.1 2.5,-3.7 0,-0.6 1.1,-2.5 2.5,-4.3 1.4,-1.8 2.5,-3.9 2.5,-4.6 0,-0.7 0.9,-1.9 1.9,-2.5 1.1,-0.7 2.7,-2.8 3.7,-4.8 0.9,-1.9 2.3,-3.5 3,-3.5 0.8,0 1.4,-0.6 1.4,-1.4 0,-0.8 1.1,-2.7 2.5,-4.2 6.2,-7.3 7.5,-9 7.5,-9.9 0,-0.5 2.1,-3.2 4.5,-5.9 2.5,-2.7 4.5,-5.2 4.5,-5.6 0,-0.4 1.3,-2.3 3,-4.1 1.6,-1.9 3,-4.2 3,-5.1 0,-1 0.3,-1.8 0.8,-1.8 0.4,0 1.6,-1.9 2.7,-4.1 1,-2.3 3.6,-6 5.7,-8.4 2.1,-2.4 3.8,-5 3.8,-5.9 0,-0.9 0.9,-2.1 2,-2.8 1.1,-0.7 2,-1.7 2,-2.1 0,-0.5 1.1,-2.3 2.5,-4.1 1.4,-1.8 2.5,-3.7 2.5,-4.3 0,-0.5 0.9,-2.1 2,-3.4 3.4,-4 8.8,-12.2 10.6,-15.9 0.9,-1.9 2.2,-4.2 2.9,-5 0.7,-0.8 1.5,-2.8 1.9,-4.3 0.4,-1.6 1.8,-4.1 3.1,-5.5 1.4,-1.5 2.5,-3.1 2.5,-3.7 0,-0.6 1.5,-3.3 3.3,-6.1 1.7,-2.8 3.7,-5.9 4.4,-7 1.5,-2.4 6.3,-12.1 6.3,-12.8 0,-0.3 2.2,-4.2 5,-8.8 2.7,-4.6 5,-8.6 5,-9 0,-0.4 1.4,-2.7 3,-5.1 1.6,-2.5 3,-5 3,-5.6 0,-0.7 0.9,-2.2 2.1,-3.4 1.1,-1.2 2.9,-3.8 3.9,-5.8 1,-1.9 2.5,-4.1 3.3,-4.7 0.8,-0.7 2.5,-3.9 3.7,-7.2 1.2,-3.3 2.6,-6 3.1,-6 0.4,0 1.1,-1 1.5,-2.2 0.7,-2.3 6.2,-10.8 7.7,-11.9 1,-0.7 1.5,-1.6 6.6,-11.4 1.9,-3.6 3.7,-6.5 4.1,-6.5 0.4,0 1.7,-2.1 2.9,-4.7 2.5,-5.5 5.6,-11.4 6.8,-12.8 0.4,-0.5 1.5,-2.6 2.5,-4.6 1,-2.3 2.9,-4.2 5.2,-5.3 2,-0.9 4.7,-2.8 6,-4.1 l 2.4,-2.4 -2.5,-6.8 c -2.2,-5.9 -2.6,-8.4 -2.6,-19.3 0,-14.4 0.8,-20.7 3.2,-23.4 1.3,-1.5 1.6,-4.5 1.7,-17.2 0.1,-8.5 0.5,-26.3 0.9,-39.6 0.7,-23.9 0.7,-39.6 0,-40.9 -0.2,-0.3 -0.9,-7.3 -1.5,-15.5 -0.6,-8.2 -1.6,-20.7 -2.2,-27.9 -0.6,-7.1 -1.2,-23.1 -1.3,-35.5 -0.4,-30.5 -1.4,-65 -2,-68.6 -0.7,-3.7 -3.4,-41.4 -4.5,-61.4 -1,-18.2 -3.7,-47.8 -4.6,-49.2 -0.3,-0.5 -0.8,-12.5 -1,-26.6 -0.3,-25.9 -1.2,-37.6 -4.1,-53.2 -0.8,-4.7 -1.8,-11.4 -2,-15 -0.3,-3.6 -0.9,-6.9 -1.4,-7.4 -0.5,-0.6 -0.9,-2.4 -0.9,-4 0,-1.7 -0.9,-7.4 -2,-12.6 -1.1,-5.2 -2.5,-11.5 -3,-14 -0.6,-2.5 -1.7,-10.8 -2.6,-18.5 -0.9,-8.4 -2.2,-15 -3.1,-16.4 -1.1,-1.7 -1.3,-3.7 -0.8,-7.7 0.7,-5.7 -0.8,-15.9 -3.1,-21.1 -0.8,-1.7 -1.4,-4 -1.4,-5.1 0,-1.2 -0.5,-2.4 -1,-2.7 -0.6,-0.3 -1,-2.3 -1,-4.3 0,-2 -1.1,-8 -2.4,-13.2 -2.3,-9.3 -3.4,-15.3 -5.6,-29.5 -0.6,-3.8 -1.6,-10.3 -2.3,-14.2 -0.9,-6.3 -0.9,-7.7 0.6,-10.7 1.5,-3.2 2.1,-3.5 6.3,-3.8 5.2,-0.3 5.6,-0.8 7.3,-8.2 1.7,-7.3 8.7,-17 21.7,-30 7.7,-7.8 10.1,-9.4 23.9,-16.6 3.3,-1.7 6.2,-3.4 6.5,-3.8 1.6,-2.2 13,-6.7 17.1,-6.8 5.4,-0.2 8.8,-1.1 10.9,-2.9 0.8,-0.7 4,-2 7,-3 3,-0.9 6,-2.2 6.5,-2.9 1.7,-1.9 8.2,-3.7 12.7,-3.5 2.4,0.1 6.8,-0.3 9.8,-0.9 3,-0.6 9.5,-1.8 14.5,-2.7 4.9,-0.9 9.4,-2 10,-2.5 3.8,-3.2 25.6,-6.7 34.4,-5.6 2.5,0.4 9.4,0.9 15.3,1.1 5.9,0.3 11.9,1 13.3,1.5 1.4,0.6 4.1,1 5.9,1 1.7,0 3.7,0.5 4.4,1.2 0.9,0.9 1.7,0.9 3.4,0 1.6,-0.9 11.4,-1.4 31.8,-1.6 23.5,-0.3 30.7,-0.7 35.4,-2 5.5,-1.5 7.1,-1.5 19,-0.2 7.2,0.9 15.4,1.8 18.1,2 2.8,0.3 16.3,0.6 30,0.6 13.8,0.1 30.4,0.5 37,1.1 6.6,0.6 28.2,1.2 48,1.5 25.8,0.3 38,0.9 42.9,1.9 4.4,0.9 7.4,1.1 8.1,0.5 0.6,-0.5 8.3,-1 17.1,-1.1 36,-0.4 41.2,-0.5 48.4,-1.6 4.1,-0.6 13.3,-1.2 20.4,-1.3 7.1,0 13.9,-0.3 15,-0.5 4.5,-1 29.1,-3.5 34.7,-3.5 3.2,0 9.1,-0.5 13.1,-1 5.1,-0.8 13.9,-0.8 29.3,0 12.1,0.6 25.8,1.1 30.4,1 6,-0.1 8.6,0.2 9.2,1.2 0.6,0.9 4.6,1.5 13.1,1.9 12.4,0.6 26.7,2.2 36.8,4 3,0.6 11.8,1.5 19.5,2.1 7.7,0.6 14.2,1.5 14.5,1.9 0.6,0.8 10.1,1.8 17.3,1.8 2.6,0 4.7,0.5 4.7,1.1 0,0.5 2.1,1 4.8,1 2.6,0 9,0.4 14.2,1 5.2,0.5 15.6,1.5 23,2.1 7.4,0.6 14.1,1.6 14.8,2.2 0.8,0.6 6.6,1.1 13.5,1.2 7.7,0.1 13.2,0.7 14.7,1.5 2.4,1.3 16.1,2.7 35,3.5 5.8,0.2 12.1,0.9 14,1.5 1.9,0.5 5.8,1 8.7,1 5.6,0 19.9,1.7 22.3,2.7 0.8,0.3 3.2,0.5 5.3,0.4 2.3,-0.2 3.7,0.2 3.7,0.9 0,1.5 5.1,0.4 6.1,-1.2 0.5,-0.8 3.3,-0.9 8.6,-0.4 4.3,0.4 26.2,0.7 48.7,0.6 37.5,0 41.1,-0.2 42.9,-1.8 1.6,-1.5 4.2,-1.7 18,-1.8 14.8,-0.1 16.4,0 18.9,1.9 2,1.5 5,2.2 10.5,2.7 8.8,0.7 19.8,4.6 24.5,8.5 1.6,1.4 3.8,2.5 4.8,2.5 1.8,0 8,5.4 8,6.9 0,0.4 2.4,2 5.3,3.5 5.9,3.2 9.7,6.4 9.7,8.2 0,0.7 0.9,1.5 2,1.9 1.1,0.3 2.8,1.6 3.7,2.9 1,1.3 3,2.9 4.3,3.6 1.4,0.7 3.7,2.6 5.3,4.1 1.5,1.6 3.4,2.9 4.2,2.9 0.9,0 1.9,0.8 2.2,1.8 0.7,1.9 4,6.8 6.1,9 0.6,0.7 1.2,2.2 1.2,3.1 0,1 0.6,2.4 1.4,3 0.8,0.7 1.7,2.6 2,4.4 0.4,1.8 2.2,6.4 4.1,10.2 1.9,3.9 3.5,7.6 3.5,8.3 0,0.7 0.6,2.3 1.4,3.5 0.7,1.2 1.6,4.3 2,6.9 0.3,2.6 1.5,7.4 2.6,10.7 1.1,3.3 2,7.6 2,9.6 0,1.9 0.9,6.2 2.1,9.5 3.8,11.1 8.7,43.3 10.5,69 1.9,27.3 3.3,53.1 2.9,54.2 -0.2,0.7 -0.7,29 -0.9,62.8 -0.3,33.8 -1.1,67.4 -1.7,74.5 -0.6,7.2 -1.1,13.9 -1,15 0.4,8 0,30.8 -0.5,31.7 -0.4,0.6 -0.8,6 -1.1,12.2 -0.2,6.1 -0.8,12.5 -1.3,14.1 -0.4,1.7 -1.1,8 -1.5,14 -0.4,6.8 -1.2,11.6 -2,12.5 -0.7,0.8 -1.5,3.8 -1.8,6.5 -3.5,32.9 -5.5,47.7 -6.6,48.5 -1.2,0.8 -2,6.7 -3,22.6 -0.5,7.7 -1.4,16.7 -2,20 -0.5,3.2 -1.5,9.7 -2.1,14.4 -0.7,4.7 -2,10.6 -3.1,13.2 -1,2.6 -1.9,6.5 -1.9,8.7 0,4.9 -2.1,14.4 -3.3,15.2 -0.5,0.4 -1.1,5.7 -1.2,11.8 -0.2,6.2 -0.8,11.8 -1.3,12.4 -0.5,0.7 -1.3,2.7 -1.7,4.5 -0.3,1.8 -1.3,4.6 -2.2,6.2 -1.9,4 -3,14 -1.4,14 0.6,0 1.1,1.8 1.1,4.5 0,4.3 0.2,4.6 3,5.2 1.7,0.3 3,0.9 3,1.4 0,0.5 2.4,0.9 5.4,0.9 h 5.3 l 0.7,4.6 c 0.9,6.7 0.7,15.4 -0.3,15.4 -0.4,0 -1.1,3.3 -1.4,7.3 -0.3,3.9 -1.1,8.6 -1.8,10.3 -1,2.5 -0.8,4.1 1,10.1 1.8,5.9 2.1,8.5 1.6,14.5 -0.8,8.1 -2.3,12.8 -4.2,12.8 -0.7,0 -1.3,1 -1.3,2.1 0,1.2 -0.8,2.9 -1.8,3.8 -1.1,0.9 -2.2,2.9 -2.6,4.4 -0.6,2.7 1.2,6.2 6.7,12.2 1,1.1 2.6,3.2 3.5,4.8 0.9,1.5 2.1,2.7 2.7,2.7 0.5,0 2.5,2.3 4.4,5 1.8,2.8 3.9,5 4.6,5 0.8,0 1.6,1.4 2,3 0.4,1.7 1.1,3 1.6,3 0.5,0 1.3,0.8 1.6,1.7 0.4,0.9 2.2,3.1 4,4.9 1.8,1.8 3.3,3.9 3.3,4.8 0,0.9 0.7,1.6 1.5,1.6 0.9,0 2,1.1 2.5,2.5 0.9,2.4 12.8,17.7 14.3,18.3 0.4,0.2 0.7,1 0.7,1.7 0,0.7 1.8,2.9 4,4.8 2.2,1.9 4,3.9 4,4.5 0,0.7 0.9,1.2 1.9,1.2 1.1,0 2.3,0.9 2.6,2.1 0.4,1.1 2.4,3.7 4.6,5.7 2.1,2 3.9,4.3 3.9,5 0,0.6 0.5,1.2 1,1.2 0.6,0 1,0.7 1,1.5 0,0.7 0.6,1.8 1.3,2.2 0.7,0.4 1.8,2 2.4,3.6 0.7,1.5 1.7,2.7 2.3,2.7 0.5,0 1,0.7 1,1.5 0,0.8 0.5,1.5 1,1.5 0.6,0 1,0.7 1,1.6 0,1.9 5.5,7.3 8.7,8.5 1.6,0.6 2.3,1.7 2.3,3.6 0,1.6 1.1,4 2.5,5.5 1.4,1.5 2.5,3.2 2.5,3.7 0,0.6 1.1,1.3 2.5,1.7 1.4,0.3 2.5,1.2 2.5,1.9 0,0.8 1.1,2.7 2.5,4.3 1.4,1.7 2.5,3.4 2.5,3.8 0,0.5 0.9,2 2,3.4 1.1,1.4 2,3.2 2,4.1 0,0.9 0.6,1.9 1.3,2.2 2.1,0.8 9.5,10.9 10.2,14 0.4,1.6 1.8,3.5 3.1,4.4 1.3,0.8 2.4,2.2 2.4,2.9 0,0.8 0.4,1.4 1,1.4 0.5,0 1.7,1.5 2.6,3.3 0.9,1.7 2.7,4.4 4,6 1.3,1.5 3.8,5.9 5.6,9.7 1.8,3.9 3.9,7 4.6,7 0.6,0 1.2,0.9 1.2,2 0,1 0.9,2.4 2,3 1.1,0.6 2,1.7 2,2.4 0,0.8 0.7,1.9 1.5,2.6 0.8,0.7 2,3 2.7,5.2 0.6,2.2 1.8,4.2 2.5,4.5 0.7,0.3 1.3,1.6 1.3,2.9 0,1.3 0.4,2.4 1,2.4 1.5,0 6,10.4 6,13.9 0,1.7 0.8,4.1 1.8,5.1 6.2,6.7 5.9,53.3 -0.3,55.7 -0.8,0.3 -1.5,1.1 -1.5,1.9 0,0.8 -1.6,1.6 -4,2 -2.2,0.4 -4,1 -4,1.5 0,0.4 -1.5,0.9 -3.2,1.1 -2.9,0.3 -3.3,0.7 -3.6,3.3 -0.5,5.7 -1.2,7.2 -3.7,8.3 -1.4,0.6 -2.5,1.6 -2.5,2.2 0,1.8 -4.4,8 -5.7,8 -0.7,0 -1.3,0.5 -1.3,1.1 0,2.3 -6,6.6 -10,7.3 -2.2,0.3 -4,1.2 -4,1.9 0,0.7 -0.9,1.8 -2,2.5 -1.1,0.7 -2,2.3 -2,3.7 0,1.8 -0.5,2.5 -2,2.5 -1.1,0 -2,0.3 -2,0.8 0,0.4 -1.5,1.9 -3.4,3.4 -2.7,2.2 -5.4,3 -13.8,4.3 -5.6,0.9 -11,1.9 -11.9,2.4 -2.3,1.3 -20.9,1.3 -20.9,0 0,-0.6 -0.9,-0.7 -2.2,-0.3 -1.2,0.3 -9.7,0.8 -18.8,1 -9.1,0.1 -19.4,0.8 -23,1.4 -5.5,0.9 -44.1,2.4 -57.5,2.2 -43.1,-0.7 -63.9,0 -82,2.8 -9,1.4 -35.1,1.5 -43.5,0.1 -4,-0.6 -14.7,-0.8 -28,-0.4 -29.9,0.9 -37,0.7 -38.7,-1 -1.1,-1.1 -4.6,-1.3 -17.3,-0.9 -11,0.3 -16.4,0.1 -17.3,-0.7 -3,-2.5 -55.7,-1.5 -57.3,1 -0.7,1.2 -5.1,1.1 -13.3,-0.3 -5.7,-1 -7.5,-0.9 -9.5,0.1 -1.7,1 -3.9,1.1 -7.3,0.6 -7,-1.1 -16.8,-0.7 -24.9,1.1 -6,1.3 -11.9,1.4 -37,0.9 -37.6,-0.9 -62.6,-0.6 -64.1,0.7 -0.7,0.5 -4.5,0.9 -8.5,0.8 -4,-0.1 -17.9,0.4 -30.8,1.1 -12.9,0.7 -25.5,1.2 -28,1.1 -2.5,-0.1 -9.2,-0.4 -15,-0.5 -5.8,-0.2 -11.3,-0.7 -12.3,-1.1 -1.9,-0.9 -37.7,0.9 -48.9,2.5 -3.7,0.5 -17.4,0.9 -30.5,0.9 -47.7,-0.1 -85.6,1.3 -99.2,3.6 -9.3,1.6 -43.5,1.7 -53.6,0.2 z m -309,-108.4 c 10.5,-0.8 21.7,-2.1 25,-2.9 5.4,-1.2 20.6,-2.9 35.5,-3.9 3,-0.2 8.7,-0.9 12.5,-1.5 5,-0.9 14.4,-1 32.5,-0.5 14,0.4 33.4,0.6 43,0.5 9.6,-0.1 23.4,0.2 30.5,0.8 20.2,1.6 31.3,2.2 54,2.6 19.3,0.3 29.2,1.2 37,3.5 8.9,2.7 63.8,3.5 97.5,1.5 29.5,-1.8 51.6,-2.2 61.5,-1.3 14.2,1.4 83.6,1.2 91.7,-0.2 3.3,-0.6 9,-1.1 12.7,-1 3.6,0.1 12.5,-0.1 19.6,-0.4 7.2,-0.3 24,-0.8 37.5,-1.1 13.5,-0.3 29.7,-1 36,-1.5 15.1,-1.4 84.1,-0.9 109.8,0.6 6,0.4 11,0.2 14,-0.6 2.6,-0.7 10.8,-1.4 18.2,-1.6 7.4,-0.1 16.9,-0.6 21,-0.9 4.1,-0.4 12.7,-1.1 19,-1.7 11.8,-1 23.8,-0.6 44,1.2 6.3,0.6 16.7,1.3 23,1.7 13.1,0.7 60.9,0.5 62.1,-0.3 0.5,-0.3 8.7,0.1 18.3,0.7 14.2,1 19.1,0.9 26.3,-0.2 11.3,-1.7 28.2,-1.8 40.5,-0.1 7.6,1 12.7,1.1 23.3,0.2 7.5,-0.6 14,-0.8 14.4,-0.6 1.4,0.9 62.5,0.5 75.1,-0.5 14.8,-1.2 15,-1.2 15,-4 0,-2.7 -3.1,-9.9 -4.2,-9.9 -0.4,0 -0.8,-1.2 -0.8,-2.7 0,-2.7 -5.4,-14.5 -7.7,-17.1 -0.7,-0.7 -1.3,-2.2 -1.3,-3.1 0,-1 -0.6,-2.4 -1.4,-3 -0.8,-0.7 -2.2,-3.4 -3.2,-6.2 -1,-2.7 -2.2,-4.9 -2.6,-4.9 -0.4,0 -0.8,-0.7 -0.8,-1.5 0,-1.9 -2.7,-7.4 -4.6,-9.3 -0.8,-0.7 -1.4,-1.9 -1.4,-2.6 0,-0.8 -1.6,-3.1 -3.6,-5.2 -1.9,-2.2 -4.8,-6.5 -6.4,-9.6 -1.6,-3.1 -4.3,-7.6 -6,-9.9 -1.6,-2.3 -3,-4.6 -3,-5.1 0,-0.4 -2,-3.4 -4.5,-6.6 -2.5,-3.1 -4.5,-6.2 -4.5,-6.8 0,-0.5 -1.5,-2.6 -3.2,-4.6 -5.4,-5.8 -9.8,-11.6 -9.8,-12.7 0,-0.6 -0.7,-1.1 -1.5,-1.1 -0.8,0 -1.5,-0.7 -1.5,-1.5 0,-0.8 -0.9,-1.9 -2,-2.5 -1.1,-0.6 -2,-1.7 -2,-2.5 0,-0.9 -1.1,-2.5 -2.5,-3.7 -1.4,-1.2 -2.5,-2.5 -2.5,-3 0,-0.5 -2.2,-3.6 -5,-6.9 -2.7,-3.3 -5,-6.9 -5,-8 0,-1 -0.4,-1.9 -0.9,-1.9 -0.5,0 -1.5,-1.6 -2.1,-3.5 -0.6,-1.9 -1.5,-3.5 -1.8,-3.5 -0.4,0 -1.5,-2.2 -2.5,-5 -1,-2.7 -2.2,-5 -2.6,-5 -0.5,0 -1.1,-1 -1.5,-2.2 -0.3,-1.3 -2.1,-3.9 -3.9,-5.9 -1.9,-2 -4.3,-5.5 -5.4,-7.7 -2.2,-4.5 -10.2,-12 -13.6,-12.6 -5.2,-1.1 -9.6,-1.4 -10.2,-0.8 -0.4,0.4 -7.5,0.8 -15.8,0.8 -45.2,0.5 -87,1.2 -100.7,1.9 -37.2,1.7 -92.7,2.3 -115,1.3 -8.5,-0.4 -34.2,-1 -57,-1.3 -43.1,-0.5 -76,-2 -77,-3.4 -1.1,-1.6 -39.6,-2.7 -87,-2.3 -66,0.5 -91.4,0.3 -110,-1 -8.5,-0.6 -30,-1.2 -47.6,-1.3 -17.7,-0.1 -32.5,-0.5 -33,-0.8 -0.5,-0.3 -10.4,-0.8 -21.9,-1.1 -11.6,-0.4 -24.6,-0.9 -29,-1.3 -4.4,-0.4 -14.7,-0.8 -23,-0.9 -8.2,-0.1 -20.6,-0.5 -27.5,-0.8 -6.9,-0.3 -19.5,-0.8 -28,-1.1 -8.5,-0.3 -20.9,-0.7 -27.5,-1 -21.7,-0.8 -34.7,-0.8 -54.5,0.1 -32.1,1.3 -82.4,0.6 -87.2,-1.4 -1.5,-0.6 -7.5,-1.6 -13.5,-2.3 -5.9,-0.7 -12.5,-2 -14.6,-3 -2,-0.9 -5.6,-2 -8,-2.4 -2.3,-0.4 -5.2,-1.3 -6.4,-2.1 -1.2,-0.8 -3.4,-1.4 -4.8,-1.4 -1.4,0 -4.1,-0.6 -5.9,-1.4 -4.5,-1.9 -9.9,-0.7 -13.7,3 -1.6,1.5 -2.9,3.2 -2.9,3.7 0,0.4 -1.2,2.4 -2.7,4.3 -2.4,3.3 -4.3,6.5 -9.7,16.9 -1.1,2.2 -2.6,4.5 -3.3,5 -1.1,0.9 -7.3,12.4 -12,22 -0.8,1.7 -1.8,3.8 -2.4,4.7 -0.5,1 -0.9,2.6 -0.9,3.7 0,1 -1.6,4.2 -3.5,7 -1.9,2.8 -3.5,5.7 -3.5,6.5 0,0.7 -0.7,2 -1.6,2.7 -0.9,0.7 -2,2.2 -2.5,3.4 -1.6,3.6 -7,12.9 -9.3,16 -1.3,1.7 -2.6,4.2 -2.9,5.6 -0.4,1.5 -2.3,4.6 -4.2,6.9 -1.9,2.3 -3.5,5.1 -3.5,6.1 0,1.1 -0.4,2.7 -0.9,3.7 -0.6,0.9 -2.7,5.3 -4.8,9.7 -2.1,4.4 -4.1,8.2 -4.5,8.3 -0.5,0.2 -0.8,1.5 -0.8,2.8 0,1.3 -0.4,2.4 -0.9,2.4 -0.4,0 -2.3,2.9 -4.2,6.5 -1.8,3.6 -3.7,6.5 -4.1,6.5 -0.4,0 -0.8,0.7 -0.8,1.5 0,0.8 -1.1,2.5 -2.5,3.9 -1.4,1.4 -2.5,2.8 -2.5,3.1 0,0.4 -1.1,2.1 -2.4,3.8 -1.4,1.8 -2.9,4.5 -3.5,6 -0.6,1.5 -2.2,3.2 -3.6,3.7 -1.4,0.5 -2.5,1.5 -2.5,2.3 0,0.7 -1.3,2.8 -3,4.7 -1.6,1.9 -2.9,4.1 -3,4.8 0,0.7 -0.7,1.5 -1.5,1.8 -0.8,0.4 -1.5,1.3 -1.5,2.1 0,0.8 -1.7,3.1 -3.7,5.2 -4.8,4.7 -8.3,8.9 -8.3,9.9 0,0.5 -2.5,3.5 -5.5,6.7 -3,3.3 -5.5,6.3 -5.5,6.7 0,0.5 -0.4,0.8 -1,0.8 -1.7,0 -1.1,2.5 1.1,4.3 2.7,2.4 9,3.3 32.4,4.7 20.4,1.2 22.9,1.4 29,2.7 6.8,1.5 47,1.3 67,-0.3 z m 888,-310.8 c 4.4,-0.1 9.1,-0.7 10.5,-1.3 1.4,-0.6 3.3,-1.4 4.3,-1.7 2.5,-0.8 3.7,-4.8 4.7,-15.6 0.5,-5.2 1.3,-14 1.9,-19.5 2.6,-26 3.3,-41 3.7,-79.5 0.3,-22.8 0.9,-48.2 1.4,-56.5 0.5,-8.2 1.4,-28.5 1.9,-45 0.6,-16.5 1.5,-33.6 2.1,-38.1 0.6,-4.4 1.3,-20.6 1.6,-36 0.5,-22.6 0.3,-30.9 -1.1,-43.9 -1.8,-16.8 -1.9,-32.1 -1.1,-99 0.5,-35.9 1.5,-53.6 3.6,-59.2 0.6,-1.7 1,-4.4 0.8,-6 -0.3,-2.7 -0.5,-2.8 -9.3,-4.1 -12,-1.6 -52.3,-3 -60.5,-1.9 -10.9,1.3 -93.3,1.3 -103.5,-0.1 -4.9,-0.6 -19.1,-1.4 -31.5,-1.7 -12.4,-0.3 -25.2,-1.1 -28.5,-1.7 -4.1,-0.8 -21.2,-1.1 -54.5,-0.9 -82.7,0.5 -153,0.4 -246,-0.3 -64.8,-0.5 -93.6,-0.4 -104.5,0.5 -8.2,0.6 -26.5,1.1 -40.5,1.1 -14,-0.1 -28.2,0.3 -31.5,0.8 -3.3,0.5 -7.6,1.2 -9.5,1.5 -1.9,0.3 -6.8,1.1 -10.8,1.7 -4,0.6 -7.5,1.5 -7.8,1.9 -0.3,0.5 -3.1,0.9 -6.2,0.9 -5.6,0.1 -14.4,1.9 -15.8,3.3 -0.4,0.4 -2,0.7 -3.6,0.7 -1.6,0 -2.8,0.5 -2.8,1.3 0,0.7 -1,1.7 -2.2,2.2 -2,0.9 -2.3,1.7 -2.2,6 0.1,8.2 3.2,34.8 4.3,37.8 0.6,1.5 1.1,9.7 1,18.2 0,8.6 0.2,15.9 0.5,16.3 0.8,1.3 2.8,23.9 3.6,41.7 0.5,9.4 1.6,21.1 2.4,26 0.8,5 2.2,16.9 3.1,26.5 0.9,9.6 1.8,17.7 2,18.1 0.3,0.3 0.7,13.4 1,28.9 0.3,15.6 0.8,28.7 1,29.1 0.9,1.4 2.7,15.8 3.6,29.9 1.3,18.8 1.3,17.8 1,51 -0.1,15.7 0,29.2 0.4,30.1 0.3,0.9 0.1,6.2 -0.5,11.9 -0.8,7.8 -0.7,10.6 0.2,11.7 0.9,1.1 1.2,12.9 1.2,45.2 0.1,40.4 0,43.9 -1.7,45.5 -2.4,2.4 -2.3,9.2 0.2,10.5 5.1,2.8 17.1,4.1 36.1,4 10.7,-0.1 26.3,-0.2 34.5,-0.2 8.3,-0.1 28.3,0.3 44.5,0.7 16.2,0.5 44.1,0.9 62,1.1 37.2,0.3 57.1,1.1 68.5,2.6 6.8,0.9 21.2,1.1 56.5,0.6 3.6,0 12.9,0.2 20.7,0.5 9.4,0.4 14.3,0.2 14.6,-0.5 0.2,-0.7 3.3,-0.6 9.5,0.2 5.1,0.6 9.6,1 10,0.7 0.4,-0.2 13.3,-0.7 28.7,-1 15.4,-0.4 30,-0.9 32.5,-1.2 2.5,-0.3 6.5,0 9,0.6 10.8,2.9 37.2,3.5 122,2.6 4.1,0 9.8,0 12.5,0.1 2.8,0.1 14.7,0.1 26.5,0 28.1,-0.1 69,0.9 69.8,1.8 0.4,0.4 11.3,0.4 24.2,0 12.9,-0.4 27.1,-0.8 31.5,-0.9 z m -811.9,-9.1 c 2.2,-2.4 2.2,-2.7 1.8,-22.1 -0.2,-10.8 -0.9,-21.5 -1.4,-23.7 -0.5,-2.3 -1,-12.3 -1,-22.2 0,-9.9 -0.5,-22 -1.1,-27 -0.5,-4.9 -1.2,-17.1 -1.4,-27 -0.1,-9.9 -0.8,-24.3 -1.5,-32 -0.6,-7.7 -1.3,-18.7 -1.6,-24.5 -0.3,-9.4 -4.1,-63.7 -6.5,-94 -0.5,-6.3 -1.1,-17.6 -1.3,-25 -0.6,-17.3 -1.4,-28.5 -3.3,-44 -0.8,-6.9 -1.9,-16.3 -2.3,-21 -1.2,-11.5 -2.6,-22.9 -5.9,-46 -0.6,-4.1 -1,-9.1 -0.9,-11 0.4,-9.4 -3.8,-49.1 -7.7,-74.5 -1.5,-9.1 -1.6,-14.6 -1.1,-32 0.4,-11.5 0.9,-23 1,-25.5 0.4,-6.2 2.7,-18.3 3.7,-19.4 0.4,-0.5 0.5,-3.7 0.2,-7.1 -0.3,-3.7 -0.1,-7.6 0.6,-9.8 1.1,-3.2 2,-3.9 8.1,-6.2 5.8,-2.2 7.2,-3.2 8.7,-6.3 1,-1.9 3,-4.4 4.4,-5.5 3.7,-2.7 10.9,-3.3 15,-1.3 1.7,0.9 3.9,1.6 4.6,1.6 0.8,0 2,1.3 2.6,3 0.9,2.5 1.7,3 4.4,3 1.8,0 3.3,0.4 3.3,0.9 0,1 5.1,0.2 6.8,-1.2 0.7,-0.5 5.1,-1 9.7,-1.1 4.7,-0.1 8.5,-0.4 8.5,-0.8 0,-0.5 1.1,-0.8 2.4,-0.8 1.4,0 2.8,-0.5 3.2,-1.1 0.4,-0.7 2.3,-0.9 5.3,-0.5 7.6,1.1 34.2,0.4 53.1,-1.5 16,-1.5 136.9,-3.1 158.5,-2 12.2,0.6 137.3,-1.1 141.1,-1.9 3.1,-0.7 9.3,-0.6 21.1,0.5 9.3,0.8 21.3,1.5 26.9,1.5 5.6,0 11.5,0.5 13.3,1.1 2.4,0.8 4.4,0.8 7.9,-0.1 2.8,-0.7 14.2,-1.3 28.7,-1.5 13.2,-0.2 32,-0.8 41.8,-1.5 11.9,-0.8 24.2,-0.9 37,-0.4 10.6,0.4 26.9,0.8 36.2,0.8 9.4,0.1 17.5,0.4 18,0.7 1.3,0.8 26.1,2.1 46.3,2.4 9.4,0.1 15.7,0.6 16,1.3 0.8,1.2 38.1,2.6 59.2,2.2 17,-0.3 16,-0.3 50,0.3 17.6,0.2 29.9,0 32.2,-0.6 2.7,-0.7 8,-0.6 18,0.3 7.9,0.8 21.5,1.4 30.3,1.5 8.8,0 16.6,0.4 17.3,0.8 0.6,0.5 1.2,2.4 1.2,4.3 0,3.4 0,3.4 4.4,3.4 3.2,0 5.3,0.7 7.3,2.3 3.5,3 9.1,5.7 11.5,5.7 1,0 1.8,0.4 1.8,1 0,0.5 1.3,1.6 2.9,2.5 2.1,1 4.3,4.1 7.5,10.2 4.2,8 4.7,9.8 5.8,19.8 2.2,19.9 1.3,33.6 -2.3,36.5 -0.4,0.3 -1,7.5 -1.3,16 -0.5,9.9 -1.5,18.2 -2.7,22.9 -1,4.1 -1.9,9.3 -1.9,11.6 0,2.2 -0.4,4.5 -1,5.1 -1.1,1.1 -2.7,14.3 -3.5,29.9 -0.9,17.1 -1.2,90.6 -0.4,94 0.5,1.7 1,8 1.2,14.1 0.3,6.2 0.7,11.6 1.1,12.2 1.4,2.4 1.5,56.3 0.1,78.2 -1.7,26.4 -1.9,33.8 -0.6,32.5 0.5,-0.6 1.4,-4.8 2,-9.5 0.6,-4.7 2,-13.9 3.1,-20.5 1.2,-6.6 2.5,-14.9 3,-18.5 0.5,-3.6 1.1,-7.2 1.4,-8 0.3,-0.8 1,-5.3 1.6,-10 0.6,-4.7 1.6,-11.9 2.1,-16 0.6,-4.1 1.4,-14.5 1.9,-23 0.5,-8.5 1.6,-19.8 2.4,-25 0.8,-5.2 1.5,-15.1 1.6,-22 0,-6.9 0.5,-19.9 1.1,-29 2.8,-46.5 1.5,-129.7 -2.6,-159 -2.7,-19.5 -3.5,-26.5 -4.1,-36.5 -0.7,-10.4 -5.1,-29.7 -8.5,-37.1 -1,-2.4 -1.9,-4.8 -1.9,-5.3 0,-0.6 -1.1,-3.4 -2.4,-6.3 -1.8,-4 -3.6,-6 -7,-8.2 -2.5,-1.6 -4.6,-3.2 -4.6,-3.5 0,-1.4 -5.9,-4 -12.2,-5.5 -7,-1.6 -20.6,-1.3 -56.8,1.5 -21.1,1.7 -85.9,0.5 -94.5,-1.6 -3.3,-0.9 -11.6,-2 -18.5,-2.5 -12.1,-0.9 -24.4,-2 -46,-4 -5.8,-0.6 -16.1,-1.5 -22.9,-2 -6.8,-0.6 -16.7,-1.7 -22,-2.6 -5.3,-0.8 -15.7,-1.7 -23.1,-2 -21.2,-0.7 -43.1,-2.2 -47.5,-3.3 -2.2,-0.6 -6.1,-1.1 -8.6,-1.1 -2.5,0 -7.2,-0.8 -10.5,-1.9 -6.4,-2 -13.1,-2.9 -32.9,-4.1 -13.4,-0.9 -25.3,-2.2 -36.4,-4.1 -9.3,-1.7 -47.7,-0.3 -60.6,2.2 -5.5,1.1 -13.1,2.2 -17,2.5 -3.8,0.3 -10.8,1.4 -15.5,2.4 -15.2,3.3 -21.2,3.9 -44.5,4.6 -18.2,0.5 -26.3,0.3 -38.5,-1 -17.1,-1.8 -51.6,-3.6 -55.5,-2.8 -1.4,0.2 -4.5,-0.1 -6.8,-0.7 -2.4,-0.6 -17.5,-1.3 -35.7,-1.6 -17.3,-0.3 -35.3,-0.7 -40,-1 -16.6,-0.8 -76.8,-2 -96.5,-1.9 -58,0.5 -122.4,1.4 -125.2,1.9 -1.8,0.3 -3.3,1 -3.3,1.4 0,0.4 -3.3,1.1 -7.2,1.4 -4,0.3 -8.6,1 -10.3,1.6 -1.6,0.5 -5.5,1.5 -8.5,2.2 -3,0.7 -7.5,2.3 -9.9,3.6 -2.4,1.2 -5,2.3 -5.7,2.3 -0.7,0 -1.9,1 -2.5,2.3 -0.7,1.2 -2.2,3.4 -3.4,4.9 -2.2,2.6 -2.3,3.4 -1.9,17.4 0.2,8.4 0.8,15.2 1.4,15.8 0.5,0.5 1,2.1 1,3.3 0,1.3 0.9,4.2 1.9,6.4 1.1,2.2 2.7,7.9 3.6,12.7 0.8,4.8 1.9,10.1 2.4,11.7 2.1,7.6 3,11.4 4,17 0.6,3.3 2,10.1 3.2,15 1.1,5 2.4,12.2 2.9,16 0.9,7.4 2.8,17.7 5.9,33.5 1.1,5.2 2.2,14.9 2.6,21.5 0.3,6.6 1,13.6 1.5,15.5 1.8,7.3 3,20.1 3.5,38.5 0.3,10.5 1,20.6 1.4,22.5 0.8,3.2 1.7,13.7 2.6,32.5 0.4,7.7 2,25.5 3.6,41 0.6,5.5 1.3,17.4 1.5,26.5 0.3,9.1 0.9,31.1 1.5,49 0.6,17.9 1.2,40.8 1.4,51 0.1,10.2 0.5,19.2 0.8,20 0.3,0.8 1.3,7.1 2.3,14 2.2,16 2.2,55.5 -0.1,104 -0.4,7.4 -0.8,16.9 -0.9,21 -0.2,4.1 -1,9.5 -1.9,12 -2,5.4 -2.2,12.2 -0.4,15.2 1.8,3.2 4.5,5.8 6,5.8 0.7,0 1.8,0.5 2.4,1.1 1.3,1.3 17.2,4.8 22,4.9 1.7,0 3.5,0.5 3.8,1 1.3,2 7.7,1.1 10.1,-1.5 z"
       id="path1"
       style="fill:#ffffff" />
    <path
       d="m 731.8,748.5 c -0.5,-0.5 -18.6,-0.9 -40.3,-1.1 -24.1,-0.1 -40.1,-0.6 -40.8,-1.2 -1.4,-1.2 -58.7,-2.1 -58.7,-1 0,2.4 -22.3,-0.8 -27.2,-3.9 -3.4,-2.1 -3.8,-2.8 -3.8,-6.3 0,-2.2 0.5,-4 1,-4 0.6,0 1,-0.7 1,-1.5 0,-0.8 0.6,-2.4 1.3,-3.6 1,-1.7 0.9,-2.2 -0.7,-3.5 -1.1,-0.8 -3.5,-1.4 -5.3,-1.4 -1.8,0 -3.3,-0.4 -3.3,-0.9 0,-0.5 -1.4,-1.3 -3.2,-1.6 -1.7,-0.4 -4.1,-1.9 -5.4,-3.2 -2,-2.1 -2.9,-2.4 -6.1,-1.9 -12.1,1.9 -12.2,1.9 -12.9,0.2 -0.3,-0.9 -1.2,-1.6 -1.9,-1.6 -1.4,0 -3.1,-7.7 -2.3,-10.1 0.4,-1.3 -6.2,-7.9 -8,-7.9 -2.7,0 -4.2,-3.3 -4.2,-8.9 0,-5.5 0.2,-5.9 3.9,-8.9 2.2,-1.8 4.5,-3.2 5,-3.2 0.6,0 1.1,-0.4 1.1,-0.9 0,-0.5 1,-1.3 2.2,-1.7 1.3,-0.4 3.4,-1.9 4.8,-3.3 1.4,-1.4 5.2,-3.9 8.5,-5.6 3.3,-1.6 6.7,-3.5 7.5,-4.2 0.9,-0.6 6.9,-1.4 14,-1.7 6.9,-0.4 14.6,-1.2 17.2,-1.8 3.7,-0.9 7.1,-0.9 15.2,0.1 8.9,1.1 13.1,1 29.2,-0.4 10.7,-1 22,-1.5 26.1,-1.1 4,0.3 9.4,0.2 12,-0.4 12.6,-2.4 39,-4.2 52.3,-3.4 17.3,1.1 55.9,0.6 58.5,-0.6 2.9,-1.4 34.1,-3.3 57,-3.6 21.8,-0.2 38.5,-1 54,-2.4 5.5,-0.5 19,-1.2 30,-1.5 30,-0.8 41.9,-1.4 53.5,-2.5 19.5,-1.9 85.2,-3.9 97.3,-2.9 13.5,1.1 41.5,-0.2 42.6,-1.9 0.7,-1.1 14.5,-2 25.6,-1.5 2.8,0.1 10.6,0 17.5,-0.3 10.9,-0.6 12.9,-0.4 16,1.2 1.9,1 3.7,2.1 4,2.5 0.3,0.3 2.7,0.9 5.5,1.5 3.3,0.6 5.3,1.6 6,2.9 2.8,5.5 3.3,5.8 8.8,6.6 3.1,0.4 6.2,1.2 6.9,1.8 0.7,0.6 2.8,2.4 4.7,4.1 1.8,1.6 3.8,3 4.5,3 1,0 2.8,2.7 9.4,14.3 2.6,4.8 2.9,12.2 0.7,21.2 -0.8,3.3 -1.4,7.3 -1.5,8.8 0,3.9 -3,9.9 -5.1,10.4 -1,0.3 -2.5,1.9 -3.3,3.6 -0.9,1.8 -3.4,4.5 -5.6,6.1 -2.2,1.6 -4.2,3.8 -4.6,4.8 -0.3,1 -1,1.8 -1.5,1.8 -0.5,0 -0.9,0.6 -0.9,1.4 0,1.5 -7.3,6.9 -10.9,8.1 -1.2,0.3 -2.1,1.1 -2.1,1.6 0,1.3 -22.3,1.4 -77,0.4 -11.7,-0.2 -23.8,0.1 -28.3,0.8 -5.6,0.8 -8.4,0.8 -9.6,0 -1.3,-0.8 -2.2,-0.7 -3.6,0.3 -1,0.8 -3.8,1.4 -6.2,1.4 -2.4,0 -5.2,0.5 -6.2,1.2 -1.5,0.9 -3.4,0.9 -8.3,0 -9.2,-1.8 -54,-1.9 -82.8,-0.2 -13.5,0.8 -27.2,1.3 -30.5,1.3 -3.3,-0.1 -10.7,0.3 -16.5,0.9 -5.8,0.6 -28.7,1.2 -51,1.3 -26.8,0.1 -44,0.6 -51,1.5 -5.8,0.8 -16.1,1.4 -23,1.5 -6.9,0.1 -21,0.5 -31.5,1 -10.4,0.4 -19.3,0.4 -19.7,0 z"
       id="path2"
       style="fill:#ffffff" />
    <path
       d="m 642.7,593.4 c -0.5,-0.5 -6.9,-0.7 -14.3,-0.6 -7.5,0.2 -14,-0.1 -14.7,-0.6 -0.7,-0.5 -7.7,-1.2 -15.7,-1.5 -16.2,-0.6 -22.9,-2.2 -27,-6.6 -2,-2.2 -3.9,-2.9 -8.4,-3.5 -4,-0.4 -6.6,-1.4 -8.2,-2.9 -2.2,-2 -2.4,-3 -2.4,-12.2 v -10 h -5.2 c -2.9,0 -6.5,-0.4 -7.9,-0.8 -3,-0.8 -5.9,-5.9 -5.9,-10.4 0,-1.6 -0.4,-3.3 -0.8,-3.9 -1,-1 -3.2,-12.8 -3.2,-16.7 0,-1.4 0.8,-3.9 1.7,-5.5 1.8,-3.2 9.3,-8.2 12.1,-8.2 1,0 3.3,-1.1 5.2,-2.5 1.9,-1.4 4.6,-2.5 6.1,-2.5 1.5,0 3.1,-0.4 3.4,-1 0.3,-0.5 1.9,-1 3.5,-1 1.6,0 3.2,-0.4 3.5,-1 0.3,-0.5 1.5,-1 2.6,-1 1.1,0 4.4,-1.1 7.2,-2.4 8.1,-3.7 28.4,-5.9 66.7,-7.2 10.7,-0.4 20,-1 20.5,-1.4 0.6,-0.4 21,-0.4 45.5,0 24.5,0.4 49.2,0.3 54.8,-0.1 5.7,-0.4 14.8,-0.4 20.1,0 5.4,0.5 11.8,0.7 14.2,0.5 2.4,-0.3 24.7,-1.1 49.4,-2 24.8,-0.8 50,-1.9 56,-2.5 7.7,-0.7 13.4,-0.7 18.9,0 4.5,0.6 15.2,0.9 25,0.5 9.4,-0.3 24.4,-0.1 33.2,0.3 8.9,0.4 17.9,0.5 20,0.1 2.2,-0.3 14.3,-0.9 26.9,-1.2 33.2,-0.9 48.7,-1.6 49.5,-2.1 0.5,-0.3 7.5,0 15.7,0.5 8.1,0.6 18.2,1.2 22.3,1.3 5.2,0.2 8.4,0.8 10,2 1.4,0.9 3.2,1.7 4.1,1.7 0.9,0 2.7,1.3 4,2.9 1.6,1.9 5.4,4.1 10.4,6.1 4.3,1.7 8.5,4 9.3,5.1 0.7,1 2,1.9 2.8,1.9 0.8,0 2.4,1.1 3.6,2.5 1.4,1.6 3.6,2.6 6.7,3 7.1,0.9 8.6,1.9 11.1,7.2 2,4.3 2.3,6.6 2.6,22.3 0.2,9.6 0,18 -0.4,18.5 -0.4,0.6 -2.7,1.9 -5.2,3 -5.6,2.3 -7.9,5.1 -8,9.3 0,3.1 -0.1,3.2 -4.4,3.2 -2.6,0 -4.8,0.6 -5.6,1.5 -0.7,0.8 -1.7,1.5 -2.3,1.5 -0.6,0 -2.2,1.3 -3.6,2.8 -3.1,3.3 -7.1,5.2 -11.1,5.2 -1.6,0 -3.5,0.6 -4.2,1.4 -0.8,0.7 -3.8,1.7 -6.6,2.1 -2.9,0.4 -5.4,1 -5.7,1.5 -0.2,0.4 -11.8,0.5 -25.7,0.3 -43.6,-0.8 -52.6,-0.8 -78.3,0.2 -13.7,0.5 -26.8,0.8 -29,0.8 -15.6,-0.4 -52,-2.4 -61.5,-3.3 -6.3,-0.7 -16.4,-1 -22.5,-0.7 -6,0.3 -11.8,0.3 -12.7,-0.1 -0.9,-0.4 -7.2,-0.4 -14,0 -13.5,0.8 -22.3,1.2 -52.1,2.6 -12.5,0.6 -20.2,1.3 -20.9,2 -1.4,1.4 -7.8,1.6 -7.8,0.4 0,-1.7 -135.8,-2.1 -136.9,-0.4 -0.8,1.3 -15.3,2.6 -16.4,1.6 z"
       id="path3"
       style="fill:#ffffff" />
    <path
       d="m 553,453.5 c -3.6,-1.3 -8.7,-2.4 -11.3,-2.4 -2.6,-0.1 -5.3,-0.5 -6,-1.1 -0.7,-0.5 -3,-2.5 -5.2,-4.5 -2.2,-1.9 -4.6,-3.5 -5.3,-3.5 -0.7,0 -3.1,-1.5 -5.2,-3.2 -4.4,-3.6 -5,-6.5 -2.6,-11.4 2.3,-4.7 0.2,-10.3 -5,-13.2 -1.7,-1 -3.3,-6.8 -3.4,-12.5 0,-4.6 -2.4,-9 -5.7,-10.8 -3,-1.6 -5.3,-6.3 -5.3,-10.7 0,-3 0.9,-4.4 5,-8.4 2.7,-2.6 5.9,-4.8 7,-4.8 1.1,0 2,-0.4 2,-1 0,-1.4 9.7,-4 15,-4 2.5,0 5.1,-0.5 5.6,-1 0.6,-0.6 6,-1.5 12,-2 6,-0.6 12.9,-1.4 15.4,-2 2.5,-0.5 7.7,-0.9 11.7,-1 3.9,0 7.4,-0.4 7.7,-0.9 0.4,-0.5 3,-1.2 5.9,-1.6 2.8,-0.3 9,-1.3 13.7,-2 18.1,-3 79.1,-2.7 111,0.5 10.2,1 65.6,2.2 114,2.4 28.6,0.1 34.6,0.7 38.5,3.6 0.6,0.4 2.8,1 5,1.2 3.5,0.5 10.1,3.2 17.6,7.3 1,0.5 2,1.7 2.2,2.6 0.3,1 2,2.5 3.8,3.4 1.9,1 3.8,2.4 4.2,3.1 0.4,0.8 1.3,1.4 2,1.4 4,0 14.7,12.8 14.7,17.6 0,0.7 0.5,1.4 1,1.6 2.9,0.9 3.3,27.8 0.5,27.8 -0.7,0 -2,1.1 -2.8,2.4 -2.9,4.4 -4.8,5.6 -8.6,5.6 -2.5,0 -4.4,0.7 -5.6,2 -1.3,1.4 -3.1,2 -6.2,2 -4.1,0 -4.3,0.1 -4.3,3 0,1.7 -0.4,3 -1,3 -0.5,0 -1,0.7 -1,1.5 0,0.9 -0.9,1.5 -2.2,1.5 -1.3,0 -3.8,0.9 -5.6,2 -1.8,1.1 -4,2 -4.9,2 -0.9,0 -2.5,0.7 -3.4,1.6 -1.6,1.5 -6.3,1.7 -37.1,2.1 -19.4,0.2 -44.1,0 -54.8,-0.6 -10.7,-0.6 -25.8,-1 -33.5,-0.9 -25.3,0.5 -38.8,0.2 -56.5,-1.1 -20.1,-1.5 -64.8,-0.4 -67.3,1.7 -1.4,1.2 -24,2.9 -47.2,3.7 -10.8,0.4 -12.7,0.1 -18.5,-2 z"
       id="path4"
       style="fill:#ffffff" />
  </g>
</svg>
