<?xml version="1.0" encoding="UTF-8" standalone="no"?>
<svg
   version="1.0"
   width="1566px"
   height="1600px"
   viewBox="0 0 1566 1600"
   preserveAspectRatio="xMidYMid meet"
   id="svg6"
   sodipodi:docname="python.svg"
   inkscape:version="1.3 (0e150ed, 2023-07-21)"
   xmlns:inkscape="http://www.inkscape.org/namespaces/inkscape"
   xmlns:sodipodi="http://sodipodi.sourceforge.net/DTD/sodipodi-0.dtd"
   xmlns="http://www.w3.org/2000/svg"
   xmlns:svg="http://www.w3.org/2000/svg">
  <defs
     id="defs6" />
  <sodipodi:namedview
     id="namedview6"
     pagecolor="#ffffff"
     bordercolor="#000000"
     borderopacity="0.25"
     inkscape:showpageshadow="2"
     inkscape:pageopacity="0.0"
     inkscape:pagecheckerboard="0"
     inkscape:deskcolor="#d1d1d1"
     inkscape:zoom="0.1475"
     inkscape:cx="779.66102"
     inkscape:cy="800"
     inkscape:window-width="1280"
     inkscape:window-height="449"
     inkscape:window-x="0"
     inkscape:window-y="33"
     inkscape:window-maximized="0"
     inkscape:current-layer="svg6" />
  <g
     fill="#000000"
     id="g3"
     style="fill:#ffffff;fill-opacity:1">
    <path
       d="M656.5 1538 c-1.6 -0.4 -4.8 -0.8 -7.1 -0.9 -2.2 0 -7.4 -1 -11.5 -2.1 -4.1 -1.1 -11.1 -2.3 -15.7 -2.7 -4.6 -0.3 -8.9 -1.2 -9.6 -1.9 -0.7 -0.6 -4.8 -1.5 -9.2 -1.9 -5.1 -0.5 -8.8 -1.4 -10.6 -2.6 -1.4 -1.1 -3.5 -1.9 -4.7 -1.9 -1.1 0 -4.4 -1.1 -7.3 -2.4 -7 -3.2 -14.3 -5.6 -17.3 -5.6 -1.3 0 -2.6 -0.4 -2.9 -0.9 -0.3 -0.5 -2.1 -1.2 -3.9 -1.5 -1.8 -0.3 -4.2 -1.4 -5.3 -2.4 -1 -0.9 -3 -2.3 -4.4 -2.9 -1.4 -0.7 -3.2 -1.7 -4 -2.2 -1.8 -1 -5.2 -2.4 -10 -4.1 -1.9 -0.7 -4.9 -1.9 -6.7 -2.6 -1.7 -0.8 -3.7 -1.4 -4.5 -1.4 -0.7 0 -2.4 -0.9 -3.8 -2 -1.4 -1.1 -3.7 -2 -5.2 -2 -1.6 0 -2.8 -0.4 -2.8 -1 0 -0.5 -0.9 -1 -2 -1 -1.1 0 -2 -0.4 -2 -1 0 -0.5 -0.6 -1 -1.2 -1 -0.7 0 -3.3 -1 -5.8 -2.1 -5.3 -2.6 -9.1 -4.2 -14 -6 -1.9 -0.7 -4.2 -1.8 -5 -2.5 -0.8 -0.7 -2.8 -1.6 -4.4 -2 -1.6 -0.4 -3.1 -1.5 -3.4 -2.6 -0.2 -1.1 -1.4 -2.4 -2.6 -2.9 -2.8 -1.2 -5.6 -3 -8 -5.3 -1.2 -1 -4.6 -3 -7.6 -4.3 -8.9 -4 -10 -4.6 -10 -5.6 0 -1.3 -4 -4.5 -8 -6.3 -1.9 -0.8 -4.7 -2.8 -6.1 -4.3 -1.4 -1.6 -3.5 -3.2 -4.6 -3.5 -1.2 -0.4 -2.3 -1.6 -2.6 -2.6 -0.3 -1.1 -1.2 -2 -2.1 -2 -0.9 0 -1.6 -0.8 -1.6 -1.9 0 -1.3 -0.9 -2.1 -3 -2.6 -1.7 -0.4 -3.6 -1.5 -4.3 -2.6 -0.6 -1 -1.8 -1.9 -2.5 -1.9 -2.8 0 -10.2 -8.7 -14.4 -16.7 -0.6 -1.3 -1.7 -2.3 -2.5 -2.3 -0.7 0 -1.3 -0.5 -1.3 -1.1 0 -0.6 -2 -3.1 -4.5 -5.5 -2.4 -2.4 -5.9 -6.5 -7.6 -9.1 -1.8 -2.7 -5.2 -6.7 -7.6 -9 -2.4 -2.2 -4.3 -5 -4.3 -6.1 0 -1.1 -0.8 -3.5 -1.7 -5.4 -3 -6 -3.3 -6.8 -3.3 -8 0 -0.7 -1.3 -2.6 -2.8 -4.3 -1.5 -1.6 -3.4 -4.9 -4.1 -7.2 -0.8 -2.3 -2 -4.4 -2.7 -4.7 -0.8 -0.3 -1.4 -1.2 -1.4 -2.1 0 -0.8 -0.5 -1.5 -1 -1.5 -0.7 0 -1 -1.9 -0.9 -4.5 0.2 -2.5 -0.3 -5.1 -0.9 -5.7 -0.7 -0.7 -1.2 -2.5 -1.2 -4 0 -1.5 -0.4 -2.8 -1 -2.8 -0.5 0 -1 -0.5 -1 -1 0 -0.6 -0.8 -2 -1.9 -3.1 -1.1 -1.2 -2.5 -5.6 -3.6 -11.2 -1 -5.1 -2.4 -10.1 -3.1 -11.2 -0.8 -1.1 -1.4 -3.5 -1.4 -5.5 0 -1.9 -0.7 -5.7 -1.5 -8.4 -1.7 -5.7 -2 -10.6 -0.5 -10.6 1.6 0 1.1 -5.3 -0.9 -9.6 -1.6 -3.3 -1.8 -5.9 -1.6 -16.4 0.3 -14.9 1.5 -27 2.6 -27 1.7 0 0.9 -5.9 -0.8 -6.8 -1 -0.5 -8.1 -1.2 -15.8 -1.5 -11.3 -0.4 -15.6 -1 -22.4 -3.1 -4.7 -1.4 -10.2 -2.6 -12.3 -2.6 -2.1 0 -3.8 -0.4 -3.8 -1 0 -0.5 -2.1 -1 -4.7 -1 -5 0 -11.1 -1.8 -12.8 -3.6 -0.5 -0.7 -4.8 -2.4 -9.5 -3.9 -9.4 -3.1 -10.9 -3.6 -16 -5.8 -1.9 -0.8 -6.1 -1.8 -9.2 -2.2 -3.2 -0.4 -6.3 -1.3 -6.9 -2.1 -0.6 -0.8 -2.1 -1.4 -3.3 -1.4 -1.2 0 -3.1 -0.6 -4.2 -1.4 -1.1 -0.8 -4.1 -1.7 -6.7 -2.1 -3 -0.5 -4.7 -1.2 -4.7 -2.1 0 -0.8 -0.7 -1.4 -1.5 -1.4 -0.8 0 -2.3 -0.9 -3.2 -2 -1 -1.1 -2.5 -2 -3.5 -2 -1 0 -1.8 -0.5 -1.8 -1 0 -1.6 -5.9 -4.8 -10.2 -5.5 -2.3 -0.4 -3.8 -1.2 -3.8 -2.1 0 -0.8 -0.8 -1.4 -1.7 -1.4 -2.2 -0.1 -5.3 -2.3 -5.3 -3.9 0 -0.6 -0.5 -1.1 -1.1 -1.1 -0.6 0 -2.5 -1.1 -4.3 -2.5 -1.8 -1.4 -3.7 -2.5 -4.2 -2.5 -1.3 0 -12.4 -10.6 -12.4 -11.8 0 -0.5 -1.1 -1.4 -2.5 -2 -1.4 -0.6 -2.5 -1.6 -2.5 -2.2 0 -0.5 -0.6 -1 -1.3 -1 -0.7 0 -2 -0.8 -2.9 -1.7 -1 -1 -3.5 -3.4 -5.8 -5.3 -2.2 -1.9 -8.4 -7.9 -13.7 -13.3 -5.4 -5.3 -10.6 -10 -11.5 -10.3 -1 -0.3 -1.8 -1 -1.8 -1.6 0 -1.3 -4.1 -4.7 -5.7 -4.8 -0.7 0 -1.3 -0.7 -1.3 -1.5 0 -0.8 -0.7 -1.5 -1.5 -1.5 -0.8 0 -1.5 -0.9 -1.5 -2 0 -1.1 -0.4 -2 -1 -2 -0.5 0 -1 -0.8 -1 -1.7 -0.1 -1 -1.4 -3.4 -3 -5.3 -1.7 -1.9 -3 -4 -3 -4.7 0 -0.7 -0.7 -1.3 -1.5 -1.3 -0.8 0 -1.5 -0.5 -1.5 -1.2 0 -1.1 -2.4 -3.9 -10.2 -11.8 -1.8 -1.8 -2.8 -3.9 -2.8 -5.8 0 -3 -2.8 -9.2 -4.2 -9.2 -0.5 0 -0.8 -1.4 -0.8 -3.1 0 -4.7 -2.2 -16.9 -3.1 -16.9 -0.4 0 -1.1 -1.5 -1.4 -3.2 -0.8 -3.7 -6.3 -16 -7.5 -16.8 -0.5 -0.3 -1.1 -2.3 -1.5 -4.5 -0.9 -5.1 -4.5 -16.7 -5.6 -18.1 -1.2 -1.6 -3.1 -16.3 -3.6 -29.1 -0.3 -6.2 -0.9 -11.3 -1.4 -11.3 -1.3 0 -1.1 -6.8 0.1 -7.2 0.7 -0.2 1.2 -7.1 1.5 -17.8 0.5 -17.3 1.6 -83.1 1.4 -86 0 -0.8 -0.2 -8.7 -0.5 -17.5 -0.2 -8.8 -0.5 -18 -0.6 -20.5 -0.1 -2.5 0.6 -15.5 1.5 -29 1.8 -26.1 3.4 -40.8 7.6 -67 0.5 -3 1.4 -9.3 2 -14 0.8 -5.8 2.2 -10.7 4.5 -15.5 1.8 -3.8 4.6 -9.7 6.1 -13 3 -6.4 7.5 -13.4 8.7 -13.5 1.1 0 5.4 -4.6 6.1 -6.4 0.4 -0.9 2 -1.9 3.6 -2.2 1.7 -0.4 4.4 -1.9 6.2 -3.5 1.8 -1.6 4.1 -3.1 5.1 -3.5 1 -0.3 1.8 -1 1.8 -1.5 0 -0.5 0.8 -1.3 1.8 -1.6 0.9 -0.4 3.1 -1.7 4.8 -3 1.7 -1.2 5.9 -3.8 9.5 -5.7 3.5 -1.8 8.4 -4.5 10.9 -6 2.5 -1.4 5.3 -2.6 6.4 -2.6 1 0 2.7 -1.1 3.7 -2.4 1 -1.3 3.5 -2.7 5.4 -3 1.9 -0.4 4.8 -1.9 6.4 -3.4 3.7 -3.5 6.6 -5.2 9 -5.2 1.1 0 2.3 -0.4 2.6 -1 0.3 -0.5 1.5 -1 2.6 -1 1.1 0 2.2 -0.6 2.5 -1.4 0.3 -0.8 2.1 -1.7 4 -2 1.9 -0.4 3.4 -1 3.4 -1.5 0 -0.4 1.9 -1.3 4.2 -2 2.4 -0.7 7.8 -3 12.2 -5.2 4.3 -2.1 8.5 -3.9 9.2 -3.9 0.8 0 1.4 -0.6 1.4 -1.3 0 -0.7 2.6 -2.1 6 -3.1 3.3 -1 6 -2.2 6 -2.7 0 -0.5 0.7 -0.9 1.5 -0.9 0.8 0 1.5 -0.4 1.5 -1 0 -0.5 0.9 -1 2 -1 2.7 0 10 -3 10 -4.1 0 -0.5 1 -0.9 2.1 -0.9 1.2 0 3.8 -0.9 5.8 -1.9 7.4 -3.9 20.9 -10.1 22 -10.1 0.6 0 1.1 -0.3 1.1 -0.8 0 -0.4 1.8 -1.3 3.9 -1.9 2.2 -0.7 6.5 -2.4 9.7 -3.9 3.1 -1.4 7.2 -2.8 9 -3.1 1.9 -0.3 3.4 -0.9 3.4 -1.4 0 -0.4 1.4 -1.1 3.2 -1.4 3 -0.7 6.3 -2.3 13.3 -6.5 1.7 -1 4.6 -2.1 6.5 -2.5 1.9 -0.4 4.1 -1.1 5 -1.5 3.1 -1.7 8.8 -4 9.7 -4 0.4 0 2 -0.6 3.5 -1.4 1.5 -0.8 4 -1.7 5.7 -2.1 1.6 -0.3 3.5 -1.2 4.1 -2 0.6 -0.8 2.5 -1.7 4.1 -2 1.6 -0.4 3.1 -1.1 3.4 -1.6 0.4 -0.5 1.5 -0.9 2.6 -0.9 1 0 1.9 -0.4 1.9 -1 0 -0.5 0.8 -1 1.8 -1 0.9 0 3.2 -0.9 5 -2 1.8 -1.1 4.4 -2 5.7 -2 1.4 0 5.1 -0.9 8.2 -2 3.2 -1.1 6.8 -2 8 -2 1.3 0 2.3 -0.4 2.3 -1 0 -0.5 1.6 -1 3.5 -1 1.9 0 3.5 -0.4 3.5 -0.9 0 -0.5 1.5 -1.2 3.3 -1.6 3.9 -0.8 12.5 -3.4 15.2 -4.5 1.1 -0.5 3.8 -1.1 6 -1.5 2.2 -0.4 4.9 -1.2 6 -2 2.4 -1.5 11 -3.9 23.9 -6.6 4.9 -1.1 9.4 -2.3 10 -2.8 1.4 -1.1 14.6 -3.7 26.6 -5.2 5.2 -0.6 11.6 -1.8 14.2 -2.5 5.1 -1.6 5.4 -2.7 1.8 -6.9 -2.9 -3.6 -4 -7.5 -4 -14.5 0 -5.7 -0.5 -7.8 -2.7 -11.7 -4.1 -7.3 -4.2 -20.7 -0.3 -66.8 1.3 -14.9 3.4 -57.1 3.6 -72.5 0.1 -6.3 0.7 -14.2 1.3 -17.5 0.6 -3.3 1.6 -8.8 2 -12.2 0.5 -3.4 1.6 -8.3 2.4 -11 0.8 -2.6 2.2 -10.2 3.2 -16.8 0.9 -6.6 2 -15 2.5 -18.7 0.6 -3.7 1 -12.4 1 -19.5 0 -20.2 5.3 -41.6 11.8 -48.2 2 -2 5.2 -5.9 7.1 -8.7 1.8 -2.8 4.3 -5.5 5.5 -6 1.1 -0.5 3.3 -2.7 4.8 -4.9 4 -6.1 17.5 -18.9 25.4 -24.1 6.5 -4.3 14.4 -7.7 25.9 -10.9 8.8 -2.5 13.9 -4.1 16.5 -5.2 1.4 -0.6 4.3 -1.6 6.5 -2.4 2.2 -0.7 4.5 -1.6 5 -2 0.6 -0.4 2.8 -1 5 -1.4 2.2 -0.4 6.6 -1.5 9.8 -2.6 3.1 -1 6.3 -1.9 7.1 -1.9 0.7 0 2.7 -0.7 4.5 -1.6 1.8 -0.9 5.8 -2.2 8.9 -2.9 9.9 -2.4 23.1 -7.3 34.7 -13 15.6 -7.6 27.6 -10.4 50.9 -11.5 9.8 -0.5 19.9 -1.3 22.5 -1.9 4.2 -0.9 12.7 -1.5 65.1 -4.1 9.1 -0.5 22.1 -1.3 29 -1.9 7.1 -0.6 29.2 -0.9 51.5 -0.7 29.4 0.3 42.1 0 52 -1.1 28.9 -3.2 46.4 -2.8 74 1.6 7.2 1.1 17.7 2.1 23.5 2.1 7.2 0 14.2 0.8 22.2 2.5 6.5 1.3 14.6 2.7 18 3 3.5 0.4 8.3 1.3 10.8 2 15.8 4.8 21.6 5.7 36.5 5.9 14.7 0.3 23 1.4 29 4.2 1.7 0.7 5.5 2.4 8.5 3.7 3 1.3 6.1 3.1 6.9 4 0.7 1 2 1.7 2.7 1.7 0.7 0 5.3 3.7 10.1 8.2 4.9 4.5 12.3 11.4 16.6 15.5 4.4 4 8.3 7.3 8.7 7.3 0.5 0 2.4 1.4 4.2 3.1 1.8 1.7 4.6 3.7 6.3 4.6 1.6 0.9 10.2 8.9 19.1 17.9 13.7 13.9 16.4 17.2 18.3 22 1.2 3.1 3.5 7.3 5.1 9.4 1.7 2.1 3 4 3 4.4 0 1.2 5.2 11.3 7.5 14.5 1.4 1.9 2.5 4.5 2.5 5.8 0 1.3 1.3 4.7 2.9 7.6 1.6 2.8 4.2 9.5 5.6 14.7 1.5 5.2 3.8 11.9 5.1 14.8 1.3 2.9 2.4 5.6 2.4 6 0 0.4 2 7 4.4 14.7 4.9 15.9 8.6 30.8 8.6 35.2 0 1.6 0.7 5.2 1.5 7.9 0.8 2.7 2.4 11.7 3.5 19.9 1.4 9.9 2.9 16.9 4.6 20.6 2.1 5 2.4 7.1 2.4 17.9 0 6.8 0.5 15 1.1 18.4 0.8 4.1 0.8 9.4 0.2 16.6 -0.7 7.9 -0.6 12 0.5 17 1.3 6.6 3.4 29.2 3.5 38.5 0.1 7.7 -1 25 -2.2 35 -2.4 20.4 -3 27.6 -3.3 39.5 l-0.3 12.4 8.5 1.2 c9.5 1.2 13.1 2.8 17.4 7.3 1.7 1.7 3.5 3.1 4.2 3.1 0.7 0 1.9 0.8 2.6 1.8 0.7 1 3.8 3.6 6.8 5.7 3 2 6.4 4.6 7.5 5.6 1.1 1.1 3.2 2.9 4.8 4 1.5 1.1 3.9 4.2 5.4 6.7 1.5 2.6 5.5 7.5 9 10.8 3.5 3.4 6.3 6.7 6.3 7.4 0 2.5 3.5 8.6 6.3 10.9 1.8 1.5 5.3 7.4 8.8 15 3.3 6.9 6.7 13.3 7.6 14.3 4.3 4.8 12.2 28.9 13.3 40.4 0.4 5.1 1.3 10.7 1.9 12.5 4.2 13.6 5.6 17.5 6.3 18.4 0.4 0.5 0.8 4.5 0.8 9 0 4.4 0.7 10.5 1.6 13.5 0.8 3 2.2 9.1 3 13.5 0.8 4.4 2.2 10 3.1 12.5 3.1 8.3 4.3 17.5 5.3 40.5 1.1 24.4 2.5 43.1 4 53 0.6 3.3 1 8 1 10.5 0 2.5 0.6 5.5 1.4 6.5 1.4 2 2.1 18 1.7 36.8 -0.1 4.3 0.4 10.8 1 14.4 1.4 7.8 0.7 12.8 -2.8 20.2 -1.9 4 -2.9 8.1 -3.4 14.1 -0.4 4.7 -1.4 10.8 -2.3 13.5 -0.9 2.8 -1.6 8.2 -1.7 12 0 3.9 -0.4 9.3 -0.9 12 -2.1 13.4 -6.4 33.4 -7.8 37 -3.6 9.2 -7.1 16.2 -9.4 19 -1.4 1.7 -3.6 5.5 -4.8 8.5 -1.2 3 -3.1 7.3 -4.1 9.6 -1.1 2.2 -1.9 4.5 -1.9 5.1 0 0.6 -6 6.9 -13.3 13.9 -7.3 7.1 -16.5 17.2 -20.4 22.4 -3.9 5.3 -8.2 10.2 -9.6 10.9 -1.4 0.7 -5.3 4.3 -8.8 7.9 -4.2 4.3 -8.2 7.3 -11.9 8.9 -11.3 5 -25.6 12.7 -29.5 15.9 -2.2 1.8 -5.6 5.3 -7.5 7.8 -3.6 4.6 -4.4 5.1 -14.5 8.1 -3.3 1 -9.4 3.6 -13.5 5.7 -19.3 9.8 -22.2 10.9 -29.5 11.5 -3.8 0.2 -8.7 1.1 -10.9 1.9 -2.1 0.8 -6.8 1.9 -10.5 2.4 -3.6 0.6 -10 1.6 -14.1 2.5 -4.1 0.8 -10.6 1.9 -14.5 2.5 -9.9 1.6 -10.1 1.7 -8.2 3.8 0.9 0.9 2.3 5.1 3.1 9.2 0.9 4.1 2.2 8.1 3.1 8.9 0.8 0.8 3.3 1.7 5.7 2 4.2 0.6 4.3 0.7 7.8 8.6 1.9 4.4 4.7 10.1 6.1 12.6 2.5 4.4 5.9 16.3 7.4 25.4 0.4 2.1 1.3 5.1 2 6.5 0.8 1.5 1.9 7.1 2.5 12.6 0.6 5.4 1.5 12.6 2.1 15.9 0.5 3.3 1.2 10.3 1.5 15.5 0.7 12.5 -1 19.7 -7.5 31 -2.8 4.8 -5.1 9.2 -5.1 9.8 0 0.5 -2 3.7 -4.5 6.9 -6.6 8.9 -11.3 17.8 -14.7 27.7 -1.6 5 -4.3 11.3 -5.9 14.1 -1.6 2.8 -2.9 6.3 -2.9 7.6 0 5.9 -12.8 21.5 -24.6 30.1 -8.6 6.4 -15.4 10.8 -16.4 10.8 -0.4 0 -1 0.3 -1.2 0.8 -0.1 0.4 -3.4 2.2 -7.3 4.1 -3.8 1.8 -7.7 3.7 -8.5 4.2 -8.5 4.8 -28 13.9 -29.8 13.9 -1.2 0 -3 0.4 -4 0.9 -0.9 0.6 -4.2 1.7 -7.2 2.7 -3 0.9 -6.8 2.4 -8.5 3.3 -3 1.7 -4.4 2.1 -18.5 6.2 -12 3.4 -13.1 3.7 -21.5 5.4 -4.4 1 -9.1 2.1 -10.5 2.6 -1.4 0.4 -5 1.1 -8 1.5 -3 0.3 -7.1 1.3 -9 2.1 -1.9 0.8 -6.6 2.1 -10.5 2.8 -3.8 0.8 -11.3 2.6 -16.5 4 -5.2 1.4 -15.8 3.7 -23.5 5.2 -7.7 1.4 -14.3 3.1 -14.6 3.6 -0.4 0.5 -4.5 1.1 -9 1.3 -4.6 0.2 -17 0.8 -27.6 1.4 -10.6 0.7 -19.7 0.9 -20.2 0.5 -2 -1.2 -20.1 2.9 -20.1 4.6 0 0.3 -3 0.9 -6.6 1.2 -4.5 0.4 -7 1.2 -7.9 2.3 -0.9 1.3 -2.2 1.6 -5.9 1.2 -2.5 -0.3 -4.9 -0.2 -5.2 0.3 -0.3 0.5 -2.9 0.9 -5.7 0.9 -2.9 0 -6.1 0.6 -7.2 1.4 -1.1 0.7 -3.9 1.7 -6.2 2.1 -2.4 0.4 -4.3 1 -4.3 1.4 0 0.4 -11.8 1.3 -26.2 2 -14.4 0.7 -27.3 1.7 -28.7 2.2 -1.4 0.6 -6.6 0.9 -11.6 0.8 -9.3 -0.3 -15.5 0.6 -15.5 2.2 0 0.5 -7.5 0.8 -17.2 0.6 -15.1 -0.2 -30 0.6 -57.5 2.9 -4 0.4 -7.3 1 -7.3 1.5 0 1 -15.4 0.9 -19.5 -0.1z m61 -123 c5.5 -0.5 15.9 -1.2 23 -1.5 7.2 -0.3 15.5 -1 18.5 -1.5 3 -0.6 11.4 -1.4 18.5 -1.9 7.2 -0.5 16.6 -1.6 21 -2.4 9.7 -1.9 26 -4.4 33.5 -5.2 3 -0.4 7.1 -1.1 9 -1.6 1.9 -0.6 6.7 -1.6 10.5 -2.4 3.9 -0.7 8.8 -1.8 11 -2.4 2.2 -0.5 8.5 -1.6 14 -2.5 5.5 -0.8 16.8 -2.6 25 -3.9 22.4 -3.7 34.8 -5.1 39.1 -4.4 4.9 0.8 30.3 -3.2 32.7 -5.1 0.7 -0.5 4.1 -1.3 7.7 -1.6 10.6 -1.2 45.8 -9.1 48.9 -11.1 0.5 -0.3 4.6 -1.2 9 -1.9 5.5 -1 11.2 -2.9 17.4 -5.9 10.3 -5.1 19.4 -8.7 21.8 -8.7 2.7 0 13.5 -6.2 22.9 -13.2 17.7 -13.2 20.2 -15.4 25 -22.5 2.8 -4.1 6.1 -9.6 7.4 -12.1 1.2 -2.6 4.8 -8.9 8 -14 4.9 -8 6 -10.8 8.1 -20.2 1.3 -6.1 3 -12 3.6 -13.2 1.6 -3 2.2 -30.3 0.8 -36.5 -0.6 -2.6 -1.6 -8.9 -2.3 -14 -0.7 -5 -1.8 -9.9 -2.6 -10.8 -1.1 -1.4 -3 -1.5 -12.4 -1.1 -57.4 2.6 -131.1 2.9 -172.6 0.8 -9.8 -0.6 -21.7 -0.6 -27 -0.1 -6.2 0.5 -12.5 0.4 -18.2 -0.3 -8.9 -1.2 -9.2 -1.2 -34.8 2.8 -8.6 1.3 -11.5 1.3 -17 0.3 -3.6 -0.6 -7 -1.6 -7.7 -2.1 -0.6 -0.5 -4.1 -1.3 -7.7 -1.9 -9.8 -1.3 -14.6 -3.6 -16.2 -7.6 -0.8 -1.8 -1.9 -3.3 -2.4 -3.3 -0.6 0 -1 -0.6 -1 -1.4 0 -1.6 -1.4 -2.1 -8 -3.1 -7.2 -1.1 -11.3 -2.7 -15 -6.2 -1.9 -1.8 -3.8 -3.3 -4.3 -3.3 -0.4 0 -1.9 -1.2 -3.4 -2.7 -2.3 -2.5 -2.4 -3.3 -1.9 -8.2 0.7 -5.8 2.1 -9.1 3.8 -9.1 0.6 0 2.1 -1 3.3 -2.2 3.5 -3.6 10.3 -8.1 19 -12.8 4.4 -2.4 9.6 -5.7 11.6 -7.4 2 -1.7 7.7 -4.9 12.5 -7 4.9 -2.2 10.7 -4.7 12.9 -5.7 2.2 -1 6.3 -3.4 9 -5.3 2.8 -2 8.2 -4.6 12 -5.8 3.9 -1.2 7.6 -2.6 8.3 -3.1 2.9 -2.3 28.3 -7.1 49.2 -9.5 12.1 -1.3 27.8 -1.6 93.5 -1.6 45.7 -0.1 79.6 -0.5 80.4 -1 0.8 -0.5 10 -1 20.5 -1 16.8 -0.1 19.8 -0.4 25.1 -2.3 3.3 -1.2 10.7 -2.9 16.5 -3.8 5.8 -1 14 -2.8 18.3 -4.1 4.3 -1.3 8.7 -2.4 9.8 -2.4 3.1 0 9.9 -3.8 15.9 -8.9 4.4 -3.8 7 -5.1 12.9 -6.6 4 -1.1 9.4 -3.3 12 -5 2.5 -1.7 9.6 -6.5 15.7 -10.6 6.2 -4.1 14.5 -9.6 18.5 -12.2 11.6 -7.5 15.7 -10.9 18.9 -15.5 1.7 -2.4 5.8 -7.1 9.2 -10.5 7 -7.1 19.8 -23.7 22.6 -29.4 2.9 -5.7 6 -16.9 6.7 -24.8 0.4 -3.8 1.6 -9.7 2.6 -12.9 1 -3.3 1.9 -8.5 1.9 -11.6 0 -6.7 2 -19.8 5.5 -36.5 4.4 -21.1 5.5 -43.5 3.3 -64.5 -0.6 -5.8 -1.2 -16.1 -1.3 -23 -0.1 -6.9 -0.4 -13.8 -0.8 -15.5 -0.7 -3.4 -3.2 -26.8 -4.7 -45 -0.5 -6.6 -2.1 -16.5 -3.4 -22 -1.3 -5.5 -2.9 -13.9 -3.5 -18.7 -0.5 -4.8 -1.9 -10.4 -3 -12.6 -1.1 -2.1 -2.4 -7.1 -2.9 -11.1 -0.6 -4 -1.5 -7.8 -2.1 -8.5 -0.6 -0.7 -1.4 -3.5 -1.8 -6.1 -0.6 -4.7 -2.7 -9.4 -7.6 -17.1 -2.6 -4.1 -7.5 -9.4 -8.7 -9.4 -0.7 0 -1.9 2.8 -7.6 17.9 -2.7 6.9 -8 17 -12.6 23.8 -1.6 2.4 -3.5 6.1 -4.3 8.3 -0.8 2.2 -2.8 6.1 -4.5 8.5 -1.7 2.5 -4.3 7.1 -5.7 10.3 -2.3 5 -4.9 9.2 -14.7 23.8 -2.2 3.2 -12.9 13.4 -20.2 19.1 -6.4 5.1 -18.4 10 -29.8 12.2 -5.8 1.2 -15.6 3.7 -21.8 5.7 l-11.3 3.6 -16.1 -1 c-9.5 -0.5 -18.4 -0.6 -21.5 -0.1 -6.9 1.1 -41.4 3.2 -58.4 3.6 -7.1 0.1 -40.2 0.4 -73.5 0.6 -33.3 0.3 -64.3 0.8 -69 1.2 -5.4 0.5 -11.2 0.3 -16 -0.5 -5 -0.8 -19.5 -1.1 -44 -0.9 -61.2 0.3 -71.2 0.6 -78.5 1.7 -3.8 0.6 -10.8 1.2 -15.5 1.2 -4.7 0.1 -10.5 0.5 -13 1 -2.5 0.5 -13.3 1.4 -24 2 -18.1 1 -37.8 3.1 -62.7 6.4 -9.6 1.3 -15.7 2.8 -19.4 4.6 -0.9 0.5 -3.8 1.2 -6.5 1.6 -2.7 0.4 -7.6 2.1 -10.9 3.8 -3.3 1.8 -8.7 4.3 -11.9 5.6 -4.5 1.8 -8 4.4 -14.2 10.4 -4.5 4.5 -9 9.7 -9.9 11.6 -1 1.9 -3 4.9 -4.5 6.5 -3.8 4.1 -13.7 23.6 -15.5 30.5 -1 3.9 -1.4 10.5 -1.3 21.5 0.1 8.8 -0.4 19.1 -1.1 22.8 -0.6 3.8 -1.6 11.3 -2.1 16.8 -0.5 5.5 -1.4 10.8 -2 11.9 -0.6 1.1 -1.7 10.4 -2.4 20.7 -0.9 11.5 -2.3 22.1 -3.6 27.3 -2.8 10.9 -4.3 33.4 -3.5 51.5 0.4 8 0.2 17.5 -0.5 22.5 -0.6 4.7 -1.5 12.3 -1.9 17 -0.5 4.7 -1.4 10.3 -2.1 12.5 -0.6 2.2 -1.6 6 -2.1 8.5 -1.9 9 -3.1 13.5 -3.9 15.5 -0.5 1.1 -2.1 4.9 -3.6 8.5 -1.5 3.6 -3.4 7.2 -4.3 8 -0.9 0.8 -2.3 3.1 -3 5 -0.8 1.9 -2.5 4.9 -3.8 6.7 -1.2 1.7 -2.3 3.6 -2.3 4 0 1.1 -6.1 9.7 -7.2 10.1 -0.4 0.2 -1.7 2 -3 4 -1.2 2 -3 4.3 -4 5 -0.9 0.7 -2.5 2.9 -3.4 4.8 -2.4 5 -12.1 14.8 -16.9 17.2 -2.2 1.1 -6.7 3.2 -10 4.7 -11.2 5.2 -22.6 11 -30 15.4 -3.8 2.2 -20.6 8.1 -23.3 8.1 -1.9 0 -3.7 5 -6.2 16.8 -1.8 8.8 -2 12.1 -1.5 22 0.4 6.4 1.6 15 2.6 18.9 1 4 1.9 10.1 1.9 13.6 0 3.5 0.4 6.7 0.9 7.2 2.3 2.3 6.1 10.8 6.1 13.6 0 3.4 1.2 6.1 4.1 9 1 1 1.9 2.5 1.9 3.2 0 0.7 2.9 4.1 6.5 7.4 3.5 3.4 6.7 7.4 7.1 8.8 0.3 1.4 1.2 2.5 2 2.5 0.8 0 1.4 0.4 1.4 0.8 0 1.6 14.4 15.6 20.9 20.2 1.9 1.4 4.7 3.7 6.3 5.1 1.6 1.4 6.4 4.3 10.6 6.4 4.2 2.1 9.2 5 11 6.3 3.1 2.4 16 9.1 17.4 9.2 0.4 0 3.3 1.5 6.5 3.4 3.2 1.9 8.5 4.2 11.8 5.2 3.3 0.9 9.2 3.2 13 5 3.9 1.9 10.5 4.2 14.7 5.3 4.2 1.1 8.7 2.7 10 3.5 2.1 1.4 9.4 3.5 22.8 6.6 3 0.7 7.3 2.1 9.5 3.1 2.2 1 6.1 1.9 8.7 1.9 2.6 0 7 0.5 9.9 1.1 11.9 2.6 43.5 3 65.4 0.9z m-355 -315.1 c12.8 -0.7 19.5 -1.5 20.5 -2.3 0.8 -0.8 5.1 -1.7 9.5 -2 4.4 -0.4 8.2 -1.1 8.5 -1.6 0.3 -0.4 2.6 -1.1 5.3 -1.5 2.6 -0.4 4.7 -1.1 4.7 -1.6 0 -0.5 1.7 -0.9 3.8 -0.9 3.2 0 20.1 -5.6 24.2 -8.1 0.8 -0.5 2.4 -1.3 3.5 -1.8 1.2 -0.5 2.7 -1.7 3.5 -2.6 0.8 -0.9 2.4 -2.1 3.6 -2.5 1.3 -0.5 3.7 -4 6.4 -9.7 2.4 -4.8 4.7 -9.6 5.1 -10.5 0.5 -1 1.5 -3.6 2.3 -5.8 1.2 -3.5 1.2 -4.3 0 -5.5 -1.6 -1.5 -1.9 -9.6 -0.5 -11.1 0.5 -0.5 1.2 -5.8 1.5 -11.9 1.1 -21.3 1.7 -25.5 3.7 -26.8 2.5 -1.5 3.7 -7.9 4.9 -25.7 2.5 -33.8 2.8 -37.1 4.9 -40.6 1.1 -1.8 2.5 -6.2 3.1 -9.6 0.7 -3.5 1.6 -7.8 2.2 -9.6 0.5 -1.8 1.3 -8.4 1.8 -14.6 0.4 -6.3 1 -11.8 1.4 -12.4 1 -1.6 4.3 -19.4 6.1 -32.4 0.8 -6.4 2.2 -13.3 3 -15.2 0.8 -1.9 1.5 -4.7 1.5 -6.2 0 -1.5 1.1 -5.2 2.4 -8.3 2.5 -6.1 4.2 -11.8 5.7 -19.6 1.7 -9.2 4.7 -17.4 7.7 -21.2 1.6 -2.1 4.7 -6.9 6.7 -10.8 2.1 -3.8 4.3 -7.9 4.9 -9.1 0.6 -1.1 4.5 -6 8.6 -10.8 4.1 -4.9 9.1 -10.7 11.1 -13 3.4 -4.2 19 -18.3 25.2 -23 5.6 -4.2 20.9 -11.4 30.7 -14.5 15 -4.6 25 -7.9 32.5 -10.6 5.8 -2.1 8.1 -2.5 13.5 -2 4.6 0.4 9.3 0 16 -1.5 5.2 -1.1 11.2 -2 13.4 -2 2.1 0 6.6 -0.4 10 -1 9.2 -1.4 35.6 -3.9 48.6 -4.5 32 -1.6 91.2 -2.4 103 -1.4 6.9 0.6 26.7 1.3 44 1.5 54.9 0.8 58.2 0.9 75.5 2.7 19.9 2 47.6 2.4 59 0.9 4.4 -0.6 18.1 -1.8 30.5 -2.7 12.4 -0.9 26.8 -2.3 32 -3.2 5.2 -0.9 14.5 -1.7 20.5 -1.9 15.4 -0.4 23.8 -1.3 32.8 -3.5 4.3 -1 11.6 -2.3 16.3 -2.9 4.7 -0.6 10.9 -2 13.9 -3.1 7.9 -3 19.2 -12.3 24.8 -20.6 5.3 -7.9 11.7 -20 11.7 -22.3 0 -0.8 1.8 -4.4 4 -8 2.2 -3.6 4.8 -8.5 5.7 -11 0.9 -2.5 2 -5 2.5 -5.7 0.5 -0.6 1.8 -5.1 2.8 -10 1.1 -4.8 2.6 -11.1 3.4 -13.9 1.1 -3.9 1.3 -8.9 0.8 -21.5 -0.8 -23.5 -0.8 -23.7 1.1 -42.2 0.9 -9.2 1.7 -20.5 1.8 -25 0 -8.3 0.9 -15 2.8 -22.2 1.3 -5.2 1.5 -37.5 0.2 -53.6 -0.6 -6.9 -1.3 -22.4 -1.7 -34.5 -0.3 -12.2 -1.5 -28.3 -2.6 -36.4 -3.4 -25 -3.5 -26.3 -5.1 -35.5 -1.4 -8.4 -3 -16.1 -5.8 -28 -0.7 -2.7 -1.8 -5.9 -2.5 -7 -0.7 -1.1 -2 -4.1 -2.9 -6.5 -0.9 -2.5 -3.1 -6.7 -5 -9.5 -1.8 -2.7 -4.3 -7.5 -5.5 -10.6 -3.6 -9.9 -18.4 -30.7 -24.7 -35 -2.7 -1.7 -5.2 -3.7 -5.8 -4.3 -0.5 -0.7 -4.3 -3.8 -8.4 -7 -9.7 -7.8 -19.1 -12.6 -24.3 -12.6 -2.2 0 -6.8 -0.4 -10.2 -1 -3.3 -0.5 -10.8 -1.7 -16.6 -2.5 -5.8 -0.9 -15.2 -3.1 -21 -5 -12.3 -4 -30.5 -6.1 -36.6 -4.2 -2.7 0.8 -5.2 0.8 -10.2 -0.2 -3.7 -0.7 -9.8 -1.6 -13.7 -2 -3.8 -0.4 -8 -1.2 -9.2 -1.9 -1.2 -0.6 -5.5 -1.2 -9.6 -1.2 -4 0 -9.9 -0.5 -13.1 -1.1 -4.2 -0.9 -9.3 -0.9 -19.9 -0.1 -10.1 0.8 -18.5 0.8 -29.2 0 -12.6 -0.9 -31.4 -1.2 -111.5 -1.9 -3.6 -0.1 -18 0.2 -32 0.6 -14 0.4 -30.9 0.8 -37.5 0.9 -6.6 0.1 -13.6 0.8 -15.5 1.4 -1.9 0.7 -6.3 1.2 -9.7 1.2 -3.4 0 -8.2 0.6 -10.5 1.4 -2.4 0.8 -6.3 1.7 -8.8 2.1 -5.6 0.8 -10.3 2.2 -15.5 4.5 -4.7 2.1 -22.7 5.6 -33.5 6.5 -4.1 0.4 -10.4 1.5 -14 2.5 -3.6 1 -9.4 2.4 -13 3 -3.6 0.6 -7.4 1.5 -8.5 1.9 -1.1 0.5 -4 1.5 -6.5 2.2 -2.5 0.7 -6.9 2.3 -9.8 3.6 -4.9 2.1 -5.2 2.5 -4.1 4.5 0.6 1.1 1.5 8.2 2 15.7 0.5 7.5 1.1 15.2 1.5 17.1 1.1 6.6 -1.5 35.2 -4.2 45.6 -1.3 5.4 -2.9 14.7 -3.4 20.8 -1.5 20.2 -3.1 34 -4.7 41.6 -2.4 11.6 -3.3 17.8 -4.3 27 -0.5 4.7 -1.5 12.6 -2.3 17.5 -0.9 5 -2.1 13.5 -2.7 19 -0.6 5.5 -1.8 15.1 -2.6 21.3 -1.3 9.2 -1.3 13 -0.3 21.4 0.6 5.6 1.8 11.7 2.6 13.6 1.3 3.2 1.6 3.4 4.6 2.6 1.8 -0.4 8.7 -0.8 15.5 -1 12.2 -0.2 14.1 -0.6 23.7 -5 2.8 -1.2 10.2 -3.4 16.5 -4.7 6.3 -1.4 15.3 -3.5 19.9 -4.6 8.5 -2.2 16.7 -3.3 38.6 -5.1 6.6 -0.5 17.4 -1.5 24 -2 38.5 -3.3 53.4 -3.7 150.8 -4.5 57.8 -0.5 67.5 -0.8 80.3 -2.5 8 -1.1 15.4 -2.5 16.6 -3.1 2.7 -1.4 12.7 -0.6 15.7 1.2 2 1.3 6.1 10.2 6.1 13.4 0 2.7 4.2 8.5 6.2 8.5 1 0 3.8 1.5 6.2 3.2 4.7 3.7 14.6 14.3 14.6 15.8 0 0.5 1.8 3.7 4 7.1 3.8 5.9 4 6.6 4 14.2 0 4.3 -0.7 10.6 -1.5 13.9 -1.6 6 -6.6 16.8 -9.4 20.1 -1.5 1.8 -9 5.7 -11 5.7 -0.6 0 -3.9 2.1 -7.3 4.6 l-6.3 4.6 -13 -0.7 c-7.8 -0.4 -15.4 -1.4 -19.1 -2.5 -5.5 -1.7 -9.6 -1.8 -47.5 -1.5 -59.9 0.5 -97.9 1.4 -109.9 2.5 -5.8 0.5 -22.9 1.2 -38 1.5 -29.4 0.6 -56.9 2.7 -86.5 6.5 -4.4 0.6 -13.8 1.5 -21 2 -17.3 1.1 -32.4 2.8 -36.6 4 -1.9 0.6 -7.2 1.3 -11.9 1.6 -15.9 1 -33.4 3.5 -53.5 7.6 -11 2.2 -24 4.6 -29 5.3 -11.4 1.7 -26.7 4.8 -42 8.6 -6.6 1.7 -15.6 3.9 -19.9 5 -4.4 1.1 -8.4 2.3 -9 2.8 -0.6 0.5 -4.9 2 -9.7 3.5 -4.7 1.4 -10.5 3.9 -13 5.4 -2.5 1.6 -5.6 3.2 -6.9 3.5 -1.4 0.3 -5.4 1.7 -9 3 -3.6 1.3 -7.4 2.7 -8.5 3.1 -1.1 0.4 -3.1 1.4 -4.5 2.2 -6.9 4 -27.8 13.4 -29.9 13.4 -0.9 0 -2.5 0.7 -3.5 1.5 -1.1 0.8 -2.7 1.5 -3.6 1.5 -0.9 0 -3.2 0.8 -5.1 1.7 -4.1 2.1 -15.9 6.3 -17.6 6.3 -0.7 0 -3.3 1.3 -5.9 3 -2.6 1.6 -7.8 3.9 -11.6 5.1 -3.8 1.2 -7.1 2.6 -7.4 3 -0.3 0.5 -1.2 0.9 -2.1 0.9 -1.8 0 -14.1 5.9 -14.9 7.2 -0.3 0.4 -2.1 0.8 -3.9 0.8 -1.9 0 -5.4 1.1 -7.9 2.5 -2.5 1.4 -5.1 2.5 -5.9 2.5 -0.7 0 -3.7 1.1 -6.5 2.5 -2.9 1.4 -5.8 2.5 -6.6 2.5 -0.7 0 -1.9 0.7 -2.6 1.5 -0.7 0.8 -2.4 1.5 -3.7 1.5 -1.4 0 -3.7 0.6 -5.1 1.3 -1.5 0.8 -4.9 2.4 -7.7 3.6 -5.1 2.3 -7.1 3.3 -10.2 5.1 -3.7 2 -11.3 5 -12.7 5 -0.8 0 -2.7 0.6 -4.3 1.4 -4.5 2.3 -10 4.6 -11.1 4.6 -0.9 0 -5.2 1.9 -9.2 4.2 -0.8 0.4 -4.6 2.4 -8.5 4.3 -3.8 1.9 -7.9 4.2 -8.9 5 -1.1 0.8 -2.5 1.5 -3.2 1.5 -1.3 0 -11.7 6.1 -14.3 8.4 -0.9 0.7 -4.1 2.4 -7.1 3.6 -3 1.3 -6 2.9 -6.6 3.7 -0.6 0.7 -1.8 1.3 -2.7 1.3 -0.8 0 -1.7 0.3 -1.9 0.8 -0.2 0.4 -2 1.9 -4 3.5 -2.9 2.1 -4.1 4 -5.4 8.5 -0.9 3.1 -3 8.4 -4.6 11.6 -3.2 6.2 -4.9 14.9 -6.8 33.6 -0.6 5.2 -1.2 35.9 -1.4 68.2 -0.3 38.9 -0.9 60.8 -1.7 65 -1.4 7.6 -0.4 63.6 1.3 73.8 1.2 7.6 8.4 23 13.8 29.9 2 2.5 4.5 6.4 5.5 8.5 1 2 6.5 8.5 12.2 14.2 5.6 5.8 10.3 10.9 10.3 11.4 0 0.5 1.2 1.6 2.8 2.4 1.5 0.8 5.2 3.7 8.2 6.5 3 2.8 6 5.1 6.6 5.1 0.7 0 1.4 0.7 1.8 1.5 0.3 0.8 1.2 1.5 2.1 1.5 0.8 0 1.5 0.6 1.5 1.4 0 0.8 1.2 1.7 2.7 2.1 1.5 0.3 3.3 1.5 4.1 2.6 0.7 1 2.2 1.9 3.3 1.9 1 0 1.9 0.5 1.9 1 0 0.6 0.9 1 2 1 1.1 0 2 0.5 2 1 0 0.6 0.6 1 1.4 1 1.5 0 14.7 6.8 15.6 8 0.3 0.4 2 1 3.7 1.3 1.8 0.4 5.2 1.5 7.5 2.6 2.4 1 6.8 2.2 9.8 2.6 3 0.4 6 1.1 6.5 1.5 0.6 0.4 3.9 1.3 7.5 2 7.3 1.4 12.4 2.7 15.8 4.1 1.2 0.5 3.2 1.3 4.5 1.8 4.4 1.8 28.4 6.1 34.3 6.2 3.2 0 6.8 0.4 7.9 0.9 2.7 1.2 6 1.2 28 -0.1z"
       id="path1"
       style="fill:#ffffff;fill-opacity:1" />
    <path
       d="M926.7 1362 c-6 -0.4 -11.3 -1.2 -12 -1.9 -0.6 -0.6 -1.9 -1.1 -2.8 -1.1 -1 0 -4.7 -1.3 -8.2 -3 -3.6 -1.6 -7.2 -3 -7.9 -3 -1.9 0 -9.8 -5.2 -12.7 -8.4 -1.4 -1.4 -3 -2.6 -3.6 -2.6 -1.5 0 -13.3 -11.5 -16 -15.6 -3.1 -4.7 -5.5 -9.3 -5.5 -10.7 0 -0.8 -0.9 -2.2 -2.1 -3.3 -1.2 -1 -3.7 -4.3 -5.7 -7.3 -3.5 -5.2 -3.6 -5.8 -4.4 -17.5 -0.4 -6.8 -0.3 -13.4 0.2 -15.1 0.5 -1.6 1.4 -5 2 -7.5 2 -7.6 3 -9.1 12.3 -18.9 4.2 -4.4 14.7 -10.1 18.6 -10.1 1.1 0 4.9 -1.5 8.5 -3.4 6.9 -3.6 10.5 -4.3 32.6 -6.6 11.4 -1.2 11.6 -1.2 18.4 1.4 3.7 1.4 7.6 2.6 8.6 2.6 1 0 3.1 0.6 4.7 1.4 1.5 0.8 4.2 2 5.8 2.7 1.7 0.7 5.3 3.2 8 5.4 2.8 2.2 6.4 4.9 8 6 4.7 2.9 8.3 6.7 9.7 10 0.7 1.6 1.7 3.5 2.4 4 1.7 1.5 11.1 24.4 11.8 29 0.9 5.7 -1.4 31.6 -3.1 34 -0.7 1.1 -1.3 3.4 -1.3 5.1 0 1.7 -0.9 4.3 -2 5.7 -1.1 1.4 -2 2.8 -2 3.2 0 0.3 -1.1 3 -2.4 5.8 -2.9 6.2 -11.8 13.8 -20.5 17.5 -4.6 2 -7.6 2.5 -17.1 2.7 -6.3 0.2 -16.4 0 -22.3 -0.5z"
       id="path2"
       style="fill:#ffffff;fill-opacity:1" />
    <path
       d="M806.5 396.5 c-0.5 -0.1 -4.2 -1.2 -8.1 -2.4 -10.4 -3.1 -19.2 -8.8 -23.1 -14.7 -1.7 -2.7 -4.2 -6.2 -5.5 -7.8 -1.2 -1.6 -2.8 -4.3 -3.4 -6 -0.8 -2.3 -1.9 -3.2 -4 -3.6 -1.8 -0.3 -3 -1.2 -3.2 -2.5 -0.2 -1.1 -1.1 -2.8 -2.1 -3.9 -1.2 -1.4 -1.6 -4 -1.7 -12 0 -7.7 -0.5 -11.6 -2.2 -16.3 -3.4 -9.7 -3 -18.8 1.3 -30.7 4.7 -13 7.6 -18.4 12.2 -22.7 8.9 -8.3 16 -11.5 35.2 -16.4 7.5 -1.8 17 -4.8 21.1 -6.6 6.8 -2.9 8.5 -3.2 18 -3.3 9.6 -0.1 10.8 0.1 13.7 2.3 1.7 1.3 5.6 3.3 8.5 4.5 4.6 1.8 5.8 2.9 8.8 8 2.4 4.1 5 6.9 8.2 8.9 4.7 2.9 5.8 4.8 7.7 12.2 0.6 2.3 1.9 5 3 6.1 7.7 8.3 11.3 33.1 6.3 43.7 -1.2 2.6 -2.2 5.8 -2.2 7.2 0 1.4 -0.4 3.3 -0.8 4.3 -5.2 10.8 -7.6 14.2 -14.9 21.6 -4.5 4.6 -9.9 9.4 -12 10.7 -2.1 1.2 -6.2 4.2 -9.1 6.5 -7.4 6 -14.8 9.4 -25.4 11.5 -8 1.6 -23.2 2.4 -26.3 1.4z"
       id="path3"
       style="fill:#ffffff;fill-opacity:1" />
  </g>
</svg>
